/* XPM */
static char *result[] = {
/* columns rows colors chars-per-pixel */
"96 144 9 1 ",
"  c #5A2314",
". c #724930",
"X c #190657",
"o c #95714B",
"O c #C08B4C",
"+ c #3F3B93",
"@ c #E4C19C",
"# c #F6DCAF",
"$ c None",
/* pixels */
"$OOOOOOOOOOOOOOOOOOOOOOOOOOOOOOOOOOOOOOOOOOOOOOOOOOOOOOOOOOOOOOOOOOOOOOOOOOOOOOOOOOOOOOOOOOOOOO$",
"O@@@@@@@@@@@@@@@@@@@@@@@@@@@@@@@@@@@@@@@@@@@@@@@@@@@@@@@@@@@@@@@@@@@@@@@@@@@@@@@@@@@@@@@@@@@@@@O",
"O############################################################################################@@O",
"O@@@@@@@@@@@@@@@@@@@@@@@@@@@@@@@@@@@@@@@@@@@@@@@@@@@@@@@@@@@@@@@@@@@@@@@@@@@@@@@@@@@@@@@@@@@@@@O",
"O#############################################################################################@O",
"O#############################################################################################@O",
"O@@@@@@@@@@@@@@@@@@@@@@@@@@@@@@@@@@@@@@@@@@@@@@@@@@@@@@@@@@@@@@@@@@@@@@@@@@@@@@@@@@@@@@@@@@@@@@O",
"O#############################################################################################@O",
"O#####XXXXX###################################################################################@O",
"O####XXXXXXX##################################################################################@O",
"O###XXX###XXX#################################################################################@O",
"O###XX#####XX#################################################################################@O",
"O##XX#######XX################################################################################@O",
"O##XX#######XX################################################################################@O",
"O##XX#######XX################################################################################@O",
"O##XX###XX##XX################################################################################@O",
"O##XXX##XXXXXX################################################################################@O",
"@###XXX##XXXX#################################################################################@O",
"O###XXXXXXXXX#################################################################################@O",
"O####XXXXXXXXX#####OOOOOOOOOOOOOOOOOOOOOOOOOOOOOOOOOOOOOOOOOOOOOOOOOOOOOOOOOO#################@O",
"@###########XX#####O######### ..........................        ############O#################@O",
"O######XXXX########O######### ..........................        ############O#################@O",
"@#####X++++X#######O######### ...               ......          ############O#################@O",
"@####X++++++X######O#++++#####   OOOOOOOOOOOOOOO               ########++++#O#################@O",
"@####X++++++X######O#++++#####.OOOOOOOOOOOOOOOOOOOOO           #########++##O#################@O",
"@####X++++++X######O##++######.OOO........ OOOOOOOOOOO         ########++++#O#################@O",
"@####X++++++X######O#++++#####.O.  OOOOOOOO.....  OOOOOO      #########++++#O#################@O",
"@##XX#X++++X#XX####O##########..O.@..OOOOOOO. .OO.   OOOOO    ##############O#################@O",
"@#XXXXXXXXXXXXXX###O#++++##### O.@##@..OOOOOO .OO....  OOOO  ##########++++#O#################@o",
"@X++++++++++++++X##O#++++##### O.#####@.OOOOO .OO......  OO  ###########++##O#################@O",
"@XXXXXXXXXXXXXXXX##O##++######  @######@..OOO. OO........   ###########++++#O#################@O",
"@XXXXXXXXXXXXXXXX##O#++++###### #########@  .. OOO......... ###########++++#O#################@o",
"@XXXXXXXXXXXXXXXX##O########### ##########@O   OOO.......... ###############O#################@O",
"@#XXXXXXXXXXXXXX###O#++++######.###########@@O.OOO.......... ##########++++#O#################@o",
"@##XXX#XXXX#XXX####O#++++######O####@O.... @@O.OOOO.......... ##########++##O#################@o",
"@#####XXXXXX#######O##++#######O@###O.@@@OO O@.OOOO.......... #########++++#O#################@O",
"@####XXXXXXXX######O#++++#######O###@@@@@@@@@@O.OOOO......... #########++++#O#################@o",
"@##################O############O@###.  .O@@@@@.OOOOO........ ##############O#################@o",
"@##################O#++++########O##.  .O..O@@@O.OOOOO........ ########++++#O#################@o",
"@##################O#++++########O## O .##O.@@@@.OOOOOO....... #########++##O#################@o",
"@##################O##++#########O##O@..#@###@@@@.OOOOOO...... ########++++#O#################@o",
"@##################O#++++#######O#############@@@O.OOOOO...... ########++++#O#################@o",
"@##################O############O#############@@@O.OOOOOO..... #############O#################@o",
"@##################O#++++######O##############@@@OO.OOOOO..... ########++++#O#################@o",
"@##################O#++++######O##############@@@OO.OOOOOO.... #########++##O#################@o",
"@##################O##++#######O@@############@@@OO..OOOOO.... ########++++#O#################@o",
"@##################O#++++#######O.@##########@@@@OO..OOOOO.... ########++++#O#################@o",
"@##################O#############O@##########@@@OO....OOOOO... #############O#################@o",
"@##################O#++++########O@O.O@#####@@@@O.OO..OOOOO... ########++++#O#################@o",
"@##################O#++++#########O@@######@@@@OOOOOO..OOOO... #########++##O#################@o",
"@##################O##++##########O@#######@@@OOOOOOO..OOO.... ########++++#O#################@o",
"@##################O#++++##########O######@@@.OOOOOOOO.OOO.... ########++++#O#################@o",
"@##################O###############O#####@@..OOOOOOOOO OO.... ##############O#################@ ",
"@##################O#++++##########.@##@@..OOOOOOOOOOO OO.... #########++++#O#################@o",
"@##################O#++++###########..... OOOOOOOOOOOO O..... ##########++##O#################@o",
"O##################O##++################# OO@@OOOOOOOO O...... ########++++#O#################@ ",
"@##################O#++++################.O@@@@OOOOOO. ....... ########++++#O#################@o",
"O##################O#####################.@@@@@@OOOOO.  ....... ############O#################@ ",
"O##################O#++++################.@@@@@@OOOO. . ....... #######++++#O#################@ ",
"@##################O#++++###############..@@@@@@OO.  OO.   .... ########++##O#################@o",
"O##################O##++###############.O.@@@@...  O.OOO.O.  ... ######++++#O#################@ ",
"O##################O#++++############ .O.O....OO.OOO..OO..O    . ######++++#O#################@ ",
"O##################O###############   OO.OOO.OOO.OO.O.O.OO.      ###########O#################@ ",
"O##################O#++++########     .OO.O.O.O.O.O.OO..O        ######++++#O#################@ ",
"O##################O#++++######        .O..OO.O.O.O.OO.O          ######++##O#################@ ",
"O##################O##++######           ..OOO.OOO.OO.             ####++++#O#################@ ",
"O##################O#++++####              .OO.OOO.                 ###++++#O#################@ ",
"O##################O########                                        ########O#################@ ",
"O##################O#++++##                                          ##++++#O#################@ ",
"O##################O#++++##                                          ###++##O#################@ ",
"O##################O##++##                                           ##++++#O#################@ ",
"O##################O#++++#                                            #++++#O#################@ ",
"O##################O@@@@@@                                            @@@@@@O#################@ ",
"O##################O#++++##                                           #++++#O#################@ ",
"O##################O#++++##                                          ###++##O#################@ ",
"O##################O@@++@@@                                          @@++++@O#################@ ",
"O##################O#++++###                                        ###++++#O#################@ ",
"O##################O@@@@@@@@                 .OOO.OO.              @@@@@@@@@O#################@ ",
"O##################O@++++@@@@             .OO.OOO.OOO..           @@@@@++++@O#################@ ",
"O##################O@++++@@@@@          O.OO.O.O.O.OO..O.        @@@@@@@++@@O#################@ ",
"O##################O@@++@@@@@@@        O..OO.O.O.O.O.O.OO.     @@@@@@@@++++@O#################@ ",
"O##################O@++++@@@@@@      .OO.O.O.OO.OOO.OOO.OO   @@@@@@@@@@++++@O#################@ ",
"O##################O@@@@@@@@@@@ .    O..OO..OOO.OO....O.O. @@@@@@@@@@@@@@@@@O#################@ ",
"O##################O@++++@@@@@@ ...  .O.OOO.O  ...@@@@.O.@@@@@@@@@@@@@@++++@O#################@ ",
"O##################O@++++@@@@@@@ ....   .OO  .OO@@@@@@..@@@@@@@@@@@@@@@@++@@O#################@ ",
"O##################O@@++@@@@@@@@ ....... . .OOOO@@@@@@.@@@@@@@@@@@@@@@@++++@O#################@ ",
"O##################O@++++@@@@@@@ .......  .OOOOO@@@@@@.@@@@@@@@@@@@@@@@++++@O#################@ ",
"O##################O@@@@@@@@@@@@@ ....... .OOOOOO@@@@O.@@@@@@@@@@@@@@@@@@@@@O#################@ ",
"O##################O@++++@@@@@@@@ ......O OOOOOOOO@@OO @@@@@@@@@@@@@@@@++++@O#################@ ",
"O##################O@++++@@@@@@@@@ .....O OOOOOOOOOOOO .....@@@@@@@@@@@@++@@O#################@ ",
"O##################O@@++@@@@@@@@@@ ....OO OOOOOOOOOOO..@@##@.@@@@@@@@@@++++@O#################@ ",
"O##################O@++++@@@@@@@@@ ....OO OOOOOOOOO..@@#####O@@@@@@@@@@++++@O#################@ ",
"O##################O@@@@@@@@@@@@@ ....OOO.OOOOOOOO.@@@######O@@@@@@@@@@@@@@@O#################@ ",
"O##################O@++++@@@@@@@@ ....OOO..OOOOOOO@@@#######@O@@@@@@@@@++++@O#################@ ",
"O##################O@++++@@@@@@@@ ...OOOO..OOOOOO@@@@######@@O@@@@@@@@@@++@@O#################@ ",
"O##################O@@++@@@@@@@@@ ...OOOOO..OO.O@@@@#####@O.O@O@@@@@@@@++++@O#################@ ",
"O##################O@++++@@@@@@@@ ...OOOOO....OO@@@##########@O@@@@@@@@++++@O#################@ ",
"O##################O@@@@@@@@@@@@@ ....OOOOO..OO@@@@##########@.O@@@@@@@@@@@@O#################@ ",
"O##################O@++++@@@@@@@@ ....OOOOO..OO@@@############@@O@@@@@@++++@O#################@ ",
"O##################O@++++@@@@@@@@ ....OOOOOO.OO@@@##############O@@@@@@@++@@O#################@ ",
"O##################O@@++@@@@@@@@@ .....OOOOO.OO@@@##############O@@@@@@++++@O#################@ ",
"O##################O@++++@@@@@@@@ .....OOOOOO.O@@@#############O@@@@@@@++++@.#################@ ",
"O##################O@@@@@@@@@@@@@ ......OOOOO.O@@@#############O@@@@@@@@@@@@O#################@ ",
"O##################O@++++@@@@@@@@ ......OOOOOO.@@@@###@#..@O##O@@@@@@@@++++@O#################@ ",
"O##################O@++++@@@@@@@@ .......OOOOOO.@@@@.O##. O ##O@@@@@@@@@++@@.#################@ ",
"O##################.@@++@@@@@@@@@ ........OOOOO.O@@@O..O.  .##O@@@@@@@@++++@.#################@ ",
"O@@@@@@@@@@@@@@@@@@O@++++@@@@@@@@@ ........OOOOO.@@@@@O.  .###@O@@@@@@@++++@O@@@@@@@@@@@@@@@@@@ ",
"O##################.@@@@@@@@@@@@@@ .........OOOO.O@@@@@@@@@@###O@@@@@@@@@@@@.######XXXXXXXX###@ ",
"O##################.@++++@@@@@@@@@ ..........OOOO.@O OO@@@.O###@O@@@@@@++++@.#######XXXXXX####@ ",
"O##################.@++++@@@@@@@@@ ..........OOOO.O@@ ....O@####O@@@@@@@++@@.####XXX#XXXX#XXX#@ ",
"O@@@@@@@@@@@@@@@@@@.OO++OOOOOOOOOOO ..........OOO.O@@###########.OOOOOO++++O.@@@XXXXXXXXXXXXXX@ ",
"O##################.@++++@@@@@@@@@@ ..........OOO   O@########## @@@@@@++++@.##XXXXXXXXXXXXXXXX ",
"O##################.OOOOOOOOOOOOOOOO .........OOO ..  @######### OOOOOOOOOOO.##XXXXXXXXXXXXXXXX ",
"O@@@@@@@@@@@@@@@@@@.O++++OOOOOOOOOOO   ........OO .OOO..@######@  OOOOO++++O.@@XXXXXXXXXXXXXXXX ",
"O##################.@++++@@@@@@@@@@  OO  ......OO. OOOOO.@#####.O @@@@@@++@@.##X++++++++++++++X ",
"o@@@@@@@@@@@@@@@@@@.OO++OOOOOOOOOOO  OOOO  ....OO. OOOOOO..@##@.O OOOOO++++O.@@@XXXXXXXXXXXXXX@ ",
"o##################.O++++OOOOOOOOO    OOOOO   .OO. .OOOOOOO..@.O..OOOOO++++O.####XX#X++++X#XX#@ ",
"o@@@@@@@@@@@@@@@@@@.OOOOOOOOOOOOOO      OOOOOO  .....OOOOOOOO  .O.OOOOOOOOOO.@@@@@@X++++++X@@@@ ",
"o@@@@@@@@@@@@@@@@@@.O++++OOOOOOOO         OOOOOOOOOOO ........OOO.OOOOO++++O.@@@@@@X++++++X@@@@ ",
"o##################.O++++OOOOOOOO           OOOOOOOOOOOOOOOOOOOOO.OOOOOO++OO.######X++++++X###@ ",
"o@@@@@@@@@@@@@@@@@@.OO++OOOOOOOOO               OOOOOOOOOOOOOOO   OOOOO++++O.@@@@@@X++++++X@@@@ ",
"o@@@@@@@@@@@@@@@@@@.O++++OOOOOOO          ......               ... OOOO++++O.@@@@@@@X++++X@@@@@ ",
"o@@@@@@@@@@@@@@@@@@.OOOOOOOOOOOO        .......................... OOOOOOOOO.@@@@@@@@XXXX@@@@@@ ",
"o##################.OOOOOOOOOOOO        .......................... OOOOOOOOO.#####XX##########@ ",
"o@@@@@@@@@@@@@@@@@@..........................................................@@@@@XXXXXXXXX@@@@ ",
"o@@@@@@@@@@@@@@@@@@@@@@@@@@@@@@@@@@@@@@@@@@@@@@@@@@@@@@@@@@@@@@@@@@@@@@@@@@@@@@@@@@XXXXXXXXX@@@ ",
"o@@@@@@@@@@@@@@@@@@@@@@@@@@@@@@@@@@@@@@@@@@@@@@@@@@@@@@@@@@@@@@@@@@@@@@@@@@@@@@@@@@XXXX@@XXX@@@ ",
"o@@@@@@@@@@@@@@@@@@@@@@@@@@@@@@@@@@@@@@@@@@@@@@@@@@@@@@@@@@@@@@@@@@@@@@@@@@@@@@@@@XXXXXX@@XXX@@ ",
"o@@@@@@@@@@@@@@@@@@@@@@@@@@@@@@@@@@@@@@@@@@@@@@@@@@@@@@@@@@@@@@@@@@@@@@@@@@@@@@@@@XX@@XX@@@XX@@ ",
"o@@@@@@@@@@@@@@@@@@@@@@@@@@@@@@@@@@@@@@@@@@@@@@@@@@@@@@@@@@@@@@@@@@@@@@@@@@@@@@@@@XX@@@@@@@XX@@ ",
"o@@@@@@@@@@@@@@@@@@@@@@@@@@@@@@@@@@@@@@@@@@@@@@@@@@@@@@@@@@@@@@@@@@@@@@@@@@@@@@@@@XX@@@@@@@XX@@ ",
"o@@@@@@@@@@@@@@@@@@@@@@@@@@@@@@@@@@@@@@@@@@@@@@@@@@@@@@@@@@@@@@@@@@@@@@@@@@@@@@@@@XX@@@@@@@XX@@ ",
"o@@@@@@@@@@@@@@@@@@@@@@@@@@@@@@@@@@@@@@@@@@@@@@@@@@@@@@@@@@@@@@@@@@@@@@@@@@@@@@@@@@XX@@@@@XX@@@ ",
"o@@@@@@@@@@@@@@@@@@@@@@@@@@@@@@@@@@@@@@@@@@@@@@@@@@@@@@@@@@@@@@@@@@@@@@@@@@@@@@@@@@XXX@@@XXX@@@ ",
"o@@@@@@@@@@@@@@@@@@@@@@@@@@@@@@@@@@@@@@@@@@@@@@@@@@@@@@@@@@@@@@@@@@@@@@@@@@@@@@@@@@@XXXXXXX@@@@ ",
"o@@@@@@@@@@@@@@@@@@@@@@@@@@@@@@@@@@@@@@@@@@@@@@@@@@@@@@@@@@@@@@@@@@@@@@@@@@@@@@@@@@@@XXXXX@@@@@ ",
"o@@@@@@@@@@@@@@@@@@@@@@@@@@@@@@@@@@@@@@@@@@@@@@@@@@@@@@@@@@@@@@@@@@@@@@@@@@@@@@@@@@@@@@@@@@@@@@ ",
"o@@@@@@@@@@@@@@@@@@@@@@@@@@@@@@@@@@@@@@@@@@@@@@@@@@@@@@@@@@@@@@@@@@@@@@@@@@@@@@@@@@@@@@@@@@@@@@ ",
"o@@@@@@@@@@@@@@@@@@@@@@@@@@@@@@@@@@@@@@@@@@@@@@@@@@@@@@@@@@@@@@@@@@@@@@@@@@@@@@@@@@@@@@@@@@@@@@ ",
"o@@@@@@@@@@@@@@@@@@@@@@@@@@@@@@@@@@@@@@@@@@@@@@@@@@@@@@@@@@@@@@@@@@@@@@@@@@@@@@@@@@@@@@@@@@@@@@ ",
".@@@@@@@@@@@@@@@@@@@@@@@@@@@@@@@@@@@@@@@@@@@@@@@@@@@@@@@@@@@@@@@@@@@@@@@@@@@@@@@@@@@@@@@@@@@@@@ ",
".@@@@@@@@@@@@@@@@@@@@@@@@@@@@@@@@@@@@@@@@@@@@@@@@@@@@@@@@@@@@@@@@@@@@@@@@@@@@@@@@@@@@@@@@@@@@@@ ",
".@@@@@@@@@@@@@@@@@@@@@@@@@@@@@@@@@@@@@@@@@@@@@@@@@@@@@@@@@@@@@@@@@@@@@@@@@@@@@@@@@@@@@@@@@@@@@@ ",
"$  .........................................................................................   $"
};
