/* XPM */
static char *e7acc58f09cb4f55f491a49ac082685aLze2S0R1YznXr212[] = {
/* columns rows colors chars-per-pixel */
"96 144 9 1 ",
"  c None",
". c #5A2314",
"X c #724930",
"o c #BF1929",
"O c #E43B00",
"+ c #95714B",
"@ c #C08B4C",
"# c #E4C19C",
"$ c #F6DCAF",
/* pixels */
" @@@@@@@@@@@@@@@@@@@@@@@@@@@@@@@@@@@@@@@@@@@@@@@@@@@@@@@@@@@@@@@@@@@@@@@@@@@@@@@@@@@@@@@@@@@@@@ ",
"@##############################################################################################@",
"@$$$$$$$$$$$$$$$$$$$$$$$$$$$$$$$$$$$$$$$$$$$$$$$$$$$$$$$$$$$$$$$$$$$$$$$$$$$$$$$$$$$$$$$$$$$$##@",
"@##############################################################################################@",
"@$$$$$$$$$$$$$$$$$$$$$$$$$$$$$$$$$$$$$$$$$$$$$$$$$$$$$$$$$$$$$$$$$$$$$$$$$$$$$$$$$$$$$$$$$$$$$#@",
"@$$$$$$$$$$$$$$$$$$$$$$$$$$$$$$$$$$$$$$$$$$$$$$$$$$$$$$$$$$$$$$$$$$$$$$$$$$$$$$$$$$$$$$$$$$$$$#@",
"@##############################################################################################@",
"@$$$$$$$$$$$$$$$$$$$$$$$$$$$$$$$$$$$$$$$$$$$$$$$$$$$$$$$$$$$$$$$$$$$$$$$$$$$$$$$$$$$$$$$$$$$$$#@",
"@$$$$$ooooo$$$$$$$$$$$$$$$$$$$$$$$$$$$$$$$$$$$$$$$$$$$$$$$$$$$$$$$$$$$$$$$$$$$$$$$$$$$$$$$$$$$#@",
"@$$$$ooooooo$$$$$$$$$$$$$$$$$$$$$$$$$$$$$$$$$$$$$$$$$$$$$$$$$$$$$$$$$$$$$$$$$$$$$$$$$$$$$$$$$$#@",
"@$$$ooo$$$ooo$$$$$$$$$$$$$$$$$$$$$$$$$$$$$$$$$$$$$$$$$$$$$$$$$$$$$$$$$$$$$$$$$$$$$$$$$$$$$$$$$#@",
"@$$$oo$$$$$oo$$$$$$$$$$$$$$$$$$$$$$$$$$$$$$$$$$$$$$$$$$$$$$$$$$$$$$$$$$$$$$$$$$$$$$$$$$$$$$$$$#@",
"@$$oo$$$$$$$oo$$$$$$$$$$$$$$$$$$$$$$$$$$$$$$$$$$$$$$$$$$$$$$$$$$$$$$$$$$$$$$$$$$$$$$$$$$$$$$$$#@",
"@$$oo$$$$$$$oo$$$$$$$$$$$$$$$$$$$$$$$$$$$$$$$$$$$$$$$$$$$$$$$$$$$$$$$$$$$$$$$$$$$$$$$$$$$$$$$$#@",
"@$$oo$$$$$$$oo$$$$$$$$$$$$$$$$$$$$$$$$$$$$$$$$$$$$$$$$$$$$$$$$$$$$$$$$$$$$$$$$$$$$$$$$$$$$$$$$#@",
"@$$oo$$$oo$$oo$$$$$$$$$$$$$$$$$$$$$$$$$$$$$$$$$$$$$$$$$$$$$$$$$$$$$$$$$$$$$$$$$$$$$$$$$$$$$$$$#@",
"@$$ooo$$oooooo$$$$$$$$$$$$$$$$$$$$$$$$$$$$$$$$$$$$$$$$$$$$$$$$$$$$$$$$$$$$$$$$$$$$$$$$$$$$$$$$#@",
"#$$$ooo$$oooo$$$$$$$$$$$$$$$$$$$$$$$$$$$$$$$$$$$$$$$$$$$$$$$$$$$$$$$$$$$$$$$$$$$$$$$$$$$$$$$$$#@",
"@$$$ooooooooo$$$$$$$$$$$$$$$$$$$$$$$$$$$$$$$$$$$$$$$$$$$$$$$$$$$$$$$$$$$$$$$$$$$$$$$$$$$$$$$$$#@",
"@$$$$ooooooooo$$$$$@@@@@@@@@@@@@@@@@@@@@@@@@@@@@@@@@@@@@@@@@@@@@@@@@@@@@@@@@@$$$$$$$$$$$$$$$$$#@",
"#$$$$$$$$$$$oo$$$$$@$$$$$$$$$.XXXXXXXXXXXXXXXXXXXXXXXXXX........$$$$$$$$$$$$@$$$$$$$$$$$$$$$$$#@",
"@$$$$$$$oo$$$$$$$$$@$$$$$$$$$.XXXXXXXXXXXXXXXXXXXXXXXXXX........$$$$$$$$$$$$@$$$$$$$$$$$$$$$$$#@",
"#$$$$$$oOOo$$$$$$$$@$$$$$$$$$.XXX...............XXXXXX..........$$$$$$$$$$$$@$$$$$$$$$$$$$$$$$#@",
"#$$$$$oOOOOo$$$$$$$@$$oo$$$$$$...@@@@@@@@@@@@@@@...............$$$$$$$$$oo$$@$$$$$$$$$$$$$$$$$#@",
"#$$$$oOOOOOOo$$$$$$@$oooo$$$$$X@@@@@@@@@@@@@@@@@@@@@...........$$$$$$$$oooo$@$$$$$$$$$$$$$$$$$#@",
"#$$$oOOOOOOOOo$$$$$@$oooo$$$$$X@@@XXXXXXXX.@@@@@@@@@@@.........$$$$$$$$oooo$@$$$$$$$$$$$$$$$$$#@",
"#$$oOOOOOOOOOOo$$$$@$$oo$$$$$$X@X..@@@@@@@@XXXXX..@@@@@@......$$$$$$$$$$oo$$@$$$$$$$$$$$$$$$$$#@",
"#$oOOOOOOOOOOOOo$$$@$$$$$$$$$$XX@X#XX@@@@@@@X.X@@X...@@@@@....$$$$$$$$$$$$$$@$$$$$$$$$$$$$$$$$#@",
"#oooooooooooooooo$$@$$oo$$$$$$.@X#$$#XX@@@@@@.X@@XXXX..@@@@..$$$$$$$$$$$oo$$@$$$$$$$$$$$$$$$$$#+",
"#oOOOOOOOOOOOOOOo$$@$oooo$$$$$.@X$$$$$#X@@@@@.X@@XXXXXX..@@..$$$$$$$$$$oooo$@$$$$$$$$$$$$$$$$$#@",
"#$oooooooooooooo$$$@$oooo$$$$$..#$$$$$$#XX@@@X.@@XXXXXXXX...$$$$$$$$$$$oooo$@$$$$$$$$$$$$$$$$$#@",
"#$$oooooooooooo$$$$@$$oo$$$$$$$.$$$$$$$$$#..XX.@@@XXXXXXXXX.$$$$$$$$$$$$oo$$@$$$$$$$$$$$$$$$$$#+",
"#$$$oooooooooo$$$$$@$$$$$$$$$$$.$$$$$$$$$$#@...@@@XXXXXXXXXX.$$$$$$$$$$$$$$$@$$$$$$$$$$$$$$$$$#@",
"#$$$$oooooooo$$$$$$@$$oo$$$$$$$X$$$$$$$$$$$##@X@@@XXXXXXXXXX.$$$$$$$$$$$oo$$@$$$$$$$$$$$$$$$$$#+",
"#$$$$$oooooo$$$$$$$@$oooo$$$$$$@$$$$#@XXXX.##@X@@@@XXXXXXXXXX.$$$$$$$$$oooo$@$$$$$$$$$$$$$$$$$#+",
"#$$$$$$oooo$$$$$$$$@$oooo$$$$$$@#$$$@X###@@.@#X@@@@XXXXXXXXXX.$$$$$$$$$oooo$@$$$$$$$$$$$$$$$$$#@",
"#$$$$$$$oo$$$$$$$$$@$$oo$$$$$$$$@$$$##########@X@@@@XXXXXXXXX.$$$$$$$$$$oo$$@$$$$$$$$$$$$$$$$$#+",
"#$$$$$$$$$$$$$$$$$$@$$$$$$$$$$$$@#$$$X..X@#####X@@@@@XXXXXXXX.$$$$$$$$$$$$$$@$$$$$$$$$$$$$$$$$#+",
"#$$$$$$$$$$$$$$$$$$@$$oo$$$$$$$$$@$$X..X@XX@###@X@@@@@XXXXXXXX.$$$$$$$$$oo$$@$$$$$$$$$$$$$$$$$#+",
"#$$$$$$$$$$$$$$$$$$@$oooo$$$$$$$$@$$.@.X$$@X####X@@@@@@XXXXXXX.$$$$$$$$oooo$@$$$$$$$$$$$$$$$$$#+",
"#$$$$$$$$$$$$$$$$$$@$oooo$$$$$$$$@$$@#XX$#$$$####X@@@@@@XXXXXX.$$$$$$$$oooo$@$$$$$$$$$$$$$$$$$#+",
"#$$$$$$$$$$$$$$$$$$@$$oo$$$$$$$$@$$$$$$$$$$$$$###@X@@@@@XXXXXX.$$$$$$$$$oo$$@$$$$$$$$$$$$$$$$$#+",
"#$$$$$$$$$$$$$$$$$$@$$$$$$$$$$$$@$$$$$$$$$$$$$###@X@@@@@@XXXXX.$$$$$$$$$$$$$@$$$$$$$$$$$$$$$$$#+",
"#$$$$$$$$$$$$$$$$$$@$$oo$$$$$$$@$$$$$$$$$$$$$$###@@X@@@@@XXXXX.$$$$$$$$$oo$$@$$$$$$$$$$$$$$$$$#+",
"#$$$$$$$$$$$$$$$$$$@$oooo$$$$$$@$$$$$$$$$$$$$$###@@X@@@@@@XXXX.$$$$$$$$oooo$@$$$$$$$$$$$$$$$$$#+",
"#$$$$$$$$$$$$$$$$$$@$oooo$$$$$$@##$$$$$$$$$$$$###@@XX@@@@@XXXX.$$$$$$$$oooo$@$$$$$$$$$$$$$$$$$#+",
"#$$$$$$$$$$$$$$$$$$@$$oo$$$$$$$$@X#$$$$$$$$$$####@@XX@@@@@XXXX.$$$$$$$$$oo$$@$$$$$$$$$$$$$$$$$#+",
"#$$$$$$$$$$$$$$$$$$@$$$$$$$$$$$$$@#$$$$$$$$$$###@@XXXX@@@@@XXX.$$$$$$$$$$$$$@$$$$$$$$$$$$$$$$$#+",
"#$$$$$$$$$$$$$$$$$$@$$oo$$$$$$$$$@#@X@#$$$$$####@X@@XX@@@@@XXX.$$$$$$$$$oo$$@$$$$$$$$$$$$$$$$$#+",
"#$$$$$$$$$$$$$$$$$$@$oooo$$$$$$$$$@##$$$$$$####@@@@@@XX@@@@XXX.$$$$$$$$oooo$@$$$$$$$$$$$$$$$$$#+",
"#$$$$$$$$$$$$$$$$$$@$oooo$$$$$$$$$@#$$$$$$$###@@@@@@@XX@@@XXXX.$$$$$$$$oooo$@$$$$$$$$$$$$$$$$$#+",
"#$$$$$$$$$$$$$$$$$$@$$oo$$$$$$$$$$$@$$$$$$###X@@@@@@@@X@@@XXXX.$$$$$$$$$oo$$@$$$$$$$$$$$$$$$$$#+",
"#$$$$$$$$$$$$$$$$$$@$$$$$$$$$$$$$$$@$$$$$##XX@@@@@@@@@.@@XXXX.$$$$$$$$$$$$$$@$$$$$$$$$$$$$$$$$#.",
"#$$$$$$$$$$$$$$$$$$@$$oo$$$$$$$$$$$X#$$##XX@@@@@@@@@@@.@@XXXX.$$$$$$$$$$oo$$@$$$$$$$$$$$$$$$$$#+",
"#$$$$$$$$$$$$$$$$$$@$oooo$$$$$$$$$$$XXXXX.@@@@@@@@@@@@.@XXXXX.$$$$$$$$$oooo$@$$$$$$$$$$$$$$$$$#+",
"@$$$$$$$$$$$$$$$$$$@$oooo$$$$$$$$$$$$$$$$.@@##@@@@@@@@.@XXXXXX.$$$$$$$$oooo$@$$$$$$$$$$$$$$$$$#.",
"#$$$$$$$$$$$$$$$$$$@$$oo$$$$$$$$$$$$$$$$$X@####@@@@@@X.XXXXXXX.$$$$$$$$$oo$$@$$$$$$$$$$$$$$$$$#+",
"@$$$$$$$$$$$$$$$$$$@$$$$$$$$$$$$$$$$$$$$$X######@@@@@X..XXXXXXX.$$$$$$$$$$$$@$$$$$$$$$$$$$$$$$#.",
"@$$$$$$$$$$$$$$$$$$@$$oo$$$$$$$$$$$$$$$$$X######@@@@X.X.XXXXXXX.$$$$$$$$oo$$@$$$$$$$$$$$$$$$$$#.",
"#$$$$$$$$$$$$$$$$$$@$oooo$$$$$$$$$$$$$$$XX######@@X..@@X...XXXX.$$$$$$$oooo$@$$$$$$$$$$$$$$$$$#+",
"@$$$$$$$$$$$$$$$$$$@$oooo$$$$$$$$$$$$$$X@X####XXX..@X@@@X@X..XXX.$$$$$$oooo$@$$$$$$$$$$$$$$$$$#.",
"@$$$$$$$$$$$$$$$$$$@$$oo$$$$$$$$$$$$$.X@X@XXXX@@X@@@XX@@XX@....X.$$$$$$$oo$$@$$$$$$$$$$$$$$$$$#.",
"@$$$$$$$$$$$$$$$$$$@$$$$$$$$$$$$$$$...@@X@@@X@@@X@@X@X@X@@X......$$$$$$$$$$$@$$$$$$$$$$$$$$$$$#.",
"@$$$$$$$$$$$$$$$$$$@$$oo$$$$$$$$$.....X@@X@X@X@X@X@X@@XX@........$$$$$$$oo$$@$$$$$$$$$$$$$$$$$#.",
"@$$$$$$$$$$$$$$$$$$@$oooo$$$$$$........X@XX@@X@X@X@X@@X@..........$$$$$oooo$@$$$$$$$$$$$$$$$$$#.",
"@$$$$$$$$$$$$$$$$$$@$oooo$$$$$...........XX@@@X@@@X@@X.............$$$$oooo$@$$$$$$$$$$$$$$$$$#.",
"@$$$$$$$$$$$$$$$$$$@$$oo$$$$$..............X@@X@@@X.................$$$$oo$$@$$$$$$$$$$$$$$$$$#.",
"@$$$$$$$$$$$$$$$$$$@$$$$$$$$........................................$$$$$$$$@$$$$$$$$$$$$$$$$$#.",
"@$$$$$$$$$$$$$$$$$$@$$oo$$$..........................................$$$oo$$@$$$$$$$$$$$$$$$$$#.",
"@$$$$$$$$$$$$$$$$$$@$oooo$$..........................................$$oooo$@$$$$$$$$$$$$$$$$$#.",
"@$$$$$$$$$$$$$$$$$$@$oooo$...........................................$$oooo$@$$$$$$$$$$$$$$$$$#.",
"@$$$$$$$$$$$$$$$$$$@$$oo$$............................................$$oo$$@$$$$$$$$$$$$$$$$$#.",
"@$$$$$$$$$$$$$$$$$$@######............................................######@$$$$$$$$$$$$$$$$$#.",
"@$$$$$$$$$$$$$$$$$$@$$oo$$$...........................................$$oo$$@$$$$$$$$$$$$$$$$$#.",
"@$$$$$$$$$$$$$$$$$$@$oooo$$..........................................$$oooo$@$$$$$$$$$$$$$$$$$#.",
"@$$$$$$$$$$$$$$$$$$@#oooo##..........................................##oooo#@$$$$$$$$$$$$$$$$$#.",
"@$$$$$$$$$$$$$$$$$$@$$oo$$$$........................................$$$$oo$$@$$$$$$$$$$$$$$$$$#.",
"@$$$$$$$$$$$$$$$$$$@########.................X@@@X@@X..............#########@$$$$$$$$$$$$$$$$$#.",
"@$$$$$$$$$$$$$$$$$$@##oo#####.............X@@X@@@X@@@XX...........######oo##@$$$$$$$$$$$$$$$$$#.",
"@$$$$$$$$$$$$$$$$$$@#oooo#####..........@X@@X@X@X@X@@XX@X........######oooo#@$$$$$$$$$$$$$$$$$#.",
"@$$$$$$$$$$$$$$$$$$@#oooo######........@XX@@X@X@X@X@X@X@@X.....########oooo#@$$$$$$$$$$$$$$$$$#.",
"@$$$$$$$$$$$$$$$$$$@##oo#######......X@@X@X@X@@X@@@X@@@X@@...###########oo##@$$$$$$$$$$$$$$$$$#.",
"@$$$$$$$$$$$$$$$$$$@###########.X....@XX@@XX@@@X@@XXXX@X@X.#################@$$$$$$$$$$$$$$$$$#.",
"@$$$$$$$$$$$$$$$$$$@##oo#######.XXX..X@X@@@X@..XXX####X@X###############oo##@$$$$$$$$$$$$$$$$$#.",
"@$$$$$$$$$$$$$$$$$$@#oooo#######.XXXX...X@@..X@@######XX###############oooo#@$$$$$$$$$$$$$$$$$#.",
"@$$$$$$$$$$$$$$$$$$@#oooo#######.XXXXXXX.X.X@@@@######X################oooo#@$$$$$$$$$$$$$$$$$#.",
"@$$$$$$$$$$$$$$$$$$@##oo########.XXXXXXX..X@@@@@######X#################oo##@$$$$$$$$$$$$$$$$$#.",
"@$$$$$$$$$$$$$$$$$$@#############.XXXXXXX.X@@@@@@####@X#####################@$$$$$$$$$$$$$$$$$#.",
"@$$$$$$$$$$$$$$$$$$@##oo#########.XXXXXX@.@@@@@@@@##@@.#################oo##@$$$$$$$$$$$$$$$$$#.",
"@$$$$$$$$$$$$$$$$$$@#oooo#########.XXXXX@.@@@@@@@@@@@@.XXXXX###########oooo#@$$$$$$$$$$$$$$$$$#.",
"@$$$$$$$$$$$$$$$$$$@#oooo#########.XXXX@@.@@@@@@@@@@@XX##$$#X##########oooo#@$$$$$$$$$$$$$$$$$#.",
"@$$$$$$$$$$$$$$$$$$@##oo##########.XXXX@@.@@@@@@@@@XX##$$$$$@###########oo##@$$$$$$$$$$$$$$$$$#.",
"@$$$$$$$$$$$$$$$$$$@#############.XXXX@@@X@@@@@@@@X###$$$$$$@###############@$$$$$$$$$$$$$$$$$#.",
"@$$$$$$$$$$$$$$$$$$@##oo#########.XXXX@@@XX@@@@@@@###$$$$$$$#@##########oo##@$$$$$$$$$$$$$$$$$#.",
"@$$$$$$$$$$$$$$$$$$@#oooo########.XXX@@@@XX@@@@@@####$$$$$$##@#######X#oooo#@$$$$$$$$$$$$$$$$$#.",
"@$$$$$$$$$$$$$$$$$$@#oooo########.XXX@@@@@XX@@X@####$$$$$#@X@#@########oooo#@$$$$$$$$$$$$$$$$$#.",
"@$$$$$$$$$$$$$$$$$$@##oo#########.XXX@@@@@XXXX@@###$$$$$$$$$$#@#########oo##@$$$$$$$$$$$$$$$$$#.",
"@$$$$$$$$$$$$$$$$$$@#############.XXXX@@@@@XX@@####$$$$$$$$$$#X@############@$$$$$$$$$$$$$$$$$#.",
"@$$$$$$$$$$$$$$$$$$@##oo#########.XXXX@@@@@XX@@###$$$$$$$$$$$$##@#######oo##@$$$$$$$$$$$$$$$$$#.",
"@$$$$$$$$$$$$$$$$$$@#oooo########.XXXX@@@@@@X@@###$$$$$$$$$$$$$$@######oooo#@$$$$$$$$$$$$$$$$$#.",
"@$$$$$$$$$$$$$$$$$$@#oooo########.XXXXX@@@@@X@@###$$$$$$$$$$$$$$@######oooo#@$$$$$$$$$$$$$$$$$#.",
"@$$$$$$$$$$$$$$$$$$@##oo#########.XXXXX@@@@@@X@###$$$$$$$$$$$$$@########oo##X$$$$$$$$$$$$$$$$$#.",
"@$$$$$$$$$$$$$$$$$$@#############.XXXXXX@@@@@X@###$$$$$$$$$$$$$@############@$$$$$$$$$$$$$$$$$#.",
"@$$$$$$$$$$$$$$$$$$@##oo#########.XXXXXX@@@@@@X####$$$#$XX#@$$@#########oo##@$$$$$$$$$$$$$$$$$#.",
"@$$$$$$$$$$$$$$$$$$@#oooo########.XXXXXXX@@@@@@X####X@$$X.@.$$@########oooo#X$$$$$$$$$$$$$$$$$#.",
"@$$$$$$$$$$$$$$$$$$X#oooo########.XXXXXXXX@@@@@X@###@XX@X..X$$@########oooo#X$$$$$$$$$$$$$$$$$#.",
"@##################@##oo##########.XXXXXXXX@@@@@X#####@X..X$$$#@########oo##@##################.",
"@$$$$$$$$$$$$$$$$$$X##############.XXXXXXXXX@@@@X@##########$$$@############X$$$$$$$$$oo$$$$$$#.",
"@$$$$$$$$$$$$$$$$$$X##oo##########.XXXXXXXXXX@@@@X#@.@@###X@$$$#@#######oo##X$$$$$$$$oooo$$$$$#.",
"@$$$$$$$$$$$$$$$$$$X#oooo#########.XXXXXXXXXX@@@@X@##.XXXX@#$$$$@######oooo#X$$$$$$$oooooo$$$$#.",
"@##################X@oooo@@@@@@@@@@.XXXXXXXXXX@@@X@##$$$$$$$$$$$X@@@@@@oooo@X######oooooooo####.",
"@$$$$$$$$$$$$$$$$$$X##oo###########.XXXXXXXXXX@@@...@#$$$$$$$$$$.#######oo##X$$$$$oooooooooo$$#.",
"@$$$$$$$$$$$$$$$$$$X@@@@@@@@@@@@@@@@.XXXXXXXXX@@@.XX..#$$$$$$$$$.@@@@@@@@@@@X$$$$oooooooooooo$#.",
"@##################X@@oo@@@@@@@@@@@@...XXXXXXXX@@.X@@@XX#$$$$$$#..@@@@@@oo@@X###oooooooooooooo#.",
"@$$$$$$$$$$$$$$$$$$X#oooo##########..@@..XXXXXX@@X.@@@@@X#$$$$$X@.#####oooo#X$$oOOOOOOOOOOOOOOo.",
"+##################X@oooo@@@@@@@@@@..@@@@..XXXX@@X.@@@@@@XX#$$#X@.@@@@@oooo@X##oooooooooooooooo.",
"+$$$$$$$$$$$$$$$$$$X@@oo@@@@@@@@@@....@@@@@...X@@X.X@@@@@@@XX#X@XX@@@@@@oo@@X$$$oOOOOOOOOOOOOo#.",
"+##################X@@@@@@@@@@@@@@......@@@@@@..XXXXX@@@@@@@@..X@X@@@@@@@@@@X####oOOOOOOOOOOo##.",
"+##################X@@oo@@@@@@@@@.........@@@@@@@@@@@.XXXXXXXX@@@X@@@@@@oo@@X#####oOOOOOOOOo###.",
"+$$$$$$$$$$$$$$$$$$X@oooo@@@@@@@@...........@@@@@@@@@@@@@@@@@@@@@X@@@@@oooo@X$$$$$$oOOOOOOo$$$#.",
"+##################X@oooo@@@@@@@@...............@@@@@@@@@@@@@@@...@@@@@oooo@X#######oOOOOo#####.",
"+##################X@@oo@@@@@@@@..........XXXXXX...............XXX.@@@@@oo@@X########oOOo######.",
"+##################X@@@@@@@@@@@@........XXXXXXXXXXXXXXXXXXXXXXXXXX.@@@@@@@@@X#########oo#######.",
"+$$$$$$$$$$$$$$$$$$X@@@@@@@@@@@@........XXXXXXXXXXXXXXXXXXXXXXXXXX.@@@@@@@@@X$$$$$oo$$$$$$$$$$#.",
"+##################XXXXXXXXXXXXXXXXXXXXXXXXXXXXXXXXXXXXXXXXXXXXXXXXXXXXXXXXXX#####ooooooooo####.",
"+##################################################################################ooooooooo###.",
"+##################################################################################oooo##ooo###.",
"+#################################################################################oooooo##ooo##.",
"+#################################################################################oo##oo###oo##.",
"+#################################################################################oo#######oo##.",
"+#################################################################################oo#######oo##.",
"+#################################################################################oo#######oo##.",
"+##################################################################################oo#####oo###.",
"+##################################################################################ooo###ooo###.",
"+###################################################################################ooooooo####.",
"+####################################################################################ooooo#####.",
"+##############################################################################################.",
"+##############################################################################################.",
"+##############################################################################################.",
"+##############################################################################################.",
"X##############################################################################################.",
"X##############################################################################################.",
"X##############################################################################################.",
" ..XXXXXXXXXXXXXXXXXXXXXXXXXXXXXXXXXXXXXXXXXXXXXXXXXXXXXXXXXXXXXXXXXXXXXXXXXXXXXXXXXXXXXXXXX... "
};
