/* XPM */
static char *result[] = {
/* columns rows colors chars-per-pixel */
"96 144 9 1 ",
"  c #5A2314",
". c #724930",
"X c #190657",
"o c #95714B",
"O c #C08B4C",
"+ c #3F3B93",
"@ c #E4C19C",
"# c #F6DCAF",
"$ c None",
/* pixels */
"$OOOOOOOOOOOOOOOOOOOOOOOOOOOOOOOOOOOOOOOOOOOOOOOOOOOOOOOOOOOOOOOOOOOOOOOOOOOOOOOOOOOOOOOOOOOOOO$",
"O@@@@@@@@@@@@@@@@@@@@@@@@@@@@@@@@@@@@@@@@@@@@@@@@@@@@@@@@@@@@@@@@@@@@@@@@@@@@@@@@@@@@@@@@@@@@@@O",
"O############################################################################################@@O",
"O@@@@@@@@@@@@@@@@@@@@@@@@@@@@@@@@@@@@@@@@@@@@@@@@@@@@@@@@@@@@@@@@@@@@@@@@@@@@@@@@@@@@@@@@@@@@@@O",
"O#############################################################################################@O",
"O#############################################################################################@O",
"O@@@@@@@@@@@@@@@@@@@@@@@@@@@@@@@@@@@@@@@@@@@@@@@@@@@@@@@@@@@@@@@@@@@@@@@@@@@@@@@@@@@@@@@@@@@@@@O",
"O#############################################################################################@O",
"O######XXX####################################################################################@O",
"O#####XXXXX###################################################################################@O",
"O####XXX#XXX##################################################################################@O",
"O####XX###XX##################################################################################@O",
"O####XXX#XXX##################################################################################@O",
"O#####XXXXX###################################################################################@O",
"O#####XXXXX###################################################################################@O",
"O####XXX#XXX##################################################################################@O",
"O####XX###XX##################################################################################@O",
"@####XXX#XXX##################################################################################@O",
"O#####XXXXX###################################################################################@O",
"O######XXX####################################################################################@O",
"@#############################################################################################@O",
"O#######XX####################################################################################@O",
"@######X++X###################################################################################@O",
"@#####X++++X##################################################################################@O",
"@####X++++++X#################################################################################@O",
"@###X++++++++X################################################################################@O",
"@##X++++++++++X###############################################################################@O",
"@#X++++++++++++X##############################################################################@O",
"@#XXXXXXXXXXXXXX##############################################################################@o",
"@X++++++++++++++X#############################################################################@O",
"@XXXXXXXXXXXXXXXX#############################################################################@O",
"@XXXXXXXXXXXXXXXX#############################################################################@o",
"@XXXXXXXXXXXXXXXX#############################################################################@O",
"@#XXXXXXXXXXXXXX##############################################################################@o",
"@##XXX##XX##XXX###############################################################################@o",
"@######XXXX###################XX################################XX############################@O",
"@#####XXXXXX#################X++X##############################X++X###########################@o",
"@###########################X++++X############################X++++X##########################@o",
"@##########################X++++++X##########################X++++++X#########################@o",
"@#########################X++++++++X########################X++++++++X########################@o",
"@########################X++++++++++X######################X++++++++++X#######################@o",
"@#######################X++++++++++++X####################X++++++++++++X######################@o",
"@#######################XXXXXXXXXXXXXX####################XXXXXXXXXXXXXX######################@o",
"@######################X++++++++++++++X##################X++++++++++++++X#####################@o",
"@######################XXXXXXXXXXXXXXXX##################XXXXXXXXXXXXXXXX#####################@o",
"@######################XXXXXXXXXXXXXXXX##################XXXXXXXXXXXXXXXX#####################@o",
"@######################XXXXXXXXXXXXXXXX##################XXXXXXXXXXXXXXXX#####################@o",
"@#######################XXXXXXXXXXXXXX####################XXXXXXXXXXXXXX######################@o",
"@########################XXX##XX##XXX##########XX##########XXX##XX##XXX#######################@o",
"@############################XXXX#############X++X#############XXXX###########################@o",
"@###########################XXXXXX###########X++++X###########XXXXXX##########################@o",
"@###########################################X++++++X##########################################@o",
"@##########################################X++++++++X#########################################@ ",
"@#########################################X++++++++++X########################################@o",
"@########################################X++++++++++++X#######################################@o",
"O########################################XXXXXXXXXXXXXX#######################################@ ",
"@#######################################X++++++++++++++X######################################@o",
"O#######################################XXXXXXXXXXXXXXXX######################################@ ",
"O#######################################XXXXXXXXXXXXXXXX######################################@ ",
"@#######################################XXXXXXXXXXXXXXXX######################################@o",
"O########################################XXXXXXXXXXXXXX#######################################@ ",
"O#########################################XXX##XX##XXX########################################@ ",
"O#############################################XXXX############################################@ ",
"O#############################XX#############XXXXXX#############XX############################@ ",
"O############################X++X##############################X++X###########################@ ",
"O###########################X++++X############################X++++X##########################@ ",
"O##########################X++++++X##########################X++++++X#########################@ ",
"O#########################X++++++++X########################X++++++++X########################@ ",
"O########################X++++++++++X######################X++++++++++X#######################@ ",
"O#######################X++++++++++++X####################X++++++++++++X######################@ ",
"O#######################XXXXXXXXXXXXXX####################XXXXXXXXXXXXXX######################@ ",
"O######################X++++++++++++++X##################X++++++++++++++X#####################@ ",
"O######################XXXXXXXXXXXXXXXX##################XXXXXXXXXXXXXXXX#####################@ ",
"O######################XXXXXXXXXXXXXXXX##################XXXXXXXXXXXXXXXX#####################@ ",
"O######################XXXXXXXXXXXXXXXX##################XXXXXXXXXXXXXXXX#####################@ ",
"O#######################XXXXXXXXXXXXXX####################XXXXXXXXXXXXXX######################@ ",
"O########################XXX##XX##XXX######################XXX##XX##XXX#######################@ ",
"O############################XXXX##############################XXXX###########################@ ",
"O###########################XXXXXX############################XXXXXX##########################@ ",
"O############################################XXXXXX###########################################@ ",
"O#############################################XXXX############################################@ ",
"O#########################################XXX##XX##XXX########################################@ ",
"O########################################XXXXXXXXXXXXXX#######################################@ ",
"O#######################################XXXXXXXXXXXXXXXX######################################@ ",
"O#######################################XXXXXXXXXXXXXXXX######################################@ ",
"O#######################################XXXXXXXXXXXXXXXX######################################@ ",
"O#######################################X++++++++++++++X######################################@ ",
"O########################################XXXXXXXXXXXXXX#######################################@ ",
"O########################################X++++++++++++X#######################################@ ",
"O#########################################X++++++++++X########################################@ ",
"O##########################################X++++++++X#########################################@ ",
"O###########################################X++++++X##########################################@ ",
"O############################################X++++X###########################################@ ",
"O###########################XXXXXX############X++X############XXXXXX##########################@ ",
"O############################XXXX##############XX##############XXXX###########################@ ",
"O########################XXX##XX##XXX######################XXX##XX##XXX#######################@ ",
"O#######################XXXXXXXXXXXXXX####################XXXXXXXXXXXXXX######################@ ",
"O######################XXXXXXXXXXXXXXXX##################XXXXXXXXXXXXXXXX#####################@ ",
"O######################XXXXXXXXXXXXXXXX##################XXXXXXXXXXXXXXXX#####################@ ",
"O######################XXXXXXXXXXXXXXXX##################XXXXXXXXXXXXXXXX#####################@ ",
"O######################X++++++++++++++X##################X++++++++++++++X#####################@ ",
"O#######################XXXXXXXXXXXXXX####################XXXXXXXXXXXXXX######################@ ",
"O#######################X++++++++++++X####################X++++++++++++X######################@ ",
"O########################X++++++++++X######################X++++++++++X#######################@ ",
"O#########################X++++++++X########################X++++++++X########################@ ",
"O##########################X++++++X##########################X++++++X#########################@ ",
"O@@@@@@@@@@@@@@@@@@@@@@@@@@@X++++X@@@@@@@@@@@@@@@@@@@@@@@@@@@@X++++X@@@@@@@@@@@@@@@@@@@@@@@@@@@ ",
"O############################X++X##############################X++X#################XXXXXX####@ ",
"O#############################XX################################XX###################XXXX#####@ ",
"O################################################################################XXX##XX##XXX#@ ",
"O@@@@@@@@@@@@@@@@@@@@@@@@@@@@@@@@@@@@@@@@@@@@@@@@@@@@@@@@@@@@@@@@@@@@@@@@@@@@@@@XXXXXXXXXXXXXX@ ",
"O##############################################################################XXXXXXXXXXXXXXXX ",
"O##############################################################################XXXXXXXXXXXXXXXX ",
"O@@@@@@@@@@@@@@@@@@@@@@@@@@@@@@@@@@@@@@@@@@@@@@@@@@@@@@@@@@@@@@@@@@@@@@@@@@@@@@XXXXXXXXXXXXXXXX ",
"O##############################################################################X++++++++++++++X ",
"o@@@@@@@@@@@@@@@@@@@@@@@@@@@@@@@@@@@@@@@@@@@@@@@@@@@@@@@@@@@@@@@@@@@@@@@@@@@@@@@XXXXXXXXXXXXXX@ ",
"o###############################################################################X++++++++++++X@ ",
"o@@@@@@@@@@@@@@@@@@@@@@@@@@@@@@@@@@@@@@@@@@@@@@@@@@@@@@@@@@@@@@@@@@@@@@@@@@@@@@@@X++++++++++X@@ ",
"o@@@@@@@@@@@@@@@@@@@@@@@@@@@@@@@@@@@@@@@@@@@@@@@@@@@@@@@@@@@@@@@@@@@@@@@@@@@@@@@@@X++++++++X@@@ ",
"o##################################################################################X++++++X###@ ",
"o@@@@@@@@@@@@@@@@@@@@@@@@@@@@@@@@@@@@@@@@@@@@@@@@@@@@@@@@@@@@@@@@@@@@@@@@@@@@@@@@@@@X++++X@@@@@ ",
"o@@@@@@@@@@@@@@@@@@@@@@@@@@@@@@@@@@@@@@@@@@@@@@@@@@@@@@@@@@@@@@@@@@@@@@@@@@@@@@@@@@@@X++X@@@@@@ ",
"o@@@@@@@@@@@@@@@@@@@@@@@@@@@@@@@@@@@@@@@@@@@@@@@@@@@@@@@@@@@@@@@@@@@@@@@@@@@@@@@@@@@@@XX@@@@@@@ ",
"o#############################################################################################@ ",
"o@@@@@@@@@@@@@@@@@@@@@@@@@@@@@@@@@@@@@@@@@@@@@@@@@@@@@@@@@@@@@@@@@@@@@@@@@@@@@@@@@@@@@XXX@@@@@@ ",
"o@@@@@@@@@@@@@@@@@@@@@@@@@@@@@@@@@@@@@@@@@@@@@@@@@@@@@@@@@@@@@@@@@@@@@@@@@@@@@@@@@@@@XXXXX@@@@@ ",
"o@@@@@@@@@@@@@@@@@@@@@@@@@@@@@@@@@@@@@@@@@@@@@@@@@@@@@@@@@@@@@@@@@@@@@@@@@@@@@@@@@@@XXX@XXX@@@@ ",
"o@@@@@@@@@@@@@@@@@@@@@@@@@@@@@@@@@@@@@@@@@@@@@@@@@@@@@@@@@@@@@@@@@@@@@@@@@@@@@@@@@@@XX@@@XX@@@@ ",
"o@@@@@@@@@@@@@@@@@@@@@@@@@@@@@@@@@@@@@@@@@@@@@@@@@@@@@@@@@@@@@@@@@@@@@@@@@@@@@@@@@@@XXX@XXX@@@@ ",
"o@@@@@@@@@@@@@@@@@@@@@@@@@@@@@@@@@@@@@@@@@@@@@@@@@@@@@@@@@@@@@@@@@@@@@@@@@@@@@@@@@@@@XXXXX@@@@@ ",
"o@@@@@@@@@@@@@@@@@@@@@@@@@@@@@@@@@@@@@@@@@@@@@@@@@@@@@@@@@@@@@@@@@@@@@@@@@@@@@@@@@@@@XXXXX@@@@@ ",
"o@@@@@@@@@@@@@@@@@@@@@@@@@@@@@@@@@@@@@@@@@@@@@@@@@@@@@@@@@@@@@@@@@@@@@@@@@@@@@@@@@@@XXX@XXX@@@@ ",
"o@@@@@@@@@@@@@@@@@@@@@@@@@@@@@@@@@@@@@@@@@@@@@@@@@@@@@@@@@@@@@@@@@@@@@@@@@@@@@@@@@@@XX@@@XX@@@@ ",
"o@@@@@@@@@@@@@@@@@@@@@@@@@@@@@@@@@@@@@@@@@@@@@@@@@@@@@@@@@@@@@@@@@@@@@@@@@@@@@@@@@@@XXX@XXX@@@@ ",
"o@@@@@@@@@@@@@@@@@@@@@@@@@@@@@@@@@@@@@@@@@@@@@@@@@@@@@@@@@@@@@@@@@@@@@@@@@@@@@@@@@@@@XXXXX@@@@@ ",
"o@@@@@@@@@@@@@@@@@@@@@@@@@@@@@@@@@@@@@@@@@@@@@@@@@@@@@@@@@@@@@@@@@@@@@@@@@@@@@@@@@@@@@XXX@@@@@@ ",
"o@@@@@@@@@@@@@@@@@@@@@@@@@@@@@@@@@@@@@@@@@@@@@@@@@@@@@@@@@@@@@@@@@@@@@@@@@@@@@@@@@@@@@@@@@@@@@@ ",
"o@@@@@@@@@@@@@@@@@@@@@@@@@@@@@@@@@@@@@@@@@@@@@@@@@@@@@@@@@@@@@@@@@@@@@@@@@@@@@@@@@@@@@@@@@@@@@@ ",
"o@@@@@@@@@@@@@@@@@@@@@@@@@@@@@@@@@@@@@@@@@@@@@@@@@@@@@@@@@@@@@@@@@@@@@@@@@@@@@@@@@@@@@@@@@@@@@@ ",
"o@@@@@@@@@@@@@@@@@@@@@@@@@@@@@@@@@@@@@@@@@@@@@@@@@@@@@@@@@@@@@@@@@@@@@@@@@@@@@@@@@@@@@@@@@@@@@@ ",
".@@@@@@@@@@@@@@@@@@@@@@@@@@@@@@@@@@@@@@@@@@@@@@@@@@@@@@@@@@@@@@@@@@@@@@@@@@@@@@@@@@@@@@@@@@@@@@ ",
".@@@@@@@@@@@@@@@@@@@@@@@@@@@@@@@@@@@@@@@@@@@@@@@@@@@@@@@@@@@@@@@@@@@@@@@@@@@@@@@@@@@@@@@@@@@@@@ ",
".@@@@@@@@@@@@@@@@@@@@@@@@@@@@@@@@@@@@@@@@@@@@@@@@@@@@@@@@@@@@@@@@@@@@@@@@@@@@@@@@@@@@@@@@@@@@@@ ",
"$  .........................................................................................   $"
};
