/* XPM */
static char *result[] = {
/* c lumns r ws c l rs chars-per-pixel */
"96 144 4 1 ",
"  c #006400",
"X c #190657",
"O c #C08B4C",
"+ c #3F3B93",
/* pixels */
" OOOOOOOOOOOOOOOOOOOOOOOOOOOOOOOOOOOOOOOOOOOOOOOOOOOOOOOOOOOOOOOOOOOOOOOOOOOOOOOOOOOOOOOOOOOOOO ",
"OOOOOOOOOOOOOOOOOOOOOOOOOOOOOOOOOOOOOOOOOOOOOOOOOOOOOOOOOOOOOOOOOOOOOOOOOOOOOOOOOOOOOOOOOOOOOOOO",
"OO                                                                                            OO",
"OO                                                                                            OO",
"OO                                                                                            OO",
"OO                                                                                            OO",
"OO                                                                                            OO",
"OO                                                                                            OO",
"OO                                                                                            OO",
"OO                                                                                            OO",
"OO                                                                                            OO",
"OO                                                                                            OO",
"OO                                                                                            OO",
"OO                                                                                            OO",
"OO                                                                                            OO",
"OO                                                                                            OO",
"OO                                                                                            OO",
"OO                                                                                            OO",
"OO                                                                                            OO",
"OO                                                                                            OO",
"OO                                                                                            OO",
"OO                                                                                            OO",
"OO                                                                                            OO",
"OO                                                                                            OO",
"OO                                                                                            OO",
"OO                                                                                            OO",
"OO                                                                                            OO",
"OO                                                                                            OO",
"OO                                                                                            OO",
"OO                                                                                            OO",
"OO                                                                                            OO",
"OO                                                                                            OO",
"OO                                                                                            OO",
"OO                                                                                            OO",
"OO                                                                                            OO",
"OO                                                                                            OO",
"OO                                                                                            OO",
"OO                                                                                            OO",
"OO                                                                                            OO",
"OO                                                                                            OO",
"OO                                                                                            OO",
"OO                                                                                            OO",
"OO                                                                                            OO",
"OO                                                                                            OO",
"OO                                                                                            OO",
"OO                                                                                            OO",
"OO                                                                                            OO",
"OO                                                                                            OO",
"OO                                                                                            OO",
"OO                                                                                            OO",
"OO                                                                                            OO",
"OO                                                                                            OO",
"OO                                                                                            OO",
"OO                                          XX                                                OO",
"OO                                         X++X                                               OO",
"OO                                        X++++X                                              OO",
"OO                                       X++++++X                                             OO",
"OO                                      X++++++++X                                            OO",
"OO                                     X++++++++++X                                           OO",
"OO                                    X++++++++++++X                                          OO",
"OO                                   X++++++++++++++X                                         OO",
"OO                                  X++++++++++++++++X                                        OO",
"OO                                 X++++++++++++++++++X                                       OO",
"OO                                X++++++++++++++++++++X                                      OO",
"OO                               X++++++++++++++++++++++X                                     OO",
"OO                              XXXXXXXXXXXXXXXXXXXXXXXXXX                                    OO",
"OO                             X++++++++++++++++++++++++++X                                   OO",
"OO                            XXXXXXXXXXXXXXXXXXXXXXXXXXXXXX                                  OO",
"OO                            XXXXXXXXXXXXXXXXXXXXXXXXXXXXXX                                  OO",
"OO                           X++++++++++++++++++++++++++++++X                                 OO",
"OO                           XXXXXXXXXXXXXXXXXXXXXXXXXXXXXXXX                                 OO",
"OO                           XXXXXXXXXXXXXXXXXXXXXXXXXXXXXXXX                                 OO",
"OO                           XXXXXXXXXXXXXXXXXXXXXXXXXXXXXXXX                                 OO",
"OO                           XXXXXXXXXXXXXXXXXXXXXXXXXXXXXXXX                                 OO",
"OO                           XXXXXXXXXXXXXXXXXXXXXXXXXXXXXXXX                                 OO",
"OO                           XXXXXXXXXXXXXXXXXXXXXXXXXXXXXXXX                                 OO",
"OO                            XXXXXXXXXXXXXXXXXXXXXXXXXXXXXX                                  OO",
"OO                            XXXXXXXXXXXXXXXXXXXXXXXXXXXXXX                                  OO",
"OO                             XXXXXXXXXX  XXXX  XXXXXXXXXX                                   OO",
"OO                               XXXXXX   XXXXXX   XXXXXX                                     OO",
"OO                                       XXXXXXXX                                             OO",
"OO                                      XXXXXXXXXX                                            OO",
"OO                                     XXXXXXXXXXXX                                           OO",
"OO                                    XXXXXXXXXXXXXX                                          OO",
"OO                                    XXXXXXXXXXXXXX                                          OO",
"OO                                                                                            OO",
"OO                                                                                            OO",
"OO                                                                                            OO",
"OO                                                                                            OO",
"OO                                                                                            OO",
"OO                                                                                            OO",
"OO                                                                                            OO",
"OO                                                                                            OO",
"OO                                                                                            OO",
"OO                                                                                            OO",
"OO                                                                                            OO",
"OO                                                                                            OO",
"OO                                                                                            OO",
"OO                                                                                            OO",
"OO                                                                                            OO",
"OO                                                                                            OO",
"OO                                                                                            OO",
"OO                                                                                            OO",
"OO                                                                                            OO",
"OO                                                                                            OO",
"OO                                                                                            OO",
"OO                                                                                            OO",
"OO                                                                                            OO",
"OO                                                                                            OO",
"OO                                                                                            OO",
"OO                                                                                            OO",
"OO                                                                                            OO",
"OO                                                                                            OO",
"OO                                                                                            OO",
"OO                                                                                            OO",
"OO                                                                                            OO",
"OO                                                                                            OO",
"OO                                                                                            OO",
"OO                                                                                            OO",
"OO                                                                                            OO",
"OO                                                                                            OO",
"OO                                                                                            OO",
"OO                                                                                            OO",
"OO                                                                                            OO",
"OO                                                                                            OO",
"OO                                                                                            OO",
"OO                                                                                            OO",
"OO                                                                                            OO",
"OO                                                                                            OO",
"OO                                                                                            OO",
"OO                                                                                            OO",
"OO                                                                                            OO",
"OO                                                                                            OO",
"OO                                                                                            OO",
"OO                                                                                            OO",
"OO                                                                                            OO",
"OO                                                                                            OO",
"OO                                                                                            OO",
"OO                                                                                            OO",
"OO                                                                                            OO",
"OO                                                                                            OO",
"OO                                                                                            OO",
"OOOOOOOOOOOOOOOOOOOOOOOOOOOOOOOOOOOOOOOOOOOOOOOOOOOOOOOOOOOOOOOOOOOOOOOOOOOOOOOOOOOOOOOOOOOOOOOO",
" OOOOOOOOOOOOOOOOOOOOOOOOOOOOOOOOOOOOOOOOOOOOOOOOOOOOOOOOOOOOOOOOOOOOOOOOOOOOOOOOOOOOOOOOOOOOOO "
};
