/* XPM */
static char *result[] = {
/* columns rows colors chars-per-pixel */
"96 144 4 1 ",
"  c #006400",
"X c #BF1929",
"o c #E43B00",
"+ c #C08B4C",
/* pixels */
" ++++++++++++++++++++++++++++++++++++++++++++++++++++++++++++++++++++++++++++++++++++++++++++++ ",
"++++++++++++++++++++++++++++++++++++++++++++++++++++++++++++++++++++++++++++++++++++++++++++++++",
"++                                                                                            ++",
"++                                                                                            ++",
"++                                                                                            ++",
"++                                                                                            ++",
"++                                                                                            ++",
"++                                                                                            ++",
"++                                                                                            ++",
"++                                                                                            ++",
"++                                                                                            ++",
"++                                                                                            ++",
"++                                                                                            ++",
"++                                                                                            ++",
"++                                                                                            ++",
"++                                                                                            ++",
"++                                                                                            ++",
"++                                                                                            ++",
"++                                                                                            ++",
"++                                                                                            ++",
"++                                                                                            ++",
"++                                                                                            ++",
"++                                                                                            ++",
"++                                                                                            ++",
"++                                                                                            ++",
"++                                                                                            ++",
"++                                                                                            ++",
"++                                                                                            ++",
"++                                                                                            ++",
"++                                                                                            ++",
"++                                                                                            ++",
"++                                                                                            ++",
"++                                                                                            ++",
"++                                                                                            ++",
"++                                                                                            ++",
"++                                                                                            ++",
"++                                                                                            ++",
"++                                                                                            ++",
"++                                                                                            ++",
"++                                                                                            ++",
"++                                                                                            ++",
"++                                                                                            ++",
"++                                                                                            ++",
"++                                                                                            ++",
"++                                                                                            ++",
"++                                                                                            ++",
"++                                                                                            ++",
"++                                                                                            ++",
"++                                                                                            ++",
"++                                                                                            ++",
"++                                                                                            ++",
"++                                                                                            ++",
"++                                                                                            ++",
"++                                                                                            ++",
"++                                                                                            ++",
"++                                 XXXXX          XXXXX                                       ++",
"++                               XXoooooXX      XXoooooXX                                     ++",
"++                             XXoooooooooXX  XXoooooooooXX                                   ++",
"++                             XooooooooooooXXooooooooooooX                                   ++",
"++                            XooooooooooooooooooooooooooooX                                  ++",
"++                            XooooooooooooooooooooooooooooX                                  ++",
"++                           XooooooooooooooooooooooooooooooX                                 ++",
"++                           XooooooooooooooooooooooooooooooX                                 ++",
"++                           XooooooooooooooooooooooooooooooX                                 ++",
"++                           XooooooooooooooooooooooooooooooX                                 ++",
"++                           XooooooooooooooooooooooooooooooX                                 ++",
"++                           XooooooooooooooooooooooooooooooX                                 ++",
"++                           XXXXXXXXXXXXXXXXXXXXXXXXXXXXXXXX                                 ++",
"++                           XooooooooooooooooooooooooooooooX                                 ++",
"++                            XXXXXXXXXXXXXXXXXXXXXXXXXXXXXX                                  ++",
"++                            XXXXXXXXXXXXXXXXXXXXXXXXXXXXXX                                  ++",
"++                            XooooooooooooooooooooooooooooX                                  ++",
"++                             XXXXXXXXXXXXXXXXXXXXXXXXXXXX                                   ++",
"++                             XXXXXXXXXXXXXXXXXXXXXXXXXXXX                                   ++",
"++                              XXXXXXXXXXXXXXXXXXXXXXXXXX                                    ++",
"++                              XXXXXXXXXXXXXXXXXXXXXXXXXX                                    ++",
"++                               XXXXXXXXXXXXXXXXXXXXXXXX                                     ++",
"++                                XXXXXXXXXXXXXXXXXXXXXX                                      ++",
"++                                 XXXXXXXXXXXXXXXXXXXX                                       ++",
"++                                  XXXXXXXXXXXXXXXXXX                                        ++",
"++                                   XXXXXXXXXXXXXXXX                                         ++",
"++                                    XXXXXXXXXXXXXX                                          ++",
"++                                     XXXXXXXXXXXX                                           ++",
"++                                      XXXXXXXXXX                                            ++",
"++                                       XXXXXXXX                                             ++",
"++                                        XXXXXX                                              ++",
"++                                          XX                                                ++",
"++                                                                                            ++",
"++                                                                                            ++",
"++                                                                                            ++",
"++                                                                                            ++",
"++                                                                                            ++",
"++                                                                                            ++",
"++                                                                                            ++",
"++                                                                                            ++",
"++                                                                                            ++",
"++                                                                                            ++",
"++                                                                                            ++",
"++                                                                                            ++",
"++                                                                                            ++",
"++                                                                                            ++",
"++                                                                                            ++",
"++                                                                                            ++",
"++                                                                                            ++",
"++                                                                                            ++",
"++                                                                                            ++",
"++                                                                                            ++",
"++                                                                                            ++",
"++                                                                                            ++",
"++                                                                                            ++",
"++                                                                                            ++",
"++                                                                                            ++",
"++                                                                                            ++",
"++                                                                                            ++",
"++                                                                                            ++",
"++                                                                                            ++",
"++                                                                                            ++",
"++                                                                                            ++",
"++                                                                                            ++",
"++                                                                                            ++",
"++                                                                                            ++",
"++                                                                                            ++",
"++                                                                                            ++",
"++                                                                                            ++",
"++                                                                                            ++",
"++                                                                                            ++",
"++                                                                                            ++",
"++                                                                                            ++",
"++                                                                                            ++",
"++                                                                                            ++",
"++                                                                                            ++",
"++                                                                                            ++",
"++                                                                                            ++",
"++                                                                                            ++",
"++                                                                                            ++",
"++                                                                                            ++",
"++                                                                                            ++",
"++                                                                                            ++",
"++                                                                                            ++",
"++                                                                                            ++",
"++                                                                                            ++",
"++                                                                                            ++",
"++++++++++++++++++++++++++++++++++++++++++++++++++++++++++++++++++++++++++++++++++++++++++++++++",
" ++++++++++++++++++++++++++++++++++++++++++++++++++++++++++++++++++++++++++++++++++++++++++++++ "
};
