/* XPM */
static char *result[] = {
/* columns rows colors chars-per-pixel */
"96 144 9 1 ",
"  c #5A2314",
". c #724930",
"X c #190657",
"o c #95714B",
"O c #C08B4C",
"+ c #3F3B93",
"@ c #E4C19C",
"# c #F6DCAF",
"$ c None",
/* pixels */
"$OOOOOOOOOOOOOOOOOOOOOOOOOOOOOOOOOOOOOOOOOOOOOOOOOOOOOOOOOOOOOOOOOOOOOOOOOOOOOOOOOOOOOOOOOOOOOO$",
"O@@@@@@@@@@@@@@@@@@@@@@@@@@@@@@@@@@@@@@@@@@@@@@@@@@@@@@@@@@@@@@@@@@@@@@@@@@@@@@@@@@@@@@@@@@@@@@O",
"O############################################################################################@@O",
"O@@@@@@@@@@@@@@@@@@@@@@@@@@@@@@@@@@@@@@@@@@@@@@@@@@@@@@@@@@@@@@@@@@@@@@@@@@@@@@@@@@@@@@@@@@@@@@O",
"O#############################################################################################@O",
"O#############################################################################################@O",
"O@@@@@@@@@@@@@@@@@@@@@@@@@@@@@@@@@@@@@@@@@@@@@@@@@@@@@@@@@@@@@@@@@@@@@@@@@@@@@@@@@@@@@@@@@@@@@@O",
"O#############################################################################################@O",
"O###XX####XX##################################################################################@O",
"O###XX####XX##################################################################################@O",
"O###XX###XXX##################################################################################@O",
"O###XX##XXX###################################################################################@O",
"O###XX#XXX####################################################################################@O",
"O###XXXXX#####################################################################################@O",
"O###XXXXX#####################################################################################@O",
"O###XX#XXX####################################################################################@O",
"O###XX##XXX###################################################################################@O",
"@###XX###XXX##################################################################################@O",
"O###XX####XX##################################################################################@O",
"O###XX####XX#######OOOOOOOOOOOOOOOOOOOOOOOOOOOOOOOOOOOOOOOOOOOOOOOOOOOOOOOOOO#################@O",
"@##################O#### ...........................           #############O#################@O",
"O#######XX#########O#### ...........................           #############O#################@O",
"@######X++X########O#### ..........................            #############O#################@O",
"@#####X++++X#######O##++ ......              .....             ########++++#O#################@O",
"@####X++++++X######O#++++....  .OOOOOOOOOOOO.                  #########++##O#################@O",
"@###X++++++++X#####O##++ ... .OOOOOOOOOOOOOOOOO.               ########++++#O#################@O",
"@##X++++++++++X####O#++++ . OOOOOOOOOOOOOOOOOOOOO.             #########++##O#################@O",
"@#X++++++++++++X###O#####  OOO              .OOOO...           #############O#################@O",
"@#XXXXXXXXXXXXXX###O##++## OO .OOOOO....  ..   .......        #########++++#O#################@o",
"@X++++++++++++++X##O#++++##  O.OOOOOOO... .OO..  ......       ##########++##O#################@O",
"@XXXXXXXXXXXXXXXX##O##++###.O@@.OOOOOOOO.. OOO...  .....     ##########++++#O#################@O",
"@XXXXXXXXXXXXXXXX##O#++++##.@@@@..OOOOOOO. .OOO....  ....    ###########++##O#################@o",
"@XXXXXXXXXXXXXXXX##O#######.##@@@O....OOO.. OOOO..... ....  ################O#################@O",
"@#XXXXXXXXXXXXXX###O##++###.####@@@@@O..  . OOOO...... ... ############++++#O#################@o",
"@##XXX##XX##XXX####O#++++##.@####@@@@@@@@O  OOOOO......    #############++##O#################@o",
"@######XXXX########O##++#### ######@O  ..@@O.OOOO......... ############++++#O#################@O",
"@#####XXXXXX#######O#++++### @####O  .OOO.@@.OOOOO........ #############++##O#################@o",
"@##################O#########.###. .    OOO@O.OOOO......... ################O#################@o",
"@##################O##++######.@.   ..O. OO@@.OOOO......... ###########++++#O#################@o",
"@##################O#++++#####O@@ ...OOO. @@@O.OOOO......... ###########++##O#################@o",
"@##################O##++######O##O@..@@..O@@@@.OOOO......... ##########++++#O#################@o",
"@##################O#++++####O@##########@@@@@O.OOOO......... ##########++##O#################@o",
"@##################O#########O############@@@@O.OOOO......... ##############O#################@o",
"@##################O##++####O#############@@@OOO OOOO........ #########++++#O#################@o",
"@##################O#++++##O###############@@OOO .OOO......... #########++##O#################@o",
"@##################O##++###O###############@@O    OOOO........ ########++++#O#################@o",
"@##################O#++++###.O@############@O ..  .OOO........ #########++##O#################@o",
"@##################O##########O############@O...   OOO........ #############O#################@o",
"@##################O##++######.@###########@ ..... OOOO....... ########++++#O#################@o",
"@##################O#++++##### O..O########O...... .OOO........ ########++##O#################@o",
"@##################O##++#######.O@@O@#####@ ....... OOOO....... #######++++#O#################@o",
"@##################O#++++######.OO@@#####@...... .. .OOO........ #######++##O#################@o",
"@##################O############.O######O......   .. OOO........ ###########O#################@ ",
"@##################O##++########.####@O....... ... . .OOO........ #####++++#O#################@o",
"@##################O#++++######..@#@O.......  OO...   ..O........ ######++##O#################@o",
"O##################O##++####### ..........  .OOOO..... ..O....... #####++++#O#################@ ",
"@##################O#++++####### ..... .  .OOOOOO...... ..OO...... #####++##O#################@o",
"O##################O#############       .O@#@OOOO......    .OO.... #########O#################@ ",
"O##################O##++############### O@##@@OOOO.....      ..... ####++++#O#################@ ",
"@##################O#++++############### @###@@OOO....         ... #####++##O#################@o",
"O##################O##++################ O@##@@OOO....           . ####++++#O#################@ ",
"O##################O#++++############   ...O@@@OO..                #####++##O#################@ ",
"O##################O##############     ..OO..OO.   .               #########O#################@ ",
"O##################O##++########       .OOOOO.  ...                 ###++++#O#################@ ",
"O##################O#++++#####           .OOOOOOO.                   ###++##O#################@ ",
"O##################O##++#####              .OOOO.                     #++++#O#################@ ",
"O##################O#++++###                 ..                       ##++##O#################@ ",
"O##################O#######                                            #####O#################@ ",
"O##################O##++##                                             ++++#O#################@ ",
"O##################O#++++#                                              ++##O#################@ ",
"O##################O##++#                                              ++++#O#################@ ",
"O##################O#++++                                               ++##O#################@ ",
"O##################O@@@@@                                               @@@@O#################@ ",
"O##################O##++#                                              ++++#O#################@ ",
"O##################O#++++                                              #++##O#################@ ",
"O##################O@@++@@                                             ++++@O#################@ ",
"O##################O#++++#                                            ##++##O#################@ ",
"O##################O@@@@@@@                       ..                 @@@@@@@O#################@ ",
"O##################O@@++@@@                     .OOOO.              @@@++++@O#################@ ",
"O##################O@++++@@@                   .OOOOOOO.           @@@@@++@@O#################@ ",
"O##################O@@++@@@@@                 ...  .OOOOO.       @@@@@@++++@O#################@ ",
"O##################O@++++@@@@@               .   .OO..OO..     @@@@@@@@@++@@O#################@ ",
"O##################O@@@@@@@@@@                ..OO@@@O...   @@@@@@@@@@@@@@@@O#################@ ",
"O##################O@@++@@@@@@ .           ....OOO@@##@O @@@@@@@@@@@@@@++++@O#################@ ",
"O##################O@++++@@@@@ ...         ....OOO@@###@ @@@@@@@@@@@@@@@++@@O#################@ ",
"O##################O@@++@@@@@@ .....      .....OOOO@@##@O @@@@@@@@@@@@@++++@O#################@ ",
"O##################O@++++@@@@@ ....OO.    ......OOOO@#@O.       @@@@@@@@++@@O#################@ ",
"O##################O@@@@@@@@@@ ......OO.. ......OOOOOO.  . ..... @@@@@@@@@@@O#################@ ",
"O##################O@@++@@@@@@@ .......O.. .....OOOO.  .......... @@@@@++++@O#################@ ",
"O##################O@++++@@@@@@ ........O..   ...OO  .......O@#@..@@@@@@++@@O#################@ ",
"O##################O@@++@@@@@@@ ........OOO. . ... .......O@####.@@@@@@++++@O#################@ ",
"O##################O@++++@@@@@@@ ........OOO ..   ......O######O.@@@@@@@++@@O#################@ ",
"O##################O@@@@@@@@@@@@ ........OOO. .. ......@#####@@OO.@@@@@@@@@@O#################@ ",
"O##################O@@++@@@@@@@@@ .......OOOO ....... @#####@O@@O.@@@@@++++@O#################@ ",
"O##################O@++++@@@@@@@@ ........OOO. ......O########O..O @@@@@++@@O#################@ ",
"O##################O@@++@@@@@@@@@@ .......OOOO ..... @###########@.@@@@++++@O#################@ ",
"O##################O@++++@@@@@@@@@ ........OOO   ...O@############O@@@@@++@@O#################@ ",
"O##################O@@@@@@@@@@@@@@ ........OOO.  .. O@############@O.@@@@@@@O#################@ ",
"O##################O@@++@@@@@@@@@@ ........OOOO    O@@###############O@++++@O#################@ ",
"O##################O@++++@@@@@@@@@ .........OOO. OOO@@###############O@@++@@O#################@ ",
"O##################O@@++@@@@@@@@@@@ ........OOOO OOO@@@#############O@@++++@O#################@ ",
"O##################O@++++@@@@@@@@@@ .........OOOO.O@@@@############O@@@@++@@.#################@ ",
"O##################O@@@@@@@@@@@@@@@ .........OOOO.O@@@@@##########@O@@@@@@@@O#################@ ",
"O##################O@@++@@@@@@@@@@@@ .........OOOO.@@@@O..@@..@O##O@@@@++++@O#################@ ",
"O##################O@++++@@@@@@@@@@@ .........OOOO.O@@@ .OOO... @@O@@@@@++@@.#################@ ",
"O##################.@@++@@@@@@@@@@@@@ .........OOOO.@@OO .O..   .@.@@@@++++@.#################@ ",
"O@@@@@@@@@@@@@@@@@@O@++++@@@@@@@@@@@@ .........OOOO.O@OOO    . .###.@@@@++@@O@@@@@@@@@@@@@@@@@@ ",
"O##################.@@@@@@@@@@@@@@@@@@ ........OOOOO.@@.OOO.  O####@ @@@@@@@.#######XXXXXX####@ ",
"O##################.@@++@@@@@@@@@@@@@@ .........OOOO.O@@..  O@###### @@++++@.########XXXX#####@ ",
"O##################.@++++@@@@@@@@@@@@@    ......OOOOO  O@@@@@@@@####@.@@++@@.####XXX##XX##XXX#@ ",
"O@@@@@@@@@@@@@@@@@@.OO++OOOOOOOOOOOOOO ... ......OOOO .  ..O@@@@@####.O++++O.@@@XXXXXXXXXXXXXX@ ",
"O##################.@++++@@@@@@@@@@@@  .... .....OOOO ..OOO....O@@@##.@@++@@.##XXXXXXXXXXXXXXXX ",
"O##################.OOOOOOOOOOOOOOOO    ....  ....OOO. .OOOOOOO..@@@@.OOOOOO.##XXXXXXXXXXXXXXXX ",
"O@@@@@@@@@@@@@@@@@@.OO++OOOOOOOOOOOO     .....  ...OOO ..OOOOOOOO.@@O.O++++O.@@XXXXXXXXXXXXXXXX ",
"O##################.@++++@@@@@@@@@@       ......  ..OO. ...OOOOOOO.O  @@++@@.##X++++++++++++++X ",
"o@@@@@@@@@@@@@@@@@@.OO++OOOOOOOOOOO        .......   ..  ....OOOOO. OO ++++O.@@@XXXXXXXXXXXXXX@ ",
"o##################.O++++OOOOOOOOO           ...OOOO.              OOO  ++OO.###X++++++++++++X@ ",
"o@@@@@@@@@@@@@@@@@@.OOOOOOOOOOOOOO             .OOOOOOOOOOOOOOOOOOOOO . OOOO.@@@@X++++++++++X@@ ",
"o@@@@@@@@@@@@@@@@@@.OO++OOOOOOOOOO               .OOOOOOOOOOOOOOOOO. ..++++O.@@@@@X++++++++X@@@ ",
"o##################.O++++OOOOOOOOO                  .OOOOOOOOOOOO.  ....++OO.######X++++++X###@ ",
"o@@@@@@@@@@@@@@@@@@.OO++OOOOOOOOOO             .....              .....++++O.@@@@@@@X++++X@@@@@ ",
"o@@@@@@@@@@@@@@@@@@.O++++OOOOOOOOO            ..........................++OO.@@@@@@@@X++X@@@@@@ ",
"o@@@@@@@@@@@@@@@@@@.OOOOOOOOOOOOOO           ........................... OOO.@@@@@@@@@XX@@@@@@@ ",
"o##################.OOOOOOOOOOOOOO           ........................... OOO.#################@ ",
"o@@@@@@@@@@@@@@@@@@..........................................................@@@@@@@XX@@@@XX@@@ ",
"o@@@@@@@@@@@@@@@@@@@@@@@@@@@@@@@@@@@@@@@@@@@@@@@@@@@@@@@@@@@@@@@@@@@@@@@@@@@@@@@@@@@XX@@@@XX@@@ ",
"o@@@@@@@@@@@@@@@@@@@@@@@@@@@@@@@@@@@@@@@@@@@@@@@@@@@@@@@@@@@@@@@@@@@@@@@@@@@@@@@@@@@XXX@@@XX@@@ ",
"o@@@@@@@@@@@@@@@@@@@@@@@@@@@@@@@@@@@@@@@@@@@@@@@@@@@@@@@@@@@@@@@@@@@@@@@@@@@@@@@@@@@@XXX@@XX@@@ ",
"o@@@@@@@@@@@@@@@@@@@@@@@@@@@@@@@@@@@@@@@@@@@@@@@@@@@@@@@@@@@@@@@@@@@@@@@@@@@@@@@@@@@@@XXX@XX@@@ ",
"o@@@@@@@@@@@@@@@@@@@@@@@@@@@@@@@@@@@@@@@@@@@@@@@@@@@@@@@@@@@@@@@@@@@@@@@@@@@@@@@@@@@@@@XXXXX@@@ ",
"o@@@@@@@@@@@@@@@@@@@@@@@@@@@@@@@@@@@@@@@@@@@@@@@@@@@@@@@@@@@@@@@@@@@@@@@@@@@@@@@@@@@@@@XXXXX@@@ ",
"o@@@@@@@@@@@@@@@@@@@@@@@@@@@@@@@@@@@@@@@@@@@@@@@@@@@@@@@@@@@@@@@@@@@@@@@@@@@@@@@@@@@@@XXX@XX@@@ ",
"o@@@@@@@@@@@@@@@@@@@@@@@@@@@@@@@@@@@@@@@@@@@@@@@@@@@@@@@@@@@@@@@@@@@@@@@@@@@@@@@@@@@@XXX@@XX@@@ ",
"o@@@@@@@@@@@@@@@@@@@@@@@@@@@@@@@@@@@@@@@@@@@@@@@@@@@@@@@@@@@@@@@@@@@@@@@@@@@@@@@@@@@XXX@@@XX@@@ ",
"o@@@@@@@@@@@@@@@@@@@@@@@@@@@@@@@@@@@@@@@@@@@@@@@@@@@@@@@@@@@@@@@@@@@@@@@@@@@@@@@@@@@XX@@@@XX@@@ ",
"o@@@@@@@@@@@@@@@@@@@@@@@@@@@@@@@@@@@@@@@@@@@@@@@@@@@@@@@@@@@@@@@@@@@@@@@@@@@@@@@@@@@XX@@@@XX@@@ ",
"o@@@@@@@@@@@@@@@@@@@@@@@@@@@@@@@@@@@@@@@@@@@@@@@@@@@@@@@@@@@@@@@@@@@@@@@@@@@@@@@@@@@@@@@@@@@@@@ ",
"o@@@@@@@@@@@@@@@@@@@@@@@@@@@@@@@@@@@@@@@@@@@@@@@@@@@@@@@@@@@@@@@@@@@@@@@@@@@@@@@@@@@@@@@@@@@@@@ ",
"o@@@@@@@@@@@@@@@@@@@@@@@@@@@@@@@@@@@@@@@@@@@@@@@@@@@@@@@@@@@@@@@@@@@@@@@@@@@@@@@@@@@@@@@@@@@@@@ ",
"o@@@@@@@@@@@@@@@@@@@@@@@@@@@@@@@@@@@@@@@@@@@@@@@@@@@@@@@@@@@@@@@@@@@@@@@@@@@@@@@@@@@@@@@@@@@@@@ ",
".@@@@@@@@@@@@@@@@@@@@@@@@@@@@@@@@@@@@@@@@@@@@@@@@@@@@@@@@@@@@@@@@@@@@@@@@@@@@@@@@@@@@@@@@@@@@@@ ",
".@@@@@@@@@@@@@@@@@@@@@@@@@@@@@@@@@@@@@@@@@@@@@@@@@@@@@@@@@@@@@@@@@@@@@@@@@@@@@@@@@@@@@@@@@@@@@@ ",
".@@@@@@@@@@@@@@@@@@@@@@@@@@@@@@@@@@@@@@@@@@@@@@@@@@@@@@@@@@@@@@@@@@@@@@@@@@@@@@@@@@@@@@@@@@@@@@ ",
"$  .........................................................................................   $"
};
