/* XPM */
static char *result[] = {
/* columns rows colors chars-per-pixel */
"96 144 13 1 ",
"  c #5A2314",
". c #1A6626",
"X c #724930",
"o c #190657",
"O c #0C5442",
"+ c #95714B",
"@ c #138513",
"# c #65A520",
"$ c #89C826",
"% c #C08B4C",
"& c #E4C19C",
"* c #F6DCAF",
"= c None",
/* pixels */
"=%%%%%%%%%%%%%%%%%%%%%%%%%%%%%%%%%%%%%%%%%%%%%%%%%%%%%%%%%%%%%%%%%%%%%%%%%%%%%%%%%%%%%%%%%%%%%%=",
"%&&&&&&&&&&&&&&&&&&&&&&&&&&&&&&&&&&&&&&&&&&&&&&&&&&&&&&&&&&&&&&&&&&&&&&&&&&&&&&&&&&&&&&&&&&&&&&%",
"%********************************************************************************************&&%",
"%&&&&&&&&&&&&&&&&&&&&&&&&&&&&&&&&&&&&&&&&&&&&&&&&&&&&&&&&&&&&&&&&&&&&&&&&&&&&&&&&&&&&&&&&&&&&&&%",
"%****OOOOOOOOOOOOOOOOOOOOOOOOOOOOOOOOOOOOOOOOOOOOOOOOOOOOOOOOOOOOOOOOOOOOOOOOOOOOOOOOOOOOOO***&%",
"%***O@@@@@@$$$@@$$$@@@$$$@@$$$@@@$$$@@$$$@@@$$$@@$$$@@@$$$@@$$$@@@$$$@@$$$@@@$$$@@$$$@@@@@@O**&%",
"%&&&O.......######.....######.....######.....######.....######.....######.....######.......O&&&%",
"%***O@@@@@@@@$$$$@@@@@@@$$$$@@@@@@@$$$$@@@@@@@$$$$@@@@@@@$$$$@@@@@@@$$$$@@@@@@@$$$$@@@@@@@@O**&%",
"%***.$@@@@@@@$$$$@@@@@@@$$$$@@@@@@@$$$$@@@@@@@$$$$@@@@@@@$$$$@@@@@@@$$$$@@@@@@@$$$$@@@@@@@$.**&%",
"%***.$$@@@@@$$$$$$@@@@@$$$$$$@@@@@$$$$$$@@@@@$$$$$$@@@@@$$$$$$@@@@@$$$$$$@@@@@$$$$$$@@@@@$$.**&%",
"%***.$$$@@@$$$@@$$$@@@$$$@@$$$@@@$$$@@$$$@@@$$$@@$$$@@@$$$@@$$$@@@$$$@@$$$@@@$$$@@$$$@@@$$$.**&%",
"%***.@$$$@$$$@@@@$$$@$$$@@@@$$$@$$$@@@@$$$@$$$@@@@$$$@$$$@@@@$$$@$$$@@@@$$$@$$$@@@@$$$@$$$@.**&%",
"%***.@@$$$$$@@@@@@$$$$$@@@@@@$$$$$@@@@@@$$$$$@@@@@@$$$$$@@@@@@$$$$$@@@@@@$$$$$@@@@@@$$$$$@@.**&%",
"%***.@@@$$$@@@@@@@@$$$@@@@@@@@$$$@@@@@@@@$$$@@@@@@@@$$$@@@@@@@@$$$@@@@@@@@$$$@@@@@@@@$$$@@@.**&%",
"%***.@@$$$$$@@@@@@$$$$$@@@@@@$$$$$@@@@@@$$$$$@@@@@@$$$$$@@@@@@$$$$$@@@@@@$$$$$@@@@@@$$$$$@@.**&%",
"%***.@$$$@$$$@@@@$$$@$$$@@@@$$$@$$$@@@@$$$@$$$@@@@$$$@$$$@@@@$$$@$$$@@@@$$$@$$$@@@@$$$@$$$@.**&%",
"%***.$$$@@@$$$@@$$$@@@$$$@@$$$@@@$$$@@$$$@@@$$$@@$$$@@@$$$@@$$$@@@$$$@@$$$@@@$$$@@$$$@@@$$$.**&%",
"&***.$$@@@@@$$$$$$@@@@@$$$$$$@@@@@$$$$$$@@@@@$$$$$$@@@@@$$$$$$@@@@@$$$$$$@@@@@$$$$$$@@@@@$$.**&%",
"%***.$@@@@@@@$$$$@@@@@@@$$$$@@@@@@@$$$$@@@@@@@$$$$@@@@@@@$$$$@@@@@@@$$$$@@@@@@@$$$$@@@@@@@$.**&%",
"%***.$@@@@@@@$$$$@@@@@@@$$$$@@@@@@@$$$$@@@@@@@$$$$@@@@@@@$$$$@@@@@@@$$$$@@@@@@@$$$$@@@@@@@$.**&%",
"&***.$$@@@@@$$$$$$@@@@@$$$$$$@@@@@$$$$$$@@@@@$$$$$$@@@@@$$$$$$@@@@@$$$$$$@@@@@$$$$$$@@@@@$$.**&%",
"%***.$$$@@@$$$@@$$$@@@$$$@@$$$@@@$$$@@$$$@@@$$$@@$$$@@@$$$@@$$$@@@$$$@@$$$@@@$$$@@$$$@@@$$$.**&%",
"&***.@$$$@$$$@@@@$$$@$$$@@@@$$$@$$$@@@@$$$@$$$@@@@$$$@$$$@@@@$$$@$$$@@@@$$$@$$$@@@@$$$@$$$@.**&%",
"&***.@@$$$$$@@@@@@$$$$$@@@@@@$$$$$@@@@@@$$$$$@@@@@@$$$$$@@@@@@$$$$$@@@@@@$$$$$@@@@@@$$$$$@@.**&%",
"&***.@@@$$$@@@@@@@@$$$@@@@@@@@$$$@@@@@@@@$$$@@@@@@@@$$$@@@@@@@@$$$@@@@@@@@$$$@@@@@@@@$$$@@@.**&%",
"&***.@@$$$$$@@@@@@$$$$$@@@@@@$$$$$@@@@@@$$$$$@@@@@@$$$$$@@@@@@$$$$$@@@@@@$$$$$@@@@@@$$$$$@@.**&%",
"&***.@$$$@$$$@@@@$$$@$$$@@@@$$$@$$$@@@@$$$@$$$@@@@$$$@$$$@@@@$$$@$$$@@@@$$$@$$$@@@@$$$@$$$@.**&%",
"&***.$$$@@@$$$@@$$$@@@$$$@@$$$@@@$$$@@$$$@@@$$$@@$$$@@@$$$@@$$$@@@$$$@@$$$@@@$$$@@$$$@@@$$$.**&%",
"&***.$$@@@@@$$$$$$@@@@@$$$$$$@@@@@$$$$$$@@@@@$$$$$$@@@@@$$$$$$@@@@@$$$$$$@@@@@$$$$$$@@@@@$$.**&+",
"&***.$@@@@@@@$$$$@@@@@@@$$$$@@@@@@@$$$$@@@@@@@$$$$@@@@@@@$$$$@@@@@@@$$$$@@@@@@@$$$$@@@@@@@$.**&%",
"&***.$@@@@@@@$$$$@@@@@@@$$$$@@@@@@@$$$$@@@@@@@$$$$@@@@@@@$$$$@@@@@@@$$$$@@@@@@@$$$$@@@@@@@$.**&%",
"&***.$$@@@@@$$$$$$@@@@@$$$$$$@@@@@$$$$$$@@@@@$$$$$$@@@@@$$$$$$@@@@@$$$$$$@@@@@$$$$$$@@@@@$$.**&+",
"&***.$$$@@@$$$@@$$$@@@$$$@@$$$@@@$$$@@$$$@@@$$$@@$$$@@@$$$@@$$$@@@$$$@@$$$@@@$$$@@$$$@@@$$$.**&%",
"&***.@$$$@$$$@@@@$$$@$$$@@@@$$$@$$$@@@@$$$@$$$@@@@$$$@$$$@@@@$$$@$$$@@@@$$$@$$$@@@@$$$@$$$@.**&+",
"&***.@@$$$$$@@@@@@$$$$$@@@@@@$$$$$@@@@@@$$$$$@@@@@@$$$$$@@@@@@$$$$$@@@@@@$$$$$@@@@@@$$$$$@@.**&+",
"&***.@@@$$$@@@@@@@@$$$@@@@@@@@$$$@@@@@@@@$$$@@@@@@@@$$$@@@@@@@@$$$@@@@@@@@$$$@@@@@@@@$$$@@@.**&%",
"&***.@@$$$$$@@@@@@$$$$$@@@@@@$$$$$@@@@@@$$$$$@@@@@@$$$$$@@@@@@$$$$$@@@@@@$$$$$@@@@@@$$$$$@@.**&+",
"&***.@$$$@$$$@@@@$$$@$$$@@@@$$$@$$$@@@@$$$@$$$@@@@$$$@$$$@@@@$$$@$$$@@@@$$$@$$$@@@@$$$@$$$@.**&+",
"&***.$$$@@@$$$@@$$$@@@$$$@@$$$@@@$$$@@$$$@@@$$$@@$$$@@@$$$@@$$$@@@$$$@@$$$@@@$$$@@$$$@@@$$$.**&+",
"&***.$$@@@@@$$$$$$@@@@@$$$$$$@@@@@$$$$$$@@@@@$$$$$$@@@@@$$$$$$@@@@@$$$$$$@@@@@$$$$$$@@@@@$$.**&+",
"&***.$@@@@@@@$$$$@@@@@@@$$$$@@@@@@@$$$$@@@@@@@$$$$@@@@@@@$$$$@@@@@@@$$$$@@@@@@@$$$$@@@@@@@$.**&+",
"&***.$@@@@@@@$$$$@@@@@@@$$$$@@@@@@@$$$$@@@@@@@$$$$@@@@@@@$$$$@@@@@@@$$$$@@@@@@@$$$$@@@@@@@$.**&+",
"&***.$$@@@@@$$$$$$@@@@@$$$$$$@@@@@$$$$$$@@@@@$$$$$$@@@@@$$$$$$@@@@@$$$$$$@@@@@$$$$$$@@@@@$$.**&+",
"&***.$$$@@@$$$@@$$$@@@$$$@@$$$@@@$$$@@$$$@@@$$$@@$$$@@@$$$@@$$$@@@$$$@@$$$@@@$$$@@$$$@@@$$$.**&+",
"&***.@$$$@$$$@@@@$$$@$$$@@@@$$$@$$$@@@@$$$@$$$@@@@$$$@$$$@@@@$$$@$$$@@@@$$$@$$$@@@@$$$@$$$@.**&+",
"&***.@@$$$$$@@@@@@$$$$$@@@@@@$$$$$@@@@@@$$$$$@@@@@@$$$$$@@@@@@$$$$$@@@@@@$$$$$@@@@@@$$$$$@@.**&+",
"&***.@@@$$$@@@@@@@@$$$@@@@@@@@$$$@@@@@@@@$$$@@@@@@@@$$$@@@@@@@@$$$@@@@@@@@$$$@@@@@@@@$$$@@@.**&+",
"&***.@@$$$$$@@@@@@$$$$$@@@@@@$$$$$@@@@@@$$$$$@@@@@@$$$$$@@@@@@$$$$$@@@@@@$$$$$@@@@@@$$$$$@@.**&+",
"&***.@$$$@$$$@@@@$$$@$$$@@@@$$$@$$$@@@@$$$@$$$@@@@$$$@$$$@@@@$$$@$$$@@@@$$$@$$$@@@@$$$@$$$@.**&+",
"&***.$$$@@@$$$@@$$$@@@$$$@@$$$@@@$$$@@$$$@@@$$$@@$$$@@@$$$@@$$$@@@$$$@@$$$@@@$$$@@$$$@@@$$$.**&+",
"&***.$$@@@@@$$$$$$@@@@@$$$$$$@@@@@$$$$$$@@@@@$$$$$$@@@@@$$$$$$@@@@@$$$$$$@@@@@$$$$$$@@@@@$$.**&+",
"&***.$@@@@@@@$$$$@@@@@@@$$$$@@@@@@@$$$$@@@@@@@$$$$@@@@@@@$$$$@@@@@@@$$$$@@@@@@@$$$$@@@@@@@$.**&+",
"&***.$@@@@@@@$$$$@@@@@@@$$$$@@@@@@@$$$$@@@@@@@$$$$@@@@@@@$$$$@@@@@@@$$$$@@@@@@@$$$$@@@@@@@$.**& ",
"&***.$$@@@@@$$$$$$@@@@@$$$$$$@@@@@$$$$$$@@@@@$$$$$$@@@@@$$$$$$@@@@@$$$$$$@@@@@$$$$$$@@@@@$$.**&+",
"&***.$$$@@@$$$@@$$$@@@$$$@@$$$@@@$$$@@$$$@@@$$$@@$$$@@@$$$@@$$$@@@$$$@@$$$@@@$$$@@$$$@@@$$$.**&+",
"%***.@$$$@$$$@@@@$$$@$$$@@@@$$$@$$$@@@@$$$@$$$@@@@$$$@$$$@@@@$$$@$$$@@@@$$$@$$$@@@@$$$@$$$@.**& ",
"&***.@@$$$$$@@@@@@$$$$$@@@@@@$$$$$@@@@@@$$$$$@@@@@@$$$$$@@@@@@$$$$$@@@@@@$$$$$@@@@@@$$$$$@@.**&+",
"%***.@@@$$$@@@@@@@@$$$@@@@@@@@$$$@@@@@@@@$$$@@@@@@@@$$$@@@@@@@@$$$@@@@@@@@$$$@@@@@@@@$$$@@@.**& ",
"%***.@@$$$$$@@@@@@$$$$$@@@@@@$$$$$@@@@@@$$$$$@@@@@@$$$$$@@@@@@$$$$$@@@@@@$$$$$@@@@@@$$$$$@@.**& ",
"&***.@$$$@$$$@@@@$$$@$$$@@@@$$$@$$$@@@@$$$@$$$@@@@$$$@$$$@@@@$$$@$$$@@@@$$$@$$$@@@@$$$@$$$@.**&+",
"%***.$$$@@@$$$@@$$$@@@$$$@@$$$@@@$$$@@$$$@@@$$$@@$$$@@@$$$@@$$$@@@$$$@@$$$@@@$$$@@$$$@@@$$$.**& ",
"%***.$$@@@@@$$$$$$@@@@@$$$$$$@@@@@$$$$$$@@@@@$$$$$$@@@@@$$$$$$@@@@@$$$$$$@@@@@$$$$$$@@@@@$$.**& ",
"%***.$@@@@@@@$$$$@@@@@@@$$$$@@@@@@@$$$$@@@@@@@$$$$@@@@@@@$$$$@@@@@@@$$$$@@@@@@@$$$$@@@@@@@$.**& ",
"%***.$@@@@@@@$$$$@@@@@@@$$$$@@@@@@@$$$$@@@@@@@$$$$@@@@@@@$$$$@@@@@@@$$$$@@@@@@@$$$$@@@@@@@$.**& ",
"%***.$$@@@@@$$$$$$@@@@@$$$$$$@@@@@$$$$$$@@@@@$$$$$$@@@@@$$$$$$@@@@@$$$$$$@@@@@$$$$$$@@@@@$$.**& ",
"%***.$$$@@@$$$@@$$$@@@$$$@@$$$@@@$$$@@$$$@@@$$$@@$$$@@@$$$@@$$$@@@$$$@@$$$@@@$$$@@$$$@@@$$$.**& ",
"%***.@$$$@$$$@@@@$$$@$$$@@@@$$$@$$$@@@@$$$@$$$@@@@$$$@$$$@@@@$$$@$$$@@@@$$$@$$$@@@@$$$@$$$@.**& ",
"%***.@@$$$$$@@@@@@$$$$$@@@@@@$$$$$@@@@@@$$$$$@@@@@@$$$$$@@@@@@$$$$$@@@@@@$$$$$@@@@@@$$$$$@@.**& ",
"%***.@@@$$$@@@@@@@@$$$@@@@@@@@$$$@@@@@@@@$$$@@@@@@@@$$$@@@@@@@@$$$@@@@@@@@$$$@@@@@@@@$$$@@@.**& ",
"%***.@@$$$$$@@@@@@$$$$$@@@@@@$$$$$@@@@@@$$$$$@@@@@@$$$$$@@@@@@$$$$$@@@@@@$$$$$@@@@@@$$$$$@@.**& ",
"%***.@$$$@$$$@@@@$$$@$$$@@@@$$$@$$$@@@@$$$@$$$@@@@$$$@$$$@@@@$$$@$$$@@@@$$$@$$$@@@@$$$@$$$@.**& ",
"%***.$$$@@@$$$@@$$$@@@$$$@@$$$@@@$$$@@$$$@@@$$$@@$$$@@@$$$@@$$$@@@$$$@@$$$@@@$$$@@$$$@@@$$$.**& ",
"%***.$$@@@@@$$$$$$@@@@@$$$$$$@@@@@$$$$$$@@@@@$$$$$$@@@@@$$$$$$@@@@@$$$$$$@@@@@$$$$$$@@@@@$$.**& ",
"%***.$@@@@@@@$$$$@@@@@@@$$$$@@@@@@@$$$$@@@@@@@$$$$@@@@@@@$$$$@@@@@@@$$$$@@@@@@@$$$$@@@@@@@$.**& ",
"%***.$@@@@@@@$$$$@@@@@@@$$$$@@@@@@@$$$$@@@@@@@$$$$@@@@@@@$$$$@@@@@@@$$$$@@@@@@@$$$$@@@@@@@$.**& ",
"%***.$$@@@@@$$$$$$@@@@@$$$$$$@@@@@$$$$$$@@@@@$$$$$$@@@@@$$$$$$@@@@@$$$$$$@@@@@$$$$$$@@@@@$$.**& ",
"%***.$$$@@@$$$@@$$$@@@$$$@@$$$@@@$$$@@$$$@@@$$$@@$$$@@@$$$@@$$$@@@$$$@@$$$@@@$$$@@$$$@@@$$$.**& ",
"%***.@$$$@$$$@@@@$$$@$$$@@@@$$$@$$$@@@@$$$@$$$@@@@$$$@$$$@@@@$$$@$$$@@@@$$$@$$$@@@@$$$@$$$@.**& ",
"%***.@@$$$$$@@@@@@$$$$$@@@@@@$$$$$@@@@@@$$$$$@@@@@@$$$$$@@@@@@$$$$$@@@@@@$$$$$@@@@@@$$$$$@@.**& ",
"%***.@@@$$$@@@@@@@@$$$@@@@@@@@$$$@@@@@@@@$$$@@@@@@@@$$$@@@@@@@@$$$@@@@@@@@$$$@@@@@@@@$$$@@@.**& ",
"%***.@@$$$$$@@@@@@$$$$$@@@@@@$$$$$@@@@@@$$$$$@@@@@@$$$$$@@@@@@$$$$$@@@@@@$$$$$@@@@@@$$$$$@@.**& ",
"%***.@$$$@$$$@@@@$$$@$$$@@@@$$$@$$$@@@@$$$@$$$@@@@$$$@$$$@@@@$$$@$$$@@@@$$$@$$$@@@@$$$@$$$@.**& ",
"%***.$$$@@@$$$@@$$$@@@$$$@@$$$@@@$$$@@$$$@@@$$$@@$$$@@@$$$@@$$$@@@$$$@@$$$@@@$$$@@$$$@@@$$$.**& ",
"%***.$$@@@@@$$$$$$@@@@@$$$$$$@@@@@$$$$$$@@@@@$$$$$$@@@@@$$$$$$@@@@@$$$$$$@@@@@$$$$$$@@@@@$$.**& ",
"%***.$@@@@@@@$$$$@@@@@@@$$$$@@@@@@@$$$$@@@@@@@$$$$@@@@@@@$$$$@@@@@@@$$$$@@@@@@@$$$$@@@@@@@$.**& ",
"%***.$@@@@@@@$$$$@@@@@@@$$$$@@@@@@@$$$$@@@@@@@$$$$@@@@@@@$$$$@@@@@@@$$$$@@@@@@@$$$$@@@@@@@$.**& ",
"%***.$$@@@@@$$$$$$@@@@@$$$$$$@@@@@$$$$$$@@@@@$$$$$$@@@@@$$$$$$@@@@@$$$$$$@@@@@$$$$$$@@@@@$$.**& ",
"%***.$$$@@@$$$@@$$$@@@$$$@@$$$@@@$$$@@$$$@@@$$$@@$$$@@@$$$@@$$$@@@$$$@@$$$@@@$$$@@$$$@@@$$$.**& ",
"%***.@$$$@$$$@@@@$$$@$$$@@@@$$$@$$$@@@@$$$@$$$@@@@$$$@$$$@@@@$$$@$$$@@@@$$$@$$$@@@@$$$@$$$@.**& ",
"%***.@@$$$$$@@@@@@$$$$$@@@@@@$$$$$@@@@@@$$$$$@@@@@@$$$$$@@@@@@$$$$$@@@@@@$$$$$@@@@@@$$$$$@@.**& ",
"%***.@@@$$$@@@@@@@@$$$@@@@@@@@$$$@@@@@@@@$$$@@@@@@@@$$$@@@@@@@@$$$@@@@@@@@$$$@@@@@@@@$$$@@@.**& ",
"%***.@@$$$$$@@@@@@$$$$$@@@@@@$$$$$@@@@@@$$$$$@@@@@@$$$$$@@@@@@$$$$$@@@@@@$$$$$@@@@@@$$$$$@@.**& ",
"%***.@$$$@$$$@@@@$$$@$$$@@@@$$$@$$$@@@@$$$@$$$@@@@$$$@$$$@@@@$$$@$$$@@@@$$$@$$$@@@@$$$@$$$@.**& ",
"%***.$$$@@@$$$@@$$$@@@$$$@@$$$@@@$$$@@$$$@@@$$$@@$$$@@@$$$@@$$$@@@$$$@@$$$@@@$$$@@$$$@@@$$$.**& ",
"%***.$$@@@@@$$$$$$@@@@@$$$$$$@@@@@$$$$$$@@@@@$$$$$$@@@@@$$$$$$@@@@@$$$$$$@@@@@$$$$$$@@@@@$$.**& ",
"%***.$@@@@@@@$$$$@@@@@@@$$$$@@@@@@@$$$$@@@@@@@$$$$@@@@@@@$$$$@@@@@@@$$$$@@@@@@@$$$$@@@@@@@$.**& ",
"%***.$@@@@@@@$$$$@@@@@@@$$$$@@@@@@@$$$$@@@@@@@$$$$@@@@@@@$$$$@@@@@@@$$$$@@@@@@@$$$$@@@@@@@$O**& ",
"%***O$$@@@@@$$$$$$@@@@@$$$$$$@@@@@$$$$$$@@@@@$$$$$$@@@@@$$$$$$@@@@@$$$$$$@@@@@$$$$$$@@@@@$$.**& ",
"%***.$$$@@@$$$@@$$$@@@$$$@@$$$@@@$$$@@$$$@@@$$$@@$$$@@@$$$@@$$$@@@$$$@@$$$@@@$$$@@$$$@@@$$$O**& ",
"%***O.###.###....###.###....###.###....###.###....###.###....###.###....###.###....###.###.O**& ",
"%***O@@$$$$$@@@@@@$$$$$@@@@@@$$$$$@@@@@@#####@@@@@@$$$$$@@@@@@$$$$$@@@@@@$$$$$@@@@@@$$$$$@@.**& ",
"%***.@@@$$$@@@@@@@@$$$@@@@@@@@$$$@@@@@@@@###@@@@@@@@$$$@@@@@@@@$$$@@@@@@@@$$$@@@@@@@@$$$@@@O**& ",
"%***O..#####......#####......#####......#####......#####......#####......#####......#####..O**& ",
"%***O@$$$@$$$@@@@$$$@$$$@@@@$$$@$$$@@@@$$$@$$$@@@@$$$@$$$@@@@$$$@$$$@@@@$$$@$$$@@@@$$$@$$$@O**& ",
"%***O###...###..###...###..###...###..###...###..###...###..###...###..###...###..###...###.**& ",
"%***O##.....######.....######.....######.....######.....######.....######.....######.....##O**& ",
"%&&&O@OOOOOOO@@@@OOOOOOO@@@@OOOOOOO@@@@OOOOOOO@@@@OOOOOOO@@@@OOOOOOO@@@@OOOOOOO@@@@OOOOOOO@O&&& ",
"%***O#.......####.......####.......####.......####.......####.......####.......####.......#O**& ",
"%***O##.....######.....######.....######.....######.....######.....######.....######.....##O**& ",
"%***O###...###..###...###..###...###..###...###..###...###..###...###..###...###..###...###O**& ",
"%&&&OO@@@O@@@OOOO@@@O@@@OOOO@@@O@@@OOOO@@@O@@@OOOO@@@O@@@OOOO@@@O@@@OOOO@@@O@@@OOOO@@@O@@@OO&&& ",
"%***O..#####......#####......#####......#####......#####......#####......#####......#####..O**& ",
"%***O...###........###........###........###........###........###........###........###...O**& ",
"%&&&OOO@@@@@OOOOOO@@@@@OOOOOO@@@@@OOOOOO@@@@@OOOOOO@@@@@OOOOOO@@@@@OOOOOO@@@@@OOOOOO@@@@@OOO&&& ",
"%***..###.###....###.###....###.###....###.###....###.###....###.###....###.###....###.###.O**& ",
"+&&&O@@@OOO@@@OO@@@OOO@@@OO@@@OOO@@@OO@@@OOO@@@OO@@@OOO@@@OO@@@OOO@@@OO@@@OOO@@@OO@@@OOO@@@O&&& ",
"+***O##.....######.....######.....######.....######.....######.....######.....######.....##O**& ",
"+&&&O@OOOOOOO@@@@OOOOOOO@@@@OOOOOOO@@@@OOOOOOO@@@@OOOOOOO@@@@OOOOOOO@@@@OOOOOOO@@@@OOOOOOO@O&&& ",
"+&&&O@OOOOOOO@@@@OOOOOOO@@@@OOOOOOO@@@@OOOOOOO@@@@OOOOOOO@@@@OOOOOOO@@@@OOOOOOO@@@@OOOOOOO@O&&& ",
"+***O##.....######.....######.....######.....######.....######.....######.....######.....##O**& ",
"+&&&O@@@OOO@@@OO@@@OOO@@@OO@@@OOO@@@OO@@@OOO@@@OO@@@OOO@@@OO@@@OOO@@@OO@@@OOO@@@OO@@@OOO@@@O&&& ",
"+&&&OO@@@O@@@OOOO@@@O@@@OOOO@@@O@@@OOOO@@@O@@@OOOO@@@O@@@OOOO@@@O@@@OOOO@@@O@@@OOOO@@@O@@@OO&&& ",
"+&&&OOO@@@@@OOOOOO@@@@@OOOOOO@@@@@OOOOOO@@@@@OOOOOO@@@@@OOOOOO@@@@@OOOOOO@@@@@OOOOOO@@@@@OOO&&& ",
"+***O...###........###........###........###........###........###........###........###...O**& ",
"+&&&OOO@@@@@OOOOOO@@@@@OOOOOO@@@@@OOOOOO@@@@@OOOOOO@@@@@OOOOOO@@@@@OOOOOO@@@@@OOOOOO@@@@@OOO&&& ",
"+&&&OO@@@O@@@OOOO@@@O@@@OOOO@@@O@@@OOOO@@@O@@@OOOO@@@O@@@OOOO@@@O@@@OOOO@@@O@@@OOOO@@@O@@@OO&&& ",
"+&&&O@@@OOO@@@OO@@@OOO@@@OO@@@OOO@@@OO@@@OOO@@@OO@@@OOO@@@OO@@@OOO@@@OO@@@OOO@@@OO@@@OOO@@@O&&& ",
"+&&&O@@OOOOO@@@@@@OOOOO@@@@@@OOOOO@@@@@@OOOOO@@@@@@OOOOO@@@@@@OOOOO@@@@@@OOOOO@@@@@@OOOOO@@O&&& ",
"+&&&O@OOOOOOO@@@@OOOOOOO@@@@OOOOOOO@@@@OOOOOOO@@@@OOOOOOO@@@@OOOOOOO@@@@OOOOOOO@@@@OOOOOOO@O&&& ",
"+&&&O@OOOOOOO@@@@OOOOOOO@@@@OOOOOOO@@@@OOOOOOO@@@@OOOOOOO@@@@OOOOOOO@@@@OOOOOOO@@@@OOOOOOO@O&&& ",
"+&&&O@@OOOOO@@@@@@OOOOO@@@@@@OOOOO@@@@@@OOOOO@@@@@@OOOOO@@@@@@OOOOO@@@@@@OOOOO@@@@@@OOOOO@@O&&& ",
"+&&&O@@@OOO@@@OO@@@OOO@@@OO@@@OOO@@@OO@@@OOO@@@OO@@@OOO@@@OO@@@OOO@@@OO@@@OOO@@@OO@@@OOO@@@O&&& ",
"+&&&OO@@@O@@@OOOO@@@O@@@OOOO@@@O@@@OOOO@@@O@@@OOOO@@@O@@@OOOO@@@O@@@OOOO@@@O@@@OOOO@@@O@@@OO&&& ",
"+&&&OOO@@@@@OOOOOO@@@@@OOOOOO@@@@@OOOOOO@@@@@OOOOOO@@@@@OOOOOO@@@@@OOOOOO@@@@@OOOOOO@@@@@OOO&&& ",
"+&&&OOOO@@@OOOOOOOO@@@OOOOOOOO@@@OOOOOOOO@@@OOOOOOOO@@@OOOOOOOO@@@OOOOOOOO@@@OOOOOOOO@@@OOOO&&& ",
"+&&&OOO@@@@@OOOOOO@@@@@OOOOOO@@@@@OOOOOO@@@@@OOOOOO@@@@@OOOOOO@@@@@OOOOOO@@@@@OOOOOO@@@@@OOO&&& ",
"+&&&OO@@@O@@@OOOO@@@O@@@OOOO@@@O@@@OOOO@@@O@@@OOOO@@@O@@@OOOO@@@O@@@OOOO@@@O@@@OOOO@@@O@@@OO&&& ",
"+&&&O@@@OOO@@@OO@@@OOO@@@OO@@@OOO@@@OO@@@OOO@@@OO@@@OOO@@@OO@@@OOO@@@OO@@@OOO@@@OO@@@OOO@@@o&&& ",
"+&&&O@@OOOOO@@@@@@OOOOO@@@@@@OOOOO@@@@@@OOOOO@@@@@@OOOOO@@@@@@OOOOO@@@@@@OOOOO@@@@@@OOOOO@@o&&& ",
"+&&&&oooooooooooooooooooooooooooooooooooooooooooooooooooooooooooooooooooooooooooooooooooooo&&&& ",
"X&&&&&&&&&&&&&&&&&&&&&&&&&&&&&&&&&&&&&&&&&&&&&&&&&&&&&&&&&&&&&&&&&&&&&&&&&&&&&&&&&&&&&&&&&&&&&& ",
"X&&&&&&&&&&&&&&&&&&&&&&&&&&&&&&&&&&&&&&&&&&&&&&&&&&&&&&&&&&&&&&&&&&&&&&&&&&&&&&&&&&&&&&&&&&&&&& ",
"X&&&&&&&&&&&&&&&&&&&&&&&&&&&&&&&&&&&&&&&&&&&&&&&&&&&&&&&&&&&&&&&&&&&&&&&&&&&&&&&&&&&&&&&&&&&&&& ",
"=  XXXXXXXXXXXXXXXXXXXXXXXXXXXXXXXXXXXXXXXXXXXXXXXXXXXXXXXXXXXXXXXXXXXXXXXXXXXXXXXXXXXXXXXXX   ="
};
