/* XPM */
static char *result[] = {
/* columns rows colors chars-per-pixel */
"96 144 9 1 ",
"  c #5A2314",
". c #724930",
"X c #190657",
"o c #95714B",
"O c #C08B4C",
"+ c #3F3B93",
"@ c #E4C19C",
"# c #F6DCAF",
"$ c None",
/* pixels */
"$OOOOOOOOOOOOOOOOOOOOOOOOOOOOOOOOOOOOOOOOOOOOOOOOOOOOOOOOOOOOOOOOOOOOOOOOOOOOOOOOOOOOOOOOOOOOOO$",
"O@@@@@@@@@@@@@@@@@@@@@@@@@@@@@@@@@@@@@@@@@@@@@@@@@@@@@@@@@@@@@@@@@@@@@@@@@@@@@@@@@@@@@@@@@@@@@@O",
"O############################################################################################@@O",
"O@@@@@@@@@@@@@@@@@@@@@@@@@@@@@@@@@@@@@@@@@@@@@@@@@@@@@@@@@@@@@@@@@@@@@@@@@@@@@@@@@@@@@@@@@@@@@@O",
"O#############################################################################################@O",
"O#############################################################################################@O",
"O@@@@@@@@@@@@@@@@@@@@@@@@@@@@@@@@@@@@@@@@@@@@@@@@@@@@@@@@@@@@@@@@@@@@@@@@@@@@@@@@@@@@@@@@@@@@@@O",
"O#############################################################################################@O",
"O#########XX##################################################################################@O",
"O#########XX##################################################################################@O",
"O#########XX##################################################################################@O",
"O#########XX##################################################################################@O",
"O#########XX##################################################################################@O",
"O#########XX##################################################################################@O",
"O#########XX##################################################################################@O",
"O#########XX##################################################################################@O",
"O####XX###XX##################################################################################@O",
"@####XXX##XX##################################################################################@O",
"O#####XXXXXX##################################################################################@O",
"O######XXXX########OOOOOOOOOOOOOOOOOOOOOOOOOOOOOOOOOOOOOOOOOOOOOOOOOOOOOOOOOO#################@O",
"@##################O############# ...............................  #########O#################@O",
"O#######XX#########O############# ................................  ########O#################@O",
"@######X++X########O############# ................................  ########O#################@O",
"@#####X++++X#######O##++######## .................................. ###++++#O#################@O",
"@####X++++++X######O#++++####### ...         ...................... ####++##O#################@O",
"@###X++++++++X#####O##++######## . O@@@@@@@OOO  ................... ###++++#O#################@O",
"@##X++++++++++X####O#++++####### .O@@@@@@@@@@@@OO  ................  ###++##O#################@O",
"@#X++++++++++++X###O#############O@@@@@@@@@@@@@@@@OO ..............  #######O#################@O",
"@#XXXXXXXXXXXXXX###O##++#########O@@@@O...@@@@@@@@@@@O ............  ##++++#O#################@o",
"@X++++++++++++++X##O#++++#######O@@@@..OOO.@@@@@@@@@@@@O .........   ###++##O#################@O",
"@XXXXXXXXXXXXXXXX##O##++########O@OO.O@@@O.@@@@.@@@@@@@@OO .......   ##++++#O#################@O",
"@XXXXXXXXXXXXXXXX##O#++++#######.@O.@#####O@@@@@.@@@@@@@@OOO ...     ###++##O#################@o",
"@XXXXXXXXXXXXXXXX##O############.O O######@O@@@@.O@@@@@@@OOOOO       #######O#################@O",
"@#XXXXXXXXXXXXXX###O##++########.O ########O@@@@O.@@@@@@@@OOOOO      ##++++#O#################@o",
"@##XXX##XX##XXX####O#++++######## #########@O@@@O.@@@@@@@@@OOOOO     ###++##O#################@o",
"@######XXXX########O##++######### ##########@O@@O.O@@@@@@@@@OOOOO   ###++++#O#################@O",
"@#####XXXXXX#######O#++++#######O###########@O@@OO.@@@@@@@@@OOOOOO  ####++##O#################@o",
"@##################O############O############@.OOO.@@@@@@@@@OOOOOOO ########O#################@o",
"@##################O##++#######O#############@O.OO.@@@@@@@@@@OOOOOO ###++++#O#################@o",
"@##################O#++++######O######@...OO#@@.OO @@@@@@@@@@OOOOOO ####++##O#################@o",
"@##################O##++#######O####@..O@@@##@@O.O @@@@@@@@@@OOOOOO ###++++#O#################@o",
"@##################O#++++######O###..O@#####@@@@.. @@@@@@@@@@@OOOOO ####++##O#################@o",
"@##################O###########O@#..     ..@@@@@O. @@@@@@@@@@@OOOO #########O#################@o",
"@##################O##++########O@@ ...   .@@@@@OO @@@@@@@@@@@OOOO ####++++#O#################@o",
"@##################O#++++#######O@@O..OO .@@@@@@OO @@@@@@@@@@@OOOO #####++##O#################@o",
"@##################O##++#######.@##@O.O@@##@@@@@...  @@@@@@@@@OOO #####++++#O#################@o",
"@##################O#++++######O###########@@@@O@@@@@ @@@@@@@@OO #######++##O#################@o",
"@##################O##########O############@@@O@@@@@@@@@@@@@@@OO ###########O#################@o",
"@##################O##++#####O#############@@@O@@@@@@@@@@@@@@@O  ######++++#O#################@o",
"@##################O#++++###O#############@@@@O@@@@@@@OO@@@@@@O O ######++##O#################@o",
"@##################O##++####.#@@#########@@@@@.@@@@@@OOO@@@@@OOOOO ####++++#O#################@o",
"@##################O#++++####  @#########@@@@@.O@@@OOO  @@OOOOOOOO #####++##O#################@o",
"@##################O########### #########@@@@@ .OOOO@ @@@@@OOO OOO #########O#################@ ",
"@##################O##++####### #########@@@@@@ ..@@ O@@@@@@OO OOO ####++++#O#################@o",
"@##################O#++++#####.@#########@@@@@@@     O@@@@@@@O OOO #####++##O#################@o",
"O##################O##++######.@##########@@@@@@@OO.OOO@@@@@@OO O #####++++#O#################@ ",
"@##################O#++++######.O..#######@@@@@@@@O.OOO@@@@@@OO  #######++##O#################@o",
"O##################O###########.@@@O######@@@@@@@@OO.OOO@@@@OO@ ############O#################@ ",
"O##################O##++######## #########@@@@@@O OO.O@OOOOOOO@ #######++++#O#################@ ",
"@##################O#++++####### #########@@@@O  OOOO.O@@OOO@@O ########++##O#################@o",
"O##################O##++####### @########@@@O  OOOOOOO  O@@@@O ########++++#O#################@ ",
"O##################O#++++###### @######@@@O  OOOOOOOOOOO      ##########++##O#################@ ",
"O##################O############ @@@@@OO   OOOOOOOOOOOOOO ##################O#################@ ",
"O##################O##++#########       OOOOOOOOOOOOOOOOO #############++++#O#################@ ",
"O##################O#++++#############.OOO@@@@@OOOOOOO@OO ##############++##O#################@ ",
"O##################O##++###############.@@@@@@@@@OOOOO@OO      ########++++#O#################@ ",
"O##################O#++++##############O@###@@@@@@OOO@@O         #######++##O#################@ ",
"O##################O################   O@####@@@@@OOO@@O           #########O#################@ ",
"O##################O##++#########       O#####@@@@@O@@O             ###++++#O#################@ ",
"O##################O#++++#####           #####@@@@@@@                ###++##O#################@ ",
"O##################O##++####              OOOOOOOO                    #++++#O#################@ ",
"O##################O#++++##                                            #++##O#################@ ",
"O##################O@@@@@@@                                            @@@@@O#################@ ",
"O##################O##++###                                            ++++#O#################@ ",
"O##################O#++++###                    OOOOOOOO              ##++##O#################@ ",
"O##################O@@++@@@@@                @@@@@@@#####           @@@++++@O#################@ ",
"O##################O#++++#####             O@@O@@@@@#####O       #######++##O#################@ ",
"O##################O@@@@@@@@@@@           O@@OOO@@@@@####@O   @@@@@@@@@@@@@@O#################@ ",
"O##################O@@++@@@@@@@@@         O@@OOO@@@@@@###@O@@@@@@@@@@@@++++@O#################@ ",
"O##################O@++++@@@@@@@@@@      OO@OOOOO@@@@@@@@@.@@@@@@@@@@@@@++@@O#################@ ",
"O##################O@@++@@@@@@@@@@@@@@@@ OO@OOOOOOO@@@@@OOO.@@@@@@@@@@@++++@O#################@ ",
"O##################O@++++@@@@@@@@@@@@@@@ OOOOOOOOOOOOOOOOO       @@@@@@@++@@O#################@ ",
"O##################O@@@@@@@@@@@@@@@@@@@@ OOOOOOOOOOOOOO   OO@@@@@ @@@@@@@@@@O#################@ ",
"O##################O@@++@@@@@@@@@@@@      OOOOOOOOOOO  O@@@######@ @@@@++++@O#################@ ",
"O##################O@++++@@@@@@@@@@ O@@@@O  OOOOOOO  O@@@########@ @@@@@++@@O#################@ ",
"O##################O@@++@@@@@@@@@@ O@@OOO@@O.OOOO  O@@@@######### @@@@@++++@O#################@ ",
"O##################O@++++@@@@@@@@@ @OOOOOOO@O.OO O@@@@@@######### @@@@@@++@@O#################@ ",
"O##################O@@@@@@@@@@@@@@ @OO@@@@OOO.OO@@@@@@@@######O@@@.@@@@@@@@@O#################@ ",
"O##################O@@++@@@@@@@@@  OO@@@@@@OOO.O@@@@@@@@#######..O.@@@@++++@O#################@ ",
"O##################O@++++@@@@@@@ O OO@@@@@@OOO.OO@@@@@@@##########@.@@@@++@@O#################@ ",
"O##################O@@++@@@@@@@ OOO O@@@@@@@O     @@@@@@@#########@.@@@++++@O#################@ ",
"O##################O@++++@@@@@@ OOO OO@@@@@@O @@.. @@@@@@######### @@@@@++@@O#################@ ",
"O##################O@@@@@@@@@@@ OOO OOO@@@@@ @OOOO. @@@@@######### @@@@@@@@@O#################@ ",
"O##################O@@++@@@@@@@ OOOOOOOO@@  OOO@@@O.@@@@@#########@  @@++++@O#################@ ",
"O##################O@++++@@@@@@ OOOOO@@@@@OOO@@@@@@.@@@@@#########@@#.@@++@@O#################@ ",
"O##################O@@++@@@@@@@@ O O@@@@@@OO@@@@@@@O@@@@#############O@++++@O#################@ ",
"O##################O@++++@@@@@@@@  O@@@@@@@@@@@@@@@O@@@#############O@@@++@@O#################@ ",
"O##################O@@@@@@@@@@@@@ OO@@@@@@@@@@@@@@@O@@@############O@@@@@@@@O#################@ ",
"O##################O@@++@@@@@@@@@ OO@@@@@@@@ @@@@@O@@@@###########O@@@@++++@O#################@ ",
"O##################O@++++@@@@@@@ OOO@@@@@@@@@  ...@@@@@##@@O.O@##@.@@@@@++@@O#################@ ",
"O##################O@@++@@@@@@@ OOOO@@@@@@@@@@@ OO@@@@@@. OO..O@@O@@@@@++++@O#################@ ",
"O##################O@++++@@@@@@ OOOO@@@@@@@@@@@ OO@@@@@.   ... @@O@@@@@@++@@.#################@ ",
"O##################O@@@@@@@@@@@ OOOO@@@@@@@@@@@ .O@@@@@..     ..#@O@@@@@@@@@O#################@ ",
"O##################O@@++@@@@@@ OOOOO@@@@@@@@@@@ ..@@@@#####@O..###O@@@@++++@O#################@ ",
"O##################O@++++@@@@@ OOOOOO@@@@@@@@@@ O.O@@##@@@O..@####O@@@@@++@@.#################@ ",
"O##################.@@++@@@@@@ OOOOOO@@@@@@@@@@ OO.@@#OO...@######O@@@@++++@.#################@ ",
"O@@@@@@@@@@@@@@@@@@O@++++@@@@@ OOOOOO@@@@@@@@@@.OO.O@#############O@@@@@++@@O@@@@@@@@@@@@@@@@@@ ",
"O##################.@@@@@@@@@@ OOOOOOO@@@@@@@@@.OOO.@############O@@@@@@@@@@.#######XXXXXX####@ ",
"O##################.@@++@@@@@@  OOOOOO@@@@@@@@@.OO@@O@###########O@@@@@++++@.########XXXX#####@ ",
"O##################.@++++@@@@@   OOOOO@@@@@@@@@O.O@@O@########## @@@@@@@++@@.####XXX##XX##XXX#@ ",
"O@@@@@@@@@@@@@@@@@@.OO++OOOOO     OOOOO@@@@@@@@@.O@@@O@######### OOOOOO++++O.@@@XXXXXXXXXXXXXX@ ",
"O##################.@++++@@@@      OOOOO@@@@@@@@.O@@@@O######## O.@@@@@@++@@.##XXXXXXXXXXXXXXXX ",
"O##################.OOOOOOOOO       OOOOO@@@@@@@O.@@@@O@######O O.OOOOOOOOOO.##XXXXXXXXXXXXXXXX ",
"O@@@@@@@@@@@@@@@@@@.OO++OOOOO     ... OOO@@@@@@@@.@@@@@O#####@.O@.OOOOO++++O.@@XXXXXXXXXXXXXXXX ",
"O##################.@++++@@@@   ....... OO@@@@@@@@.@@@@.O@@@O.OO@O@@@@@@++@@.##X++++++++++++++X ",
"o@@@@@@@@@@@@@@@@@@.OO++OOOOO   ......... O@@@@@@@@@@@@.OOO..@@@@OOOOOO++++O.@@@XXXXXXXXXXXXXX@ ",
"o##################.O++++OOOO  ............ O@@@@@@@@@@@...O@@@@OOOOOOOO++OO.###X++++++++++++X@ ",
"o@@@@@@@@@@@@@@@@@@.OOOOOOOOO  .............. OO@@@@@@@@@@@@@@@@OOOOOOOOOOOO.@@@@X++++++++++X@@ ",
"o@@@@@@@@@@@@@@@@@@.OO++OOOOO  ................  OO@@@@@@@@@@@@O. OOOOO++++O.@@@@@X++++++++X@@@ ",
"o##################.O++++OOOOO ...................  OOO@@@@@@@O . OOOOOO++OO.######X++++++X###@ ",
"o@@@@@@@@@@@@@@@@@@.OO++OOOOOO ......................         ... OOOOO++++O.@@@@@@@X++++X@@@@@ ",
"o@@@@@@@@@@@@@@@@@@.O++++OOOOO .................................. OOOOOO++OO.@@@@@@@@X++X@@@@@@ ",
"o@@@@@@@@@@@@@@@@@@.OOOOOOOOOO  ................................ OOOOOOOOOOO.@@@@@@@@@XX@@@@@@@ ",
"o##################.OOOOOOOOOO  ................................ OOOOOOOOOOO.#################@ ",
"o@@@@@@@@@@@@@@@@@@..........................................................@@@@@@@@XXXX@@@@@@ ",
"o@@@@@@@@@@@@@@@@@@@@@@@@@@@@@@@@@@@@@@@@@@@@@@@@@@@@@@@@@@@@@@@@@@@@@@@@@@@@@@@@@@@XXXXXX@@@@@ ",
"o@@@@@@@@@@@@@@@@@@@@@@@@@@@@@@@@@@@@@@@@@@@@@@@@@@@@@@@@@@@@@@@@@@@@@@@@@@@@@@@@@@@XX@@XXX@@@@ ",
"o@@@@@@@@@@@@@@@@@@@@@@@@@@@@@@@@@@@@@@@@@@@@@@@@@@@@@@@@@@@@@@@@@@@@@@@@@@@@@@@@@@@XX@@@XX@@@@ ",
"o@@@@@@@@@@@@@@@@@@@@@@@@@@@@@@@@@@@@@@@@@@@@@@@@@@@@@@@@@@@@@@@@@@@@@@@@@@@@@@@@@@@XX@@@@@@@@@ ",
"o@@@@@@@@@@@@@@@@@@@@@@@@@@@@@@@@@@@@@@@@@@@@@@@@@@@@@@@@@@@@@@@@@@@@@@@@@@@@@@@@@@@XX@@@@@@@@@ ",
"o@@@@@@@@@@@@@@@@@@@@@@@@@@@@@@@@@@@@@@@@@@@@@@@@@@@@@@@@@@@@@@@@@@@@@@@@@@@@@@@@@@@XX@@@@@@@@@ ",
"o@@@@@@@@@@@@@@@@@@@@@@@@@@@@@@@@@@@@@@@@@@@@@@@@@@@@@@@@@@@@@@@@@@@@@@@@@@@@@@@@@@@XX@@@@@@@@@ ",
"o@@@@@@@@@@@@@@@@@@@@@@@@@@@@@@@@@@@@@@@@@@@@@@@@@@@@@@@@@@@@@@@@@@@@@@@@@@@@@@@@@@@XX@@@@@@@@@ ",
"o@@@@@@@@@@@@@@@@@@@@@@@@@@@@@@@@@@@@@@@@@@@@@@@@@@@@@@@@@@@@@@@@@@@@@@@@@@@@@@@@@@@XX@@@@@@@@@ ",
"o@@@@@@@@@@@@@@@@@@@@@@@@@@@@@@@@@@@@@@@@@@@@@@@@@@@@@@@@@@@@@@@@@@@@@@@@@@@@@@@@@@@XX@@@@@@@@@ ",
"o@@@@@@@@@@@@@@@@@@@@@@@@@@@@@@@@@@@@@@@@@@@@@@@@@@@@@@@@@@@@@@@@@@@@@@@@@@@@@@@@@@@XX@@@@@@@@@ ",
"o@@@@@@@@@@@@@@@@@@@@@@@@@@@@@@@@@@@@@@@@@@@@@@@@@@@@@@@@@@@@@@@@@@@@@@@@@@@@@@@@@@@@@@@@@@@@@@ ",
"o@@@@@@@@@@@@@@@@@@@@@@@@@@@@@@@@@@@@@@@@@@@@@@@@@@@@@@@@@@@@@@@@@@@@@@@@@@@@@@@@@@@@@@@@@@@@@@ ",
"o@@@@@@@@@@@@@@@@@@@@@@@@@@@@@@@@@@@@@@@@@@@@@@@@@@@@@@@@@@@@@@@@@@@@@@@@@@@@@@@@@@@@@@@@@@@@@@ ",
"o@@@@@@@@@@@@@@@@@@@@@@@@@@@@@@@@@@@@@@@@@@@@@@@@@@@@@@@@@@@@@@@@@@@@@@@@@@@@@@@@@@@@@@@@@@@@@@ ",
".@@@@@@@@@@@@@@@@@@@@@@@@@@@@@@@@@@@@@@@@@@@@@@@@@@@@@@@@@@@@@@@@@@@@@@@@@@@@@@@@@@@@@@@@@@@@@@ ",
".@@@@@@@@@@@@@@@@@@@@@@@@@@@@@@@@@@@@@@@@@@@@@@@@@@@@@@@@@@@@@@@@@@@@@@@@@@@@@@@@@@@@@@@@@@@@@@ ",
".@@@@@@@@@@@@@@@@@@@@@@@@@@@@@@@@@@@@@@@@@@@@@@@@@@@@@@@@@@@@@@@@@@@@@@@@@@@@@@@@@@@@@@@@@@@@@@ ",
"$  .........................................................................................   $"
};
