/* XPM */
static char *result[] = {
/* columns rows colors chars-per-pixel */
"96 144 9 1 ",
"  c #5A2314",
". c #724930",
"X c #BF1929",
"o c #E43B00",
"O c #95714B",
"+ c #C08B4C",
"@ c #E4C19C",
"# c #F6DCAF",
"$ c None",
/* pixels */
"$++++++++++++++++++++++++++++++++++++++++++++++++++++++++++++++++++++++++++++++++++++++++++++++$",
"+@@@@@@@@@@@@@@@@@@@@@@@@@@@@@@@@@@@@@@@@@@@@@@@@@@@@@@@@@@@@@@@@@@@@@@@@@@@@@@@@@@@@@@@@@@@@@@+",
"+############################################################################################@@+",
"+@@@@@@@@@@@@@@@@@@@@@@@@@@@@@@@@@@@@@@@@@@@@@@@@@@@@@@@@@@@@@@@@@@@@@@@@@@@@@@@@@@@@@@@@@@@@@@+",
"+#############################################################################################@+",
"+#############################################################################################@+",
"+@@@@@@@@@@@@@@@@@@@@@@@@@@@@@@@@@@@@@@@@@@@@@@@@@@@@@@@@@@@@@@@@@@@@@@@@@@@@@@@@@@@@@@@@@@@@@@+",
"+#############################################################################################@+",
"+####XX###XXX#################################################################################@+",
"+###XXX##XXXXX################################################################################@+",
"+##XXXX#XXX#XXX###############################################################################@+",
"+##XXXX#XX###XX###############################################################################@+",
"+####XX#XX###XX###############################################################################@+",
"+####XX#XX###XX###############################################################################@+",
"+####XX#XX###XX###############################################################################@+",
"+####XX#XX###XX###############################################################################@+",
"+####XX#XX###XX###############################################################################@+",
"@####XX#XXX#XXX###############################################################################@+",
"+####XX##XXXXX################################################################################@+",
"+####XX###XXX#################################################################################@+",
"@#############################################################################################@+",
"+###XXX####XXX################################################################################@+",
"@#XXoooX##XoooXX##############################################################################@+",
"@#XoooooXXoooooX##############################################################################@+",
"@XooooooooooooooX#############################################################################@+",
"@XooooooooooooooX#############################################################################@+",
"@XooooooooooooooX#############################################################################@+",
"@XooooooooooooooX#############################################################################@+",
"@XXXXXXXXXXXXXXXX#########XXX####XXX########################XXX####XXX########################@O",
"@#XooooooooooooX########XXoooX##XoooXX####################XXoooX##XoooXX######################@+",
"@#XXXXXXXXXXXXXX########XoooooXXoooooX####################XoooooXXoooooX######################@+",
"@##XXXXXXXXXXXX########XooooooooooooooX##################XooooooooooooooX#####################@O",
"@###XXXXXXXXXX#########XooooooooooooooX##################XooooooooooooooX#####################@+",
"@####XXXXXXXX##########XooooooooooooooX##################XooooooooooooooX#####################@O",
"@#####XXXXXX###########XooooooooooooooX##################XooooooooooooooX#####################@O",
"@######XXXX############XXXXXXXXXXXXXXXX##################XXXXXXXXXXXXXXXX#####################@+",
"@#######XX##############XooooooooooooX####################XooooooooooooX######################@O",
"@#######################XXXXXXXXXXXXXX####################XXXXXXXXXXXXXX######################@O",
"@########################XXXXXXXXXXXX######################XXXXXXXXXXXX#######################@O",
"@#########################XXXXXXXXXX#######XXX####XXX#######XXXXXXXXXX########################@O",
"@##########################XXXXXXXX######XXoooX##XoooXX######XXXXXXXX#########################@O",
"@###########################XXXXXX#######XoooooXXoooooX#######XXXXXX##########################@O",
"@############################XXXX#######XooooooooooooooX#######XXXX###########################@O",
"@#############################XX########XooooooooooooooX########XX############################@O",
"@#######################################XooooooooooooooX######################################@O",
"@#######################################XooooooooooooooX######################################@O",
"@#######################################XXXXXXXXXXXXXXXX######################################@O",
"@########################################XooooooooooooX#######################################@O",
"@########################################XXXXXXXXXXXXXX#######################################@O",
"@#########################################XXXXXXXXXXXX########################################@O",
"@##########################################XXXXXXXXXX#########################################@O",
"@###########################################XXXXXXXX##########################################@O",
"@############################################XXXXXX###########################################@ ",
"@#########################XXX####XXX##########XXXX##########XXX####XXX########################@O",
"@#######################XXoooX##XoooXX#########XX#########XXoooX##XoooXX######################@O",
"+#######################XoooooXXoooooX####################XoooooXXoooooX######################@ ",
"@######################XooooooooooooooX##################XooooooooooooooX#####################@O",
"+######################XooooooooooooooX##################XooooooooooooooX#####################@ ",
"+######################XooooooooooooooX##################XooooooooooooooX#####################@ ",
"@######################XooooooooooooooX##################XooooooooooooooX#####################@O",
"+######################XXXXXXXXXXXXXXXX##################XXXXXXXXXXXXXXXX#####################@ ",
"+#######################XooooooooooooX####################XooooooooooooX######################@ ",
"+#######################XXXXXXXXXXXXXX####################XXXXXXXXXXXXXX######################@ ",
"+########################XXXXXXXXXXXX######################XXXXXXXXXXXX#######################@ ",
"+#########################XXXXXXXXXX########################XXXXXXXXXX########################@ ",
"+##########################XXXXXXXX##########################XXXXXXXX#########################@ ",
"+###########################XXXXXX############################XXXXXX##########################@ ",
"+############################XXXX##############################XXXX###########################@ ",
"+#############################XX################################XX############################@ ",
"+#############################################################################################@ ",
"+#############################################################################################@ ",
"+#############################################################################################@ ",
"+#############################################################################################@ ",
"+#############################################################################################@ ",
"+#############################################################################################@ ",
"+#############################XX################################XX############################@ ",
"+############################XXXX##############################XXXX###########################@ ",
"+###########################XXXXXX############################XXXXXX##########################@ ",
"+##########################XXXXXXXX##########################XXXXXXXX#########################@ ",
"+#########################XXXXXXXXXX########################XXXXXXXXXX########################@ ",
"+########################XXXXXXXXXXXX######################XXXXXXXXXXXX#######################@ ",
"+#######################XXXXXXXXXXXXXX####################XXXXXXXXXXXXXX######################@ ",
"+#######################XooooooooooooX####################XooooooooooooX######################@ ",
"+######################XXXXXXXXXXXXXXXX##################XXXXXXXXXXXXXXXX#####################@ ",
"+######################XooooooooooooooX##################XooooooooooooooX#####################@ ",
"+######################XooooooooooooooX##################XooooooooooooooX#####################@ ",
"+######################XooooooooooooooX##################XooooooooooooooX#####################@ ",
"+######################XooooooooooooooX##################XooooooooooooooX#####################@ ",
"+#######################XoooooXXoooooX####################XoooooXXoooooX######################@ ",
"+#######################XXoooX##XoooXX#########XX#########XXoooX##XoooXX######################@ ",
"+#########################XXX####XXX##########XXXX##########XXX####XXX########################@ ",
"+############################################XXXXXX###########################################@ ",
"+###########################################XXXXXXXX##########################################@ ",
"+##########################################XXXXXXXXXX#########################################@ ",
"+#########################################XXXXXXXXXXXX########################################@ ",
"+########################################XXXXXXXXXXXXXX#######################################@ ",
"+########################################XooooooooooooX#######################################@ ",
"+#######################################XXXXXXXXXXXXXXXX######################################@ ",
"+#######################################XooooooooooooooX######################################@ ",
"+#######################################XooooooooooooooX######################################@ ",
"+#############################XX########XooooooooooooooX########XX############################@ ",
"+############################XXXX#######XooooooooooooooX#######XXXX###########################@ ",
"+###########################XXXXXX#######XoooooXXoooooX#######XXXXXX##########################@ ",
"+##########################XXXXXXXX######XXoooX##XoooXX######XXXXXXXX#########################@ ",
"+#########################XXXXXXXXXX#######XXX####XXX#######XXXXXXXXXX########################@ ",
"+########################XXXXXXXXXXXX######################XXXXXXXXXXXX#######################@ ",
"+@@@@@@@@@@@@@@@@@@@@@@@XXXXXXXXXXXXXX@@@@@@@@@@@@@@@@@@@@XXXXXXXXXXXXXX@@@@@@@@@@@@@@@@@@@@@@@ ",
"+#######################XooooooooooooX####################XooooooooooooX##############XX######@ ",
"+######################XXXXXXXXXXXXXXXX##################XXXXXXXXXXXXXXXX############XXXX#####@ ",
"+######################XooooooooooooooX##################XooooooooooooooX###########XXXXXX####@ ",
"+@@@@@@@@@@@@@@@@@@@@@@XooooooooooooooX@@@@@@@@@@@@@@@@@@XooooooooooooooX@@@@@@@@@@XXXXXXXX@@@@ ",
"+######################XooooooooooooooX##################XooooooooooooooX#########XXXXXXXXXX##@ ",
"+######################XooooooooooooooX##################XooooooooooooooX########XXXXXXXXXXXX#@ ",
"+@@@@@@@@@@@@@@@@@@@@@@@XoooooXXoooooX@@@@@@@@@@@@@@@@@@@@XoooooXXoooooX@@@@@@@@XXXXXXXXXXXXXX@ ",
"+#######################XXoooX##XoooXX####################XXoooX##XoooXX########XooooooooooooX@ ",
"O@@@@@@@@@@@@@@@@@@@@@@@@@XXX@@@@XXX@@@@@@@@@@@@@@@@@@@@@@@@XXX@@@@XXX@@@@@@@@@XXXXXXXXXXXXXXXX ",
"O##############################################################################XooooooooooooooX ",
"O@@@@@@@@@@@@@@@@@@@@@@@@@@@@@@@@@@@@@@@@@@@@@@@@@@@@@@@@@@@@@@@@@@@@@@@@@@@@@@XooooooooooooooX ",
"O@@@@@@@@@@@@@@@@@@@@@@@@@@@@@@@@@@@@@@@@@@@@@@@@@@@@@@@@@@@@@@@@@@@@@@@@@@@@@@XooooooooooooooX ",
"O##############################################################################XooooooooooooooX ",
"O@@@@@@@@@@@@@@@@@@@@@@@@@@@@@@@@@@@@@@@@@@@@@@@@@@@@@@@@@@@@@@@@@@@@@@@@@@@@@@@XoooooXXoooooX@ ",
"O@@@@@@@@@@@@@@@@@@@@@@@@@@@@@@@@@@@@@@@@@@@@@@@@@@@@@@@@@@@@@@@@@@@@@@@@@@@@@@@XXoooX@@XoooXX@ ",
"O@@@@@@@@@@@@@@@@@@@@@@@@@@@@@@@@@@@@@@@@@@@@@@@@@@@@@@@@@@@@@@@@@@@@@@@@@@@@@@@@@XXX@@@@XXX@@@ ",
"O#############################################################################################@ ",
"O@@@@@@@@@@@@@@@@@@@@@@@@@@@@@@@@@@@@@@@@@@@@@@@@@@@@@@@@@@@@@@@@@@@@@@@@@@@@@@@@@@XXX@@@XX@@@@ ",
"O@@@@@@@@@@@@@@@@@@@@@@@@@@@@@@@@@@@@@@@@@@@@@@@@@@@@@@@@@@@@@@@@@@@@@@@@@@@@@@@@@XXXXX@@XX@@@@ ",
"O@@@@@@@@@@@@@@@@@@@@@@@@@@@@@@@@@@@@@@@@@@@@@@@@@@@@@@@@@@@@@@@@@@@@@@@@@@@@@@@@XXX@XXX@XX@@@@ ",
"O@@@@@@@@@@@@@@@@@@@@@@@@@@@@@@@@@@@@@@@@@@@@@@@@@@@@@@@@@@@@@@@@@@@@@@@@@@@@@@@@XX@@@XX@XX@@@@ ",
"O@@@@@@@@@@@@@@@@@@@@@@@@@@@@@@@@@@@@@@@@@@@@@@@@@@@@@@@@@@@@@@@@@@@@@@@@@@@@@@@@XX@@@XX@XX@@@@ ",
"O@@@@@@@@@@@@@@@@@@@@@@@@@@@@@@@@@@@@@@@@@@@@@@@@@@@@@@@@@@@@@@@@@@@@@@@@@@@@@@@@XX@@@XX@XX@@@@ ",
"O@@@@@@@@@@@@@@@@@@@@@@@@@@@@@@@@@@@@@@@@@@@@@@@@@@@@@@@@@@@@@@@@@@@@@@@@@@@@@@@@XX@@@XX@XX@@@@ ",
"O@@@@@@@@@@@@@@@@@@@@@@@@@@@@@@@@@@@@@@@@@@@@@@@@@@@@@@@@@@@@@@@@@@@@@@@@@@@@@@@@XX@@@XX@XX@@@@ ",
"O@@@@@@@@@@@@@@@@@@@@@@@@@@@@@@@@@@@@@@@@@@@@@@@@@@@@@@@@@@@@@@@@@@@@@@@@@@@@@@@@XX@@@XX@XXXX@@ ",
"O@@@@@@@@@@@@@@@@@@@@@@@@@@@@@@@@@@@@@@@@@@@@@@@@@@@@@@@@@@@@@@@@@@@@@@@@@@@@@@@@XXX@XXX@XXXX@@ ",
"O@@@@@@@@@@@@@@@@@@@@@@@@@@@@@@@@@@@@@@@@@@@@@@@@@@@@@@@@@@@@@@@@@@@@@@@@@@@@@@@@@XXXXX@@XXX@@@ ",
"O@@@@@@@@@@@@@@@@@@@@@@@@@@@@@@@@@@@@@@@@@@@@@@@@@@@@@@@@@@@@@@@@@@@@@@@@@@@@@@@@@@XXX@@@XX@@@@ ",
"O@@@@@@@@@@@@@@@@@@@@@@@@@@@@@@@@@@@@@@@@@@@@@@@@@@@@@@@@@@@@@@@@@@@@@@@@@@@@@@@@@@@@@@@@@@@@@@ ",
"O@@@@@@@@@@@@@@@@@@@@@@@@@@@@@@@@@@@@@@@@@@@@@@@@@@@@@@@@@@@@@@@@@@@@@@@@@@@@@@@@@@@@@@@@@@@@@@ ",
"O@@@@@@@@@@@@@@@@@@@@@@@@@@@@@@@@@@@@@@@@@@@@@@@@@@@@@@@@@@@@@@@@@@@@@@@@@@@@@@@@@@@@@@@@@@@@@@ ",
"O@@@@@@@@@@@@@@@@@@@@@@@@@@@@@@@@@@@@@@@@@@@@@@@@@@@@@@@@@@@@@@@@@@@@@@@@@@@@@@@@@@@@@@@@@@@@@@ ",
".@@@@@@@@@@@@@@@@@@@@@@@@@@@@@@@@@@@@@@@@@@@@@@@@@@@@@@@@@@@@@@@@@@@@@@@@@@@@@@@@@@@@@@@@@@@@@@ ",
".@@@@@@@@@@@@@@@@@@@@@@@@@@@@@@@@@@@@@@@@@@@@@@@@@@@@@@@@@@@@@@@@@@@@@@@@@@@@@@@@@@@@@@@@@@@@@@ ",
".@@@@@@@@@@@@@@@@@@@@@@@@@@@@@@@@@@@@@@@@@@@@@@@@@@@@@@@@@@@@@@@@@@@@@@@@@@@@@@@@@@@@@@@@@@@@@@ ",
"$  .........................................................................................   $"
};
