/* XPM */
static char *result[] = {
/* columns rows colors chars-per-pixel */
"96 144 9 1 ",
"  c #5A2314",
". c #724930",
"X c #190657",
"o c #95714B",
"O c #C08B4C",
"+ c #3F3B93",
"@ c #E4C19C",
"# c #F6DCAF",
"$ c None",
/* pixels */
"$OOOOOOOOOOOOOOOOOOOOOOOOOOOOOOOOOOOOOOOOOOOOOOOOOOOOOOOOOOOOOOOOOOOOOOOOOOOOOOOOOOOOOOOOOOOOOO$",
"O@@@@@@@@@@@@@@@@@@@@@@@@@@@@@@@@@@@@@@@@@@@@@@@@@@@@@@@@@@@@@@@@@@@@@@@@@@@@@@@@@@@@@@@@@@@@@@O",
"O############################################################################################@@O",
"O@@@@@@@@@@@@@@@@@@@@@@@@@@@@@@@@@@@@@@@@@@@@@@@@@@@@@@@@@@@@@@@@@@@@@@@@@@@@@@@@@@@@@@@@@@@@@@O",
"O#############################################################################################@O",
"O#############################################################################################@O",
"O@@@@@@@@@@@@@@@@@@@@@@@@@@@@@@@@@@@@@@@@@@@@@@@@@@@@@@@@@@@@@@@@@@@@@@@@@@@@@@@@@@@@@@@@@@@@@@O",
"O#############################################################################################@O",
"O####XX###XXX#################################################################################@O",
"O###XXX##XXXXX################################################################################@O",
"O##XXXX#XXX#XXX###############################################################################@O",
"O##XXXX#XX###XX###############################################################################@O",
"O####XX#XX###XX###############################################################################@O",
"O####XX#XX###XX###############################################################################@O",
"O####XX#XX###XX###############################################################################@O",
"O####XX#XX###XX###############################################################################@O",
"O####XX#XX###XX###############################################################################@O",
"@####XX#XXX#XXX###############################################################################@O",
"O####XX##XXXXX################################################################################@O",
"O####XX###XXX#################################################################################@O",
"@#############################################################################################@O",
"O######XXXX###################################################################################@O",
"@#####X++++X##################################################################################@O",
"@####X++++++X#################################################################################@O",
"@####X++++++X#################################################################################@O",
"@####X++++++X#################################################################################@O",
"@####X++++++X#################################################################################@O",
"@##XX#X++++X#XX###############################################################################@O",
"@#XXXXXXXXXXXXXX#############XXXX##############################XXXX###########################@o",
"@X++++++++++++++X###########X++++X############################X++++X##########################@O",
"@XXXXXXXXXXXXXXXX##########X++++++X##########################X++++++X#########################@O",
"@XXXXXXXXXXXXXXXX##########X++++++X##########################X++++++X#########################@o",
"@XXXXXXXXXXXXXXXX##########X++++++X##########################X++++++X#########################@O",
"@#XXXXXXXXXXXXXX###########X++++++X##########################X++++++X#########################@o",
"@##XXX#XXXX#XXX##########XX#X++++X#XX######################XX#X++++X#XX#######################@o",
"@#####XXXXXX############XXXXXXXXXXXXXX####################XXXXXXXXXXXXXX######################@O",
"@####XXXXXXXX##########X++++++++++++++X##################X++++++++++++++X#####################@o",
"@######################XXXXXXXXXXXXXXXX##################XXXXXXXXXXXXXXXX#####################@o",
"@######################XXXXXXXXXXXXXXXX##################XXXXXXXXXXXXXXXX#####################@o",
"@######################XXXXXXXXXXXXXXXX#######XXXX#######XXXXXXXXXXXXXXXX#####################@o",
"@#######################XXXXXXXXXXXXXX#######X++++X#######XXXXXXXXXXXXXX######################@o",
"@########################XXX#XXXX#XXX#######X++++++X#######XXX#XXXX#XXX#######################@o",
"@###########################XXXXXX##########X++++++X##########XXXXXX##########################@o",
"@##########################XXXXXXXX#########X++++++X#########XXXXXXXX#########################@o",
"@###########################################X++++++X##########################################@o",
"@#########################################XX#X++++X#XX########################################@o",
"@########################################XXXXXXXXXXXXXX#######################################@o",
"@#######################################X++++++++++++++X######################################@o",
"@#######################################XXXXXXXXXXXXXXXX######################################@o",
"@#######################################XXXXXXXXXXXXXXXX######################################@o",
"@#######################################XXXXXXXXXXXXXXXX######################################@o",
"@########################################XXXXXXXXXXXXXX#######################################@o",
"@#########################################XXX#XXXX#XXX########################################@ ",
"@############################XXXX############XXXXXX############XXXX###########################@o",
"@###########################X++++X##########XXXXXXXX##########X++++X##########################@o",
"O##########################X++++++X##########################X++++++X#########################@ ",
"@##########################X++++++X##########################X++++++X#########################@o",
"O##########################X++++++X##########################X++++++X#########################@ ",
"O##########################X++++++X##########################X++++++X#########################@ ",
"@########################XX#X++++X#XX######################XX#X++++X#XX#######################@o",
"O#######################XXXXXXXXXXXXXX####################XXXXXXXXXXXXXX######################@ ",
"O######################X++++++++++++++X##################X++++++++++++++X#####################@ ",
"O######################XXXXXXXXXXXXXXXX##################XXXXXXXXXXXXXXXX#####################@ ",
"O######################XXXXXXXXXXXXXXXX##################XXXXXXXXXXXXXXXX#####################@ ",
"O######################XXXXXXXXXXXXXXXX##################XXXXXXXXXXXXXXXX#####################@ ",
"O#######################XXXXXXXXXXXXXX####################XXXXXXXXXXXXXX######################@ ",
"O########################XXX#XXXX#XXX######################XXX#XXXX#XXX#######################@ ",
"O###########################XXXXXX############################XXXXXX##########################@ ",
"O##########################XXXXXXXX##########################XXXXXXXX#########################@ ",
"O#############################################################################################@ ",
"O#############################################################################################@ ",
"O#############################################################################################@ ",
"O#############################################################################################@ ",
"O#############################################################################################@ ",
"O#############################################################################################@ ",
"O##########################XXXXXXXX##########################XXXXXXXX#########################@ ",
"O###########################XXXXXX############################XXXXXX##########################@ ",
"O########################XXX#XXXX#XXX######################XXX#XXXX#XXX#######################@ ",
"O#######################XXXXXXXXXXXXXX####################XXXXXXXXXXXXXX######################@ ",
"O######################XXXXXXXXXXXXXXXX##################XXXXXXXXXXXXXXXX#####################@ ",
"O######################XXXXXXXXXXXXXXXX##################XXXXXXXXXXXXXXXX#####################@ ",
"O######################XXXXXXXXXXXXXXXX##################XXXXXXXXXXXXXXXX#####################@ ",
"O######################X++++++++++++++X##################X++++++++++++++X#####################@ ",
"O#######################XXXXXXXXXXXXXX####################XXXXXXXXXXXXXX######################@ ",
"O########################XX#X++++X#XX######################XX#X++++X#XX#######################@ ",
"O##########################X++++++X##########################X++++++X#########################@ ",
"O##########################X++++++X##########################X++++++X#########################@ ",
"O##########################X++++++X##########################X++++++X#########################@ ",
"O##########################X++++++X##########################X++++++X#########################@ ",
"O###########################X++++X##########XXXXXXXX##########X++++X##########################@ ",
"O############################XXXX############XXXXXX############XXXX###########################@ ",
"O#########################################XXX#XXXX#XXX########################################@ ",
"O########################################XXXXXXXXXXXXXX#######################################@ ",
"O#######################################XXXXXXXXXXXXXXXX######################################@ ",
"O#######################################XXXXXXXXXXXXXXXX######################################@ ",
"O#######################################XXXXXXXXXXXXXXXX######################################@ ",
"O#######################################X++++++++++++++X######################################@ ",
"O########################################XXXXXXXXXXXXXX#######################################@ ",
"O#########################################XX#X++++X#XX########################################@ ",
"O###########################################X++++++X##########################################@ ",
"O##########################XXXXXXXX#########X++++++X#########XXXXXXXX#########################@ ",
"O###########################XXXXXX##########X++++++X##########XXXXXX##########################@ ",
"O########################XXX#XXXX#XXX#######X++++++X#######XXX#XXXX#XXX#######################@ ",
"O#######################XXXXXXXXXXXXXX#######X++++X#######XXXXXXXXXXXXXX######################@ ",
"O######################XXXXXXXXXXXXXXXX#######XXXX#######XXXXXXXXXXXXXXXX#####################@ ",
"O######################XXXXXXXXXXXXXXXX##################XXXXXXXXXXXXXXXX#####################@ ",
"O@@@@@@@@@@@@@@@@@@@@@@XXXXXXXXXXXXXXXX@@@@@@@@@@@@@@@@@@XXXXXXXXXXXXXXXX@@@@@@@@@@@@@@@@@@@@@@ ",
"O######################X++++++++++++++X##################X++++++++++++++X##########XXXXXXXX###@ ",
"O#######################XXXXXXXXXXXXXX####################XXXXXXXXXXXXXX############XXXXXX####@ ",
"O########################XX#X++++X#XX######################XX#X++++X#XX##########XXX#XXXX#XXX#@ ",
"O@@@@@@@@@@@@@@@@@@@@@@@@@@X++++++X@@@@@@@@@@@@@@@@@@@@@@@@@@X++++++X@@@@@@@@@@@XXXXXXXXXXXXXX@ ",
"O##########################X++++++X##########################X++++++X##########XXXXXXXXXXXXXXXX ",
"O##########################X++++++X##########################X++++++X##########XXXXXXXXXXXXXXXX ",
"O@@@@@@@@@@@@@@@@@@@@@@@@@@X++++++X@@@@@@@@@@@@@@@@@@@@@@@@@@X++++++X@@@@@@@@@@XXXXXXXXXXXXXXXX ",
"O###########################X++++X############################X++++X###########X++++++++++++++X ",
"o@@@@@@@@@@@@@@@@@@@@@@@@@@@@XXXX@@@@@@@@@@@@@@@@@@@@@@@@@@@@@@XXXX@@@@@@@@@@@@@XXXXXXXXXXXXXX@ ",
"o################################################################################XX#X++++X#XX#@ ",
"o@@@@@@@@@@@@@@@@@@@@@@@@@@@@@@@@@@@@@@@@@@@@@@@@@@@@@@@@@@@@@@@@@@@@@@@@@@@@@@@@@@X++++++X@@@@ ",
"o@@@@@@@@@@@@@@@@@@@@@@@@@@@@@@@@@@@@@@@@@@@@@@@@@@@@@@@@@@@@@@@@@@@@@@@@@@@@@@@@@@X++++++X@@@@ ",
"o##################################################################################X++++++X###@ ",
"o@@@@@@@@@@@@@@@@@@@@@@@@@@@@@@@@@@@@@@@@@@@@@@@@@@@@@@@@@@@@@@@@@@@@@@@@@@@@@@@@@@X++++++X@@@@ ",
"o@@@@@@@@@@@@@@@@@@@@@@@@@@@@@@@@@@@@@@@@@@@@@@@@@@@@@@@@@@@@@@@@@@@@@@@@@@@@@@@@@@@X++++X@@@@@ ",
"o@@@@@@@@@@@@@@@@@@@@@@@@@@@@@@@@@@@@@@@@@@@@@@@@@@@@@@@@@@@@@@@@@@@@@@@@@@@@@@@@@@@@XXXX@@@@@@ ",
"o#############################################################################################@ ",
"o@@@@@@@@@@@@@@@@@@@@@@@@@@@@@@@@@@@@@@@@@@@@@@@@@@@@@@@@@@@@@@@@@@@@@@@@@@@@@@@@@@XXX@@@XX@@@@ ",
"o@@@@@@@@@@@@@@@@@@@@@@@@@@@@@@@@@@@@@@@@@@@@@@@@@@@@@@@@@@@@@@@@@@@@@@@@@@@@@@@@@XXXXX@@XX@@@@ ",
"o@@@@@@@@@@@@@@@@@@@@@@@@@@@@@@@@@@@@@@@@@@@@@@@@@@@@@@@@@@@@@@@@@@@@@@@@@@@@@@@@XXX@XXX@XX@@@@ ",
"o@@@@@@@@@@@@@@@@@@@@@@@@@@@@@@@@@@@@@@@@@@@@@@@@@@@@@@@@@@@@@@@@@@@@@@@@@@@@@@@@XX@@@XX@XX@@@@ ",
"o@@@@@@@@@@@@@@@@@@@@@@@@@@@@@@@@@@@@@@@@@@@@@@@@@@@@@@@@@@@@@@@@@@@@@@@@@@@@@@@@XX@@@XX@XX@@@@ ",
"o@@@@@@@@@@@@@@@@@@@@@@@@@@@@@@@@@@@@@@@@@@@@@@@@@@@@@@@@@@@@@@@@@@@@@@@@@@@@@@@@XX@@@XX@XX@@@@ ",
"o@@@@@@@@@@@@@@@@@@@@@@@@@@@@@@@@@@@@@@@@@@@@@@@@@@@@@@@@@@@@@@@@@@@@@@@@@@@@@@@@XX@@@XX@XX@@@@ ",
"o@@@@@@@@@@@@@@@@@@@@@@@@@@@@@@@@@@@@@@@@@@@@@@@@@@@@@@@@@@@@@@@@@@@@@@@@@@@@@@@@XX@@@XX@XX@@@@ ",
"o@@@@@@@@@@@@@@@@@@@@@@@@@@@@@@@@@@@@@@@@@@@@@@@@@@@@@@@@@@@@@@@@@@@@@@@@@@@@@@@@XX@@@XX@XXXX@@ ",
"o@@@@@@@@@@@@@@@@@@@@@@@@@@@@@@@@@@@@@@@@@@@@@@@@@@@@@@@@@@@@@@@@@@@@@@@@@@@@@@@@XXX@XXX@XXXX@@ ",
"o@@@@@@@@@@@@@@@@@@@@@@@@@@@@@@@@@@@@@@@@@@@@@@@@@@@@@@@@@@@@@@@@@@@@@@@@@@@@@@@@@XXXXX@@XXX@@@ ",
"o@@@@@@@@@@@@@@@@@@@@@@@@@@@@@@@@@@@@@@@@@@@@@@@@@@@@@@@@@@@@@@@@@@@@@@@@@@@@@@@@@@XXX@@@XX@@@@ ",
"o@@@@@@@@@@@@@@@@@@@@@@@@@@@@@@@@@@@@@@@@@@@@@@@@@@@@@@@@@@@@@@@@@@@@@@@@@@@@@@@@@@@@@@@@@@@@@@ ",
"o@@@@@@@@@@@@@@@@@@@@@@@@@@@@@@@@@@@@@@@@@@@@@@@@@@@@@@@@@@@@@@@@@@@@@@@@@@@@@@@@@@@@@@@@@@@@@@ ",
"o@@@@@@@@@@@@@@@@@@@@@@@@@@@@@@@@@@@@@@@@@@@@@@@@@@@@@@@@@@@@@@@@@@@@@@@@@@@@@@@@@@@@@@@@@@@@@@ ",
"o@@@@@@@@@@@@@@@@@@@@@@@@@@@@@@@@@@@@@@@@@@@@@@@@@@@@@@@@@@@@@@@@@@@@@@@@@@@@@@@@@@@@@@@@@@@@@@ ",
".@@@@@@@@@@@@@@@@@@@@@@@@@@@@@@@@@@@@@@@@@@@@@@@@@@@@@@@@@@@@@@@@@@@@@@@@@@@@@@@@@@@@@@@@@@@@@@ ",
".@@@@@@@@@@@@@@@@@@@@@@@@@@@@@@@@@@@@@@@@@@@@@@@@@@@@@@@@@@@@@@@@@@@@@@@@@@@@@@@@@@@@@@@@@@@@@@ ",
".@@@@@@@@@@@@@@@@@@@@@@@@@@@@@@@@@@@@@@@@@@@@@@@@@@@@@@@@@@@@@@@@@@@@@@@@@@@@@@@@@@@@@@@@@@@@@@ ",
"$  .........................................................................................   $"
};
