/* XPM */
static char *f29f490fd0884ffad212fb6689265174ev28auAxv0b8PC8T[] = {
/* columns rows colors chars-per-pixel */
"96 144 9 1 ",
"  c None",
". c #5A2314",
"X c #724930",
"o c #BF1929",
"O c #E43B00",
"+ c #95714B",
"@ c #C08B4C",
"# c #E4C19C",
"$ c #F6DCAF",
/* pixels */
" @@@@@@@@@@@@@@@@@@@@@@@@@@@@@@@@@@@@@@@@@@@@@@@@@@@@@@@@@@@@@@@@@@@@@@@@@@@@@@@@@@@@@@@@@@@@@@ ",
"@##############################################################################################@",
"@$$$$$$$$$$$$$$$$$$$$$$$$$$$$$$$$$$$$$$$$$$$$$$$$$$$$$$$$$$$$$$$$$$$$$$$$$$$$$$$$$$$$$$$$$$$$##@",
"@##############################################################################################@",
"@$$$$$$$$$$$$$$$$$$$$$$$$$$$$$$$$$$$$$$$$$$$$$$$$$$$$$$$$$$$$$$$$$$$$$$$$$$$$$$$$$$$$$$$$$$$$$#@",
"@$$$$$$$$$$$$$$$$$$$$$$$$$$$$$$$$$$$$$$$$$$$$$$$$$$$$$$$$$$$$$$$$$$$$$$$$$$$$$$$$$$$$$$$$$$$$$#@",
"@##############################################################################################@",
"@$$$$$$$$$$$$$$$$$$$$$$$$$$$$$$$$$$$$$$$$$$$$$$$$$$$$$$$$$$$$$$$$$$$$$$$$$$$$$$$$$$$$$$$$$$$$$#@",
"@$$$$oo$$$ooo$$$$$$$$$$$$$$$$$$$$$$$$$$$$$$$$$$$$$$$$$$$$$$$$$$$$$$$$$$$$$$$$$$$$$$$$$$$$$$$$$#@",
"@$$$ooo$$ooooo$$$$$$$$$$$$$$$$$$$$$$$$$$$$$$$$$$$$$$$$$$$$$$$$$$$$$$$$$$$$$$$$$$$$$$$$$$$$$$$$#@",
"@$$oooo$ooo$ooo$$$$$$$$$$$$$$$$$$$$$$$$$$$$$$$$$$$$$$$$$$$$$$$$$$$$$$$$$$$$$$$$$$$$$$$$$$$$$$$#@",
"@$$oooo$oo$$$oo$$$$$$$$$$$$$$$$$$$$$$$$$$$$$$$$$$$$$$$$$$$$$$$$$$$$$$$$$$$$$$$$$$$$$$$$$$$$$$$#@",
"@$$$$oo$oo$$$oo$$$$$$$$$$$$$$$$$$$$$$$$$$$$$$$$$$$$$$$$$$$$$$$$$$$$$$$$$$$$$$$$$$$$$$$$$$$$$$$#@",
"@$$$$oo$oo$$$oo$$$$$$$$$$$$$$$$$$$$$$$$$$$$$$$$$$$$$$$$$$$$$$$$$$$$$$$$$$$$$$$$$$$$$$$$$$$$$$$#@",
"@$$$$oo$oo$$$oo$$$$$$$$$$$$$$$$$$$$$$$$$$$$$$$$$$$$$$$$$$$$$$$$$$$$$$$$$$$$$$$$$$$$$$$$$$$$$$$#@",
"@$$$$oo$oo$$$oo$$$$$$$$$$$$$$$$$$$$$$$$$$$$$$$$$$$$$$$$$$$$$$$$$$$$$$$$$$$$$$$$$$$$$$$$$$$$$$$#@",
"@$$$$oo$oo$$$oo$$$$$$$$$$$$$$$$$$$$$$$$$$$$$$$$$$$$$$$$$$$$$$$$$$$$$$$$$$$$$$$$$$$$$$$$$$$$$$$#@",
"#$$$$oo$ooo$ooo$$$$$$$$$$$$$$$$$$$$$$$$$$$$$$$$$$$$$$$$$$$$$$$$$$$$$$$$$$$$$$$$$$$$$$$$$$$$$$$#@",
"@$$$$oo$$ooooo$$$$$$$$$$$$$$$$$$$$$$$$$$$$$$$$$$$$$$$$$$$$$$$$$$$$$$$$$$$$$$$$$$$$$$$$$$$$$$$$#@",
"@$$$$oo$$$ooo$$$$$$$$$$$$$$$$$$$$$$$$$$$$$$$$$$$$$$$$$$$$$$$$$$$$$$$$$$$$$$$$$$$$$$$$$$$$$$$$$#@",
"#$$$$$$$$$$$$$$$$$$$$$$$$$$$$$$$$$$$$$$$$$$$$$$$$$$$$$$$$$$$$$$$$$$$$$$$$$$$$$$$$$$$$$$$$$$$$$#@",
"@$$$$$$$oo$$$$$$$$$$$$$$$$$$$$$$$$$$$$$$$$$$$$$$$$$$$$$$$$$$$$$$$$$$$$$$$$$$$$$$$$$$$$$$$$$$$$#@",
"#$$$$$$oOOo$$$$$$$$$$$$$$$$$$$$$$$$$$$$$$$$$$$$$$$$$$$$$$$$$$$$$$$$$$$$$$$$$$$$$$$$$$$$$$$$$$$#@",
"#$$$$$oOOOOo$$$$$$$$$$$$$$$$$$$$$$$$$$$$$$$$$$$$$$$$$$$$$$$$$$$$$$$$$$$$$$$$$$$$$$$$$$$$$$$$$$#@",
"#$$$$oOOOOOOo$$$$$$$$$$$$$$$$$$$$$$$$$$$$$$$$$$$$$$$$$$$$$$$$$$$$$$$$$$$$$$$$$$$$$$$$$$$$$$$$$#@",
"#$$$oOOOOOOOOo$$$$$$$$$$$$$$$$$$$$$$$$$$$$$$$$$$$$$$$$$$$$$$$$$$$$$$$$$$$$$$$$$$$$$$$$$$$$$$$$#@",
"#$$oOOOOOOOOOOo$$$$$$$$$$$$$$$$$$$$$$$$$$$$$$$$$$$$$$$$$$$$$$$$$$$$$$$$$$$$$$$$$$$$$$$$$$$$$$$#@",
"#$oOOOOOOOOOOOOo$$$$$$$$$$$$$$$$$$$$$$$$$$$$$$$$$$$$$$$$$$$$$$$$$$$$$$$$$$$$$$$$$$$$$$$$$$$$$$#@",
"#oooooooooooooooo$$$$$$$$$$$$$oo$$$$$$$$$$$$$$$$$$$$$$$$$$$$$$$$oo$$$$$$$$$$$$$$$$$$$$$$$$$$$$#+",
"#oOOOOOOOOOOOOOOo$$$$$$$$$$$$oOOo$$$$$$$$$$$$$$$$$$$$$$$$$$$$$$oOOo$$$$$$$$$$$$$$$$$$$$$$$$$$$#@",
"#$oooooooooooooo$$$$$$$$$$$$oOOOOo$$$$$$$$$$$$$$$$$$$$$$$$$$$$oOOOOo$$$$$$$$$$$$$$$$$$$$$$$$$$#@",
"#$$oooooooooooo$$$$$$$$$$$$oOOOOOOo$$$$$$$$$$$$$$$$$$$$$$$$$$oOOOOOOo$$$$$$$$$$$$$$$$$$$$$$$$$#+",
"#$$$oooooooooo$$$$$$$$$$$$oOOOOOOOOo$$$$$$$$$$$$$$$$$$$$$$$$oOOOOOOOOo$$$$$$$$$$$$$$$$$$$$$$$$#@",
"#$$$$oooooooo$$$$$$$$$$$$oOOOOOOOOOOo$$$$$$$$$$$$$$$$$$$$$$oOOOOOOOOOOo$$$$$$$$$$$$$$$$$$$$$$$#+",
"#$$$$$oooooo$$$$$$$$$$$$oOOOOOOOOOOOOo$$$$$$$$$$$$$$$$$$$$oOOOOOOOOOOOOo$$$$$$$$$$$$$$$$$$$$$$#+",
"#$$$$$$oooo$$$$$$$$$$$$oooooooooooooooo$$$$$$$$$$$$$$$$$$oooooooooooooooo$$$$$$$$$$$$$$$$$$$$$#@",
"#$$$$$$$oo$$$$$$$$$$$$$oOOOOOOOOOOOOOOo$$$$$$$$$$$$$$$$$$oOOOOOOOOOOOOOOo$$$$$$$$$$$$$$$$$$$$$#+",
"#$$$$$$$$$$$$$$$$$$$$$$$oooooooooooooo$$$$$$$$$$$$$$$$$$$$oooooooooooooo$$$$$$$$$$$$$$$$$$$$$$#+",
"#$$$$$$$$$$$$$$$$$$$$$$$$oooooooooooo$$$$$$$$$$$$$$$$$$$$$$oooooooooooo$$$$$$$$$$$$$$$$$$$$$$$#+",
"#$$$$$$$$$$$$$$$$$$$$$$$$$oooooooooo$$$$$$$$$$$oo$$$$$$$$$$$oooooooooo$$$$$$$$$$$$$$$$$$$$$$$$#+",
"#$$$$$$$$$$$$$$$$$$$$$$$$$$oooooooo$$$$$$$$$$$oOOo$$$$$$$$$$$oooooooo$$$$$$$$$$$$$$$$$$$$$$$$$#+",
"#$$$$$$$$$$$$$$$$$$$$$$$$$$$oooooo$$$$$$$$$$$oOOOOo$$$$$$$$$$$oooooo$$$$$$$$$$$$$$$$$$$$$$$$$$#+",
"#$$$$$$$$$$$$$$$$$$$$$$$$$$$$oooo$$$$$$$$$$$oOOOOOOo$$$$$$$$$$$oooo$$$$$$$$$$$$$$$$$$$$$$$$$$$#+",
"#$$$$$$$$$$$$$$$$$$$$$$$$$$$$$oo$$$$$$$$$$$oOOOOOOOOo$$$$$$$$$$$oo$$$$$$$$$$$$$$$$$$$$$$$$$$$$#+",
"#$$$$$$$$$$$$$$$$$$$$$$$$$$$$$$$$$$$$$$$$$oOOOOOOOOOOo$$$$$$$$$$$$$$$$$$$$$$$$$$$$$$$$$$$$$$$$#+",
"#$$$$$$$$$$$$$$$$$$$$$$$$$$$$$$$$$$$$$$$$oOOOOOOOOOOOOo$$$$$$$$$$$$$$$$$$$$$$$$$$$$$$$$$$$$$$$#+",
"#$$$$$$$$$$$$$$$$$$$$$$$$$$$$$$$$$$$$$$$oooooooooooooooo$$$$$$$$$$$$$$$$$$$$$$$$$$$$$$$$$$$$$$#+",
"#$$$$$$$$$$$$$$$$$$$$$$$$$$$$$$$$$$$$$$$oOOOOOOOOOOOOOOo$$$$$$$$$$$$$$$$$$$$$$$$$$$$$$$$$$$$$$#+",
"#$$$$$$$$$$$$$$$$$$$$$$$$$$$$$$$$$$$$$$$$oooooooooooooo$$$$$$$$$$$$$$$$$$$$$$$$$$$$$$$$$$$$$$$#+",
"#$$$$$$$$$$$$$$$$$$$$$$$$$$$$$$$$$$$$$$$$$oooooooooooo$$$$$$$$$$$$$$$$$$$$$$$$$$$$$$$$$$$$$$$$#+",
"#$$$$$$$$$$$$$$$$$$$$$$$$$$$$$$$$$$$$$$$$$$oooooooooo$$$$$$$$$$$$$$$$$$$$$$$$$$$$$$$$$$$$$$$$$#+",
"#$$$$$$$$$$$$$$$$$$$$$$$$$$$$$$$$$$$$$$$$$$$oooooooo$$$$$$$$$$$$$$$$$$$$$$$$$$$$$$$$$$$$$$$$$$#+",
"#$$$$$$$$$$$$$$$$$$$$$$$$$$$$$$$$$$$$$$$$$$$$oooooo$$$$$$$$$$$$$$$$$$$$$$$$$$$$$$$$$$$$$$$$$$$#.",
"#$$$$$$$$$$$$$$$$$$$$$$$$$$$$$oo$$$$$$$$$$$$$$oooo$$$$$$$$$$$$$$oo$$$$$$$$$$$$$$$$$$$$$$$$$$$$#+",
"#$$$$$$$$$$$$$$$$$$$$$$$$$$$$oOOo$$$$$$$$$$$$$$oo$$$$$$$$$$$$$$oOOo$$$$$$$$$$$$$$$$$$$$$$$$$$$#+",
"@$$$$$$$$$$$$$$$$$$$$$$$$$$$oOOOOo$$$$$$$$$$$$$$$$$$$$$$$$$$$$oOOOOo$$$$$$$$$$$$$$$$$$$$$$$$$$#.",
"#$$$$$$$$$$$$$$$$$$$$$$$$$$oOOOOOOo$$$$$$$$$$$$$$$$$$$$$$$$$$oOOOOOOo$$$$$$$$$$$$$$$$$$$$$$$$$#+",
"@$$$$$$$$$$$$$$$$$$$$$$$$$oOOOOOOOOo$$$$$$$$$$$$$$$$$$$$$$$$oOOOOOOOOo$$$$$$$$$$$$$$$$$$$$$$$$#.",
"@$$$$$$$$$$$$$$$$$$$$$$$$oOOOOOOOOOOo$$$$$$$$$$$$$$$$$$$$$$oOOOOOOOOOOo$$$$$$$$$$$$$$$$$$$$$$$#.",
"#$$$$$$$$$$$$$$$$$$$$$$$oOOOOOOOOOOOOo$$$$$$$$$$$$$$$$$$$$oOOOOOOOOOOOOo$$$$$$$$$$$$$$$$$$$$$$#+",
"@$$$$$$$$$$$$$$$$$$$$$$oooooooooooooooo$$$$$$$$$$$$$$$$$$oooooooooooooooo$$$$$$$$$$$$$$$$$$$$$#.",
"@$$$$$$$$$$$$$$$$$$$$$$oOOOOOOOOOOOOOOo$$$$$$$$$$$$$$$$$$oOOOOOOOOOOOOOOo$$$$$$$$$$$$$$$$$$$$$#.",
"@$$$$$$$$$$$$$$$$$$$$$$$oooooooooooooo$$$$$$$$$$$$$$$$$$$$oooooooooooooo$$$$$$$$$$$$$$$$$$$$$$#.",
"@$$$$$$$$$$$$$$$$$$$$$$$$oooooooooooo$$$$$$$$$$$$$$$$$$$$$$oooooooooooo$$$$$$$$$$$$$$$$$$$$$$$#.",
"@$$$$$$$$$$$$$$$$$$$$$$$$$oooooooooo$$$$$$$$$$$$$$$$$$$$$$$$oooooooooo$$$$$$$$$$$$$$$$$$$$$$$$#.",
"@$$$$$$$$$$$$$$$$$$$$$$$$$$oooooooo$$$$$$$$$$$$$$$$$$$$$$$$$$oooooooo$$$$$$$$$$$$$$$$$$$$$$$$$#.",
"@$$$$$$$$$$$$$$$$$$$$$$$$$$$oooooo$$$$$$$$$$$$$$$$$$$$$$$$$$$$oooooo$$$$$$$$$$$$$$$$$$$$$$$$$$#.",
"@$$$$$$$$$$$$$$$$$$$$$$$$$$$$oooo$$$$$$$$$$$$$$$$$$$$$$$$$$$$$$oooo$$$$$$$$$$$$$$$$$$$$$$$$$$$#.",
"@$$$$$$$$$$$$$$$$$$$$$$$$$$$$$oo$$$$$$$$$$$$$$$$$$$$$$$$$$$$$$$$oo$$$$$$$$$$$$$$$$$$$$$$$$$$$$#.",
"@$$$$$$$$$$$$$$$$$$$$$$$$$$$$$$$$$$$$$$$$$$$$$$$$$$$$$$$$$$$$$$$$$$$$$$$$$$$$$$$$$$$$$$$$$$$$$#.",
"@$$$$$$$$$$$$$$$$$$$$$$$$$$$$$$$$$$$$$$$$$$$$$$$$$$$$$$$$$$$$$$$$$$$$$$$$$$$$$$$$$$$$$$$$$$$$$#.",
"@$$$$$$$$$$$$$$$$$$$$$$$$$$$$$$$$$$$$$$$$$$$$$$$$$$$$$$$$$$$$$$$$$$$$$$$$$$$$$$$$$$$$$$$$$$$$$#.",
"@$$$$$$$$$$$$$$$$$$$$$$$$$$$$$$$$$$$$$$$$$$$$$$$$$$$$$$$$$$$$$$$$$$$$$$$$$$$$$$$$$$$$$$$$$$$$$#.",
"@$$$$$$$$$$$$$$$$$$$$$$$$$$$$$$$$$$$$$$$$$$$$$$$$$$$$$$$$$$$$$$$$$$$$$$$$$$$$$$$$$$$$$$$$$$$$$#.",
"@$$$$$$$$$$$$$$$$$$$$$$$$$$$$$$$$$$$$$$$$$$$$$$$$$$$$$$$$$$$$$$$$$$$$$$$$$$$$$$$$$$$$$$$$$$$$$#.",
"@$$$$$$$$$$$$$$$$$$$$$$$$$$$$$oo$$$$$$$$$$$$$$$$$$$$$$$$$$$$$$$$oo$$$$$$$$$$$$$$$$$$$$$$$$$$$$#.",
"@$$$$$$$$$$$$$$$$$$$$$$$$$$$$oooo$$$$$$$$$$$$$$$$$$$$$$$$$$$$$$oooo$$$$$$$$$$$$$$$$$$$$$$$$$$$#.",
"@$$$$$$$$$$$$$$$$$$$$$$$$$$$oooooo$$$$$$$$$$$$$$$$$$$$$$$$$$$$oooooo$$$$$$$$$$$$$$$$$$$$$$$$$$#.",
"@$$$$$$$$$$$$$$$$$$$$$$$$$$oooooooo$$$$$$$$$$$$$$$$$$$$$$$$$$oooooooo$$$$$$$$$$$$$$$$$$$$$$$$$#.",
"@$$$$$$$$$$$$$$$$$$$$$$$$$oooooooooo$$$$$$$$$$$$$$$$$$$$$$$$oooooooooo$$$$$$$$$$$$$$$$$$$$$$$$#.",
"@$$$$$$$$$$$$$$$$$$$$$$$$oooooooooooo$$$$$$$$$$$$$$$$$$$$$$oooooooooooo$$$$$$$$$$$$$$$$$$$$$$$#.",
"@$$$$$$$$$$$$$$$$$$$$$$$oooooooooooooo$$$$$$$$$$$$$$$$$$$$oooooooooooooo$$$$$$$$$$$$$$$$$$$$$$#.",
"@$$$$$$$$$$$$$$$$$$$$$$oOOOOOOOOOOOOOOo$$$$$$$$$$$$$$$$$$oOOOOOOOOOOOOOOo$$$$$$$$$$$$$$$$$$$$$#.",
"@$$$$$$$$$$$$$$$$$$$$$$oooooooooooooooo$$$$$$$$$$$$$$$$$$oooooooooooooooo$$$$$$$$$$$$$$$$$$$$$#.",
"@$$$$$$$$$$$$$$$$$$$$$$$oOOOOOOOOOOOOo$$$$$$$$$$$$$$$$$$$$oOOOOOOOOOOOOo$$$$$$$$$$$$$$$$$$$$$$#.",
"@$$$$$$$$$$$$$$$$$$$$$$$$oOOOOOOOOOOo$$$$$$$$$$$$$$$$$$$$$$oOOOOOOOOOOo$$$$$$$$$$$$$$$$$$$$$$$#.",
"@$$$$$$$$$$$$$$$$$$$$$$$$$oOOOOOOOOo$$$$$$$$$$$$$$$$$$$$$$$$oOOOOOOOOo$$$$$$$$$$$$$$$$$$$$$$$$#.",
"@$$$$$$$$$$$$$$$$$$$$$$$$$$oOOOOOOo$$$$$$$$$$$$$$$$$$$$$$$$$$oOOOOOOo$$$$$$$$$$$$$$$$$$$$$$$$$#.",
"@$$$$$$$$$$$$$$$$$$$$$$$$$$$oOOOOo$$$$$$$$$$$$$$$$$$$$$$$$$$$$oOOOOo$$$$$$$$$$$$$$$$$$$$$$$$$$#.",
"@$$$$$$$$$$$$$$$$$$$$$$$$$$$$oOOo$$$$$$$$$$$$$$oo$$$$$$$$$$$$$$oOOo$$$$$$$$$$$$$$$$$$$$$$$$$$$#.",
"@$$$$$$$$$$$$$$$$$$$$$$$$$$$$$oo$$$$$$$$$$$$$$oooo$$$$$$$$$$$$$$oo$$$$$$$$$$$$$$$$$$$$$$$$$$$$#.",
"@$$$$$$$$$$$$$$$$$$$$$$$$$$$$$$$$$$$$$$$$$$$$oooooo$$$$$$$$$$$$$$$$$$$$$$$$$$$$$$$$$$$$$$$$$$$#.",
"@$$$$$$$$$$$$$$$$$$$$$$$$$$$$$$$$$$$$$$$$$$$oooooooo$$$$$$$$$$$$$$$$$$$$$$$$$$$$$$$$$$$$$$$$$$#.",
"@$$$$$$$$$$$$$$$$$$$$$$$$$$$$$$$$$$$$$$$$$$oooooooooo$$$$$$$$$$$$$$$$$$$$$$$$$$$$$$$$$$$$$$$$$#.",
"@$$$$$$$$$$$$$$$$$$$$$$$$$$$$$$$$$$$$$$$$$oooooooooooo$$$$$$$$$$$$$$$$$$$$$$$$$$$$$$$$$$$$$$$$#.",
"@$$$$$$$$$$$$$$$$$$$$$$$$$$$$$$$$$$$$$$$$oooooooooooooo$$$$$$$$$$$$$$$$$$$$$$$$$$$$$$$$$$$$$$$#.",
"@$$$$$$$$$$$$$$$$$$$$$$$$$$$$$$$$$$$$$$$oOOOOOOOOOOOOOOo$$$$$$$$$$$$$$$$$$$$$$$$$$$$$$$$$$$$$$#.",
"@$$$$$$$$$$$$$$$$$$$$$$$$$$$$$$$$$$$$$$$oooooooooooooooo$$$$$$$$$$$$$$$$$$$$$$$$$$$$$$$$$$$$$$#.",
"@$$$$$$$$$$$$$$$$$$$$$$$$$$$$$$$$$$$$$$$$oOOOOOOOOOOOOo$$$$$$$$$$$$$$$$$$$$$$$$$$$$$$$$$$$$$$$#.",
"@$$$$$$$$$$$$$$$$$$$$$$$$$$$$$$$$$$$$$$$$$oOOOOOOOOOOo$$$$$$$$$$$$$$$$$$$$$$$$$$$$$$$$$$$$$$$$#.",
"@$$$$$$$$$$$$$$$$$$$$$$$$$$$$$oo$$$$$$$$$$$oOOOOOOOOo$$$$$$$$$$$oo$$$$$$$$$$$$$$$$$$$$$$$$$$$$#.",
"@$$$$$$$$$$$$$$$$$$$$$$$$$$$$oooo$$$$$$$$$$$oOOOOOOo$$$$$$$$$$$oooo$$$$$$$$$$$$$$$$$$$$$$$$$$$#.",
"@$$$$$$$$$$$$$$$$$$$$$$$$$$$oooooo$$$$$$$$$$$oOOOOo$$$$$$$$$$$oooooo$$$$$$$$$$$$$$$$$$$$$$$$$$#.",
"@$$$$$$$$$$$$$$$$$$$$$$$$$$oooooooo$$$$$$$$$$$oOOo$$$$$$$$$$$oooooooo$$$$$$$$$$$$$$$$$$$$$$$$$#.",
"@$$$$$$$$$$$$$$$$$$$$$$$$$oooooooooo$$$$$$$$$$$oo$$$$$$$$$$$oooooooooo$$$$$$$$$$$$$$$$$$$$$$$$#.",
"@$$$$$$$$$$$$$$$$$$$$$$$$oooooooooooo$$$$$$$$$$$$$$$$$$$$$$oooooooooooo$$$$$$$$$$$$$$$$$$$$$$$#.",
"@#######################oooooooooooooo####################oooooooooooooo#######################.",
"@$$$$$$$$$$$$$$$$$$$$$$oOOOOOOOOOOOOOOo$$$$$$$$$$$$$$$$$$oOOOOOOOOOOOOOOo$$$$$$$$$$$$$oo$$$$$$#.",
"@$$$$$$$$$$$$$$$$$$$$$$oooooooooooooooo$$$$$$$$$$$$$$$$$$oooooooooooooooo$$$$$$$$$$$$oooo$$$$$#.",
"@$$$$$$$$$$$$$$$$$$$$$$$oOOOOOOOOOOOOo$$$$$$$$$$$$$$$$$$$$oOOOOOOOOOOOOo$$$$$$$$$$$$oooooo$$$$#.",
"@########################oOOOOOOOOOOo######################oOOOOOOOOOOo############oooooooo####.",
"@$$$$$$$$$$$$$$$$$$$$$$$$$oOOOOOOOOo$$$$$$$$$$$$$$$$$$$$$$$$oOOOOOOOOo$$$$$$$$$$$$oooooooooo$$#.",
"@$$$$$$$$$$$$$$$$$$$$$$$$$$oOOOOOOo$$$$$$$$$$$$$$$$$$$$$$$$$$oOOOOOOo$$$$$$$$$$$$oooooooooooo$#.",
"@###########################oOOOOo############################oOOOOo############oooooooooooooo#.",
"@$$$$$$$$$$$$$$$$$$$$$$$$$$$$oOOo$$$$$$$$$$$$$$$$$$$$$$$$$$$$$$oOOo$$$$$$$$$$$$oOOOOOOOOOOOOOOo.",
"+#############################oo################################oo#############oooooooooooooooo.",
"+$$$$$$$$$$$$$$$$$$$$$$$$$$$$$$$$$$$$$$$$$$$$$$$$$$$$$$$$$$$$$$$$$$$$$$$$$$$$$$$oOOOOOOOOOOOOo#.",
"+################################################################################oOOOOOOOOOOo##.",
"+#################################################################################oOOOOOOOOo###.",
"+$$$$$$$$$$$$$$$$$$$$$$$$$$$$$$$$$$$$$$$$$$$$$$$$$$$$$$$$$$$$$$$$$$$$$$$$$$$$$$$$$$oOOOOOOo$$$#.",
"+###################################################################################oOOOOo#####.",
"+####################################################################################oOOo######.",
"+#####################################################################################oo#######.",
"+$$$$$$$$$$$$$$$$$$$$$$$$$$$$$$$$$$$$$$$$$$$$$$$$$$$$$$$$$$$$$$$$$$$$$$$$$$$$$$$$$$$$$$$$$$$$$#.",
"+##################################################################################ooo###oo####.",
"+#################################################################################ooooo##oo####.",
"+################################################################################ooo#ooo#oo####.",
"+################################################################################oo###oo#oo####.",
"+################################################################################oo###oo#oo####.",
"+################################################################################oo###oo#oo####.",
"+################################################################################oo###oo#oo####.",
"+################################################################################oo###oo#oo####.",
"+################################################################################oo###oo#oooo##.",
"+################################################################################ooo#ooo#oooo##.",
"+#################################################################################ooooo##ooo###.",
"+##################################################################################ooo###oo####.",
"+##############################################################################################.",
"+##############################################################################################.",
"+##############################################################################################.",
"+##############################################################################################.",
"X##############################################################################################.",
"X##############################################################################################.",
"X##############################################################################################.",
" ..XXXXXXXXXXXXXXXXXXXXXXXXXXXXXXXXXXXXXXXXXXXXXXXXXXXXXXXXXXXXXXXXXXXXXXXXXXXXXXXXXXXXXXXXX... "
};
