/* XPM */
static char *result[] = {
/* columns rows colors chars-per-pixel */
"96 144 4 1 ",
"X c #190657",
"O c #C08B4C",
"+ c #3F3B93",
"  c #006400",
/* pixels */
" OOOOOOOOOOOOOOOOOOOOOOOOOOOOOOOOOOOOOOOOOOOOOOOOOOOOOOOOOOOOOOOOOOOOOOOOOOOOOOOOOOOOOOOOOOOOOO ",
"OOOOOOOOOOOOOOOOOOOOOOOOOOOOOOOOOOOOOOOOOOOOOOOOOOOOOOOOOOOOOOOOOOOOOOOOOOOOOOOOOOOOOOOOOOOOOOOO",
"OO                                                                                            OO",
"OO                                                                                            OO",
"OO                                                                                            OO",
"OO                                                                                            OO",
"OO                                                                                            OO",
"OO                                                                                            OO",
"OO                                                                                            OO",
"OO                                                                                            OO",
"OO                                                                                            OO",
"OO                                                                                            OO",
"OO                                                                                            OO",
"OO                                                                                            OO",
"OO                                                                                            OO",
"OO                                                                                            OO",
"OO                                                                                            OO",
"OO                                                                                            OO",
"OO                                                                                            OO",
"OO                                                                                            OO",
"OO                                                                                            OO",
"OO                                                                                            OO",
"OO                                                                                            OO",
"OO                                                                                            OO",
"OO                                                                                            OO",
"OO                                                                                            OO",
"OO                                                                                            OO",
"OO                                                                                            OO",
"OO                                                                                            OO",
"OO                                                                                            OO",
"OO                                                                                            OO",
"OO                                                                                            OO",
"OO                                                                                            OO",
"OO                                                                                            OO",
"OO                                                                                            OO",
"OO                                                                                            OO",
"OO                                                                                            OO",
"OO                                                                                            OO",
"OO                                                                                            OO",
"OO                                                                                            OO",
"OO                                                                                            OO",
"OO                                                                                            OO",
"OO                                                                                            OO",
"OO                                                                                            OO",
"OO                                                                                            OO",
"OO                                                                                            OO",
"OO                                                                                            OO",
"OO                                                                                            OO",
"OO                                                                                            OO",
"OO                                                                                            OO",
"OO                                                                                            OO",
"OO                                                                                            OO",
"OO                                                                                            OO",
"OO                                            XXXXXX                                          OO",
"OO                                          XX++++++XX                                        OO",
"OO                                         X++++++++++X                                       OO",
"OO                                        X++++++++++++X                                      OO",
"OO                                        X++++++++++++X                                      OO",
"OO                                       X++++++++++++++X                                     OO",
"OO                                       X++++++++++++++X                                     OO",
"OO                                       X++++++++++++++X                                     OO",
"OO                                       X++++++++++++++X                                     OO",
"OO                                       X++++++++++++++X                                     OO",
"OO                                        X++++++++++++X                                      OO",
"OO                                         X++++++++++X                                       OO",
"OO                                    XXXX  XXXXXXXXXX  XXXX                                  OO",
"OO                                  XX++++XX++++++++++XX++++XX                                OO",
"OO                                 XXXXXXXXXXXXXXXXXXXXXXXXXXXX                               OO",
"OO                                XXXXXXXXXXXXXXXXXXXXXXXXXXXXXX                              OO",
"OO                                X++++++++++++++++++++++++++++X                              OO",
"OO                               XXXXXXXXXXXXXXXXXXXXXXXXXXXXXXXX                             OO",
"OO                               XXXXXXXXXXXXXXXXXXXXXXXXXXXXXXXX                             OO",
"OO                               XXXXXXXXXXXXXXXXXXXXXXXXXXXXXXXX                             OO",
"OO                               XXXXXXXXXXXXXXXXXXXXXXXXXXXXXXXX                             OO",
"OO                               XXXXXXXXXXXXXXXXXXXXXXXXXXXXXXXX                             OO",
"OO                                XXXXXXXXXXXXXXXXXXXXXXXXXXXXXX                              OO",
"OO                                XXXXXXXXXXXXXXXXXXXXXXXXXXXXXX                              OO",
"OO                                 XXXXXXXXXXXXXXXXXXXXXXXXXXXX                               OO",
"OO                                  XXXXXXXXXX XXXX XXXXXXXXXX                                OO",
"OO                                    XXXXXX  XXXXXX  XXXXXX                                  OO",
"OO                                           XXXXXXXX                                         OO",
"OO                                          XXXXXXXXXX                                        OO",
"OO                                         XXXXXXXXXXXX                                       OO",
"OO                                        XXXXXXXXXXXXXX                                      OO",
"OO                                        XXXXXXXXXXXXXX                                      OO",
"OO                                                                                            OO",
"OO                                                                                            OO",
"OO                                                                                            OO",
"OO                                                                                            OO",
"OO                                                                                            OO",
"OO                                                                                            OO",
"OO                                                                                            OO",
"OO                                                                                            OO",
"OO                                                                                            OO",
"OO                                                                                            OO",
"OO                                                                                            OO",
"OO                                                                                            OO",
"OO                                                                                            OO",
"OO                                                                                            OO",
"OO                                                                                            OO",
"OO                                                                                            OO",
"OO                                                                                            OO",
"OO                                                                                            OO",
"OO                                                                                            OO",
"OO                                                                                            OO",
"OO                                                                                            OO",
"OO                                                                                            OO",
"OO                                                                                            OO",
"OO                                                                                            OO",
"OO                                                                                            OO",
"OO                                                                                            OO",
"OO                                                                                            OO",
"OO                                                                                            OO",
"OO                                                                                            OO",
"OO                                                                                            OO",
"OO                                                                                            OO",
"OO                                                                                            OO",
"OO                                                                                            OO",
"OO                                                                                            OO",
"OO                                                                                            OO",
"OO                                                                                            OO",
"OO                                                                                            OO",
"OO                                                                                            OO",
"OO                                                                                            OO",
"OO                                                                                            OO",
"OO                                                                                            OO",
"OO                                                                                            OO",
"OO                                                                                            OO",
"OO                                                                                            OO",
"OO                                                                                            OO",
"OO                                                                                            OO",
"OO                                                                                            OO",
"OO                                                                                            OO",
"OO                                                                                            OO",
"OO                                                                                            OO",
"OO                                                                                            OO",
"OO                                                                                            OO",
"OO                                                                                            OO",
"OO                                                                                            OO",
"OO                                                                                            OO",
"OO                                                                                            OO",
"OO                                                                                            OO",
"OOOOOOOOOOOOOOOOOOOOOOOOOOOOOOOOOOOOOOOOOOOOOOOOOOOOOOOOOOOOOOOOOOOOOOOOOOOOOOOOOOOOOOOOOOOOOOOO",
" OOOOOOOOOOOOOOOOOOOOOOOOOOOOOOOOOOOOOOOOOOOOOOOOOOOOOOOOOOOOOOOOOOOOOOOOOOOOOOOOOOOOOOOOOOOOOO "
};
