/* XPM */
static char *result[] = {
/* columns rows colors chars-per-pixel */
"96 144 9 1 ",
"  c #5A2314",
". c #724930",
"X c #BF1929",
"o c #E43B00",
"O c #95714B",
"+ c #C08B4C",
"@ c #E4C19C",
"# c #F6DCAF",
"$ c None",
/* pixels */
"$++++++++++++++++++++++++++++++++++++++++++++++++++++++++++++++++++++++++++++++++++++++++++++++$",
"+@@@@@@@@@@@@@@@@@@@@@@@@@@@@@@@@@@@@@@@@@@@@@@@@@@@@@@@@@@@@@@@@@@@@@@@@@@@@@@@@@@@@@@@@@@@@@@+",
"+############################################################################################@@+",
"+@@@@@@@@@@@@@@@@@@@@@@@@@@@@@@@@@@@@@@@@@@@@@@@@@@@@@@@@@@@@@@@@@@@@@@@@@@@@@@@@@@@@@@@@@@@@@@+",
"+#############################################################################################@+",
"+#############################################################################################@+",
"+@@@@@@@@@@@@@@@@@@@@@@@@@@@@@@@@@@@@@@@@@@@@@@@@@@@@@@@@@@@@@@@@@@@@@@@@@@@@@@@@@@@@@@@@@@@@@@+",
"+#############################################################################################@+",
"+#########XX##################################################################################@+",
"+#########XX##################################################################################@+",
"+#########XX##################################################################################@+",
"+#########XX##################################################################################@+",
"+#########XX##################################################################################@+",
"+#########XX##################################################################################@+",
"+#########XX##################################################################################@+",
"+#########XX##################################################################################@+",
"+####XX###XX##################################################################################@+",
"@####XXX##XX##################################################################################@+",
"+#####XXXXXX##################################################################################@+",
"+######XXXX########++++++++++++++++++++++++++++++++++++++++++++++++++++++++++#################@+",
"@##################+############# ...............................  #########+#################@+",
"+###XXX####XXX#####+############# ................................  ########+#################@+",
"@#XXoooX##XoooXX###+############# ................................  ####X###+#################@+",
"@#XoooooXXoooooX###+#XX#XX###### .................................. ###XXX##+#################@+",
"@XooooooooooooooX##+#XXXXX###### ...         ...................... ##XXXXX#+#################@+",
"@XooooooooooooooX##+##XXX####### . +@@@@@@@+++  ................... ##XX#XX#+#################@+",
"@XooooooooooooooX##+###X######## .+@@@@@@@@@@@@++  ................  #######+#################@+",
"@XooooooooooooooX##+#############+@@@@@@@@@@@@@@@@++ ..............  ###X###+#################@+",
"@XXXXXXXXXXXXXXXX##+#XX#XX#######+@@@@+...@@@@@@@@@@@+ ............  ##XXX##+#################@O",
"@#XooooooooooooX###+#XXXXX######+@@@@..+++.@@@@@@@@@@@@+ .........   #XXXXX#+#################@+",
"@#XXXXXXXXXXXXXX###+##XXX#######+@++.+@@@+.@@@@.@@@@@@@@++ .......   #XX#XX#+#################@+",
"@##XXXXXXXXXXXX####+###X########.@+.@#####+@@@@@.@@@@@@@@+++ ...     #######+#################@O",
"@###XXXXXXXXXX#####+############.+ +######@+@@@@.+@@@@@@@+++++       ###X###+#################@+",
"@####XXXXXXXX######+#XX#XX######.+ ########+@@@@+.@@@@@@@@+++++      ##XXX##+#################@O",
"@#####XXXXXX#######+#XXXXX####### #########@+@@@+.@@@@@@@@@+++++     #XXXXX#+#################@O",
"@######XXXX########+##XXX######## ##########@+@@+.+@@@@@@@@@+++++   ##XX#XX#+#################@+",
"@#######XX#########+###X########+###########@+@@++.@@@@@@@@@++++++  ########+#################@O",
"@##################+############+############@.+++.@@@@@@@@@+++++++ ####X###+#################@O",
"@##################+#XX#XX#####+#############@+.++.@@@@@@@@@@++++++ ###XXX##+#################@O",
"@##################+#XXXXX#####+######@...++#@@.++ @@@@@@@@@@++++++ ##XXXXX#+#################@O",
"@##################+##XXX######+####@..+@@@##@@+.+ @@@@@@@@@@++++++ ##XX#XX#+#################@O",
"@##################+###X#######+###..+@#####@@@@.. @@@@@@@@@@@+++++ ########+#################@O",
"@##################+###########+@#..     ..@@@@@+. @@@@@@@@@@@++++ #####X###+#################@O",
"@##################+#XX#XX######+@@ ...   .@@@@@++ @@@@@@@@@@@++++ ####XXX##+#################@O",
"@##################+#XXXXX######+@@+..++ .@@@@@@++ @@@@@@@@@@@++++ ###XXXXX#+#################@O",
"@##################+##XXX######.@##@+.+@@##@@@@@...  @@@@@@@@@+++ ####XX#XX#+#################@O",
"@##################+###X#######+###########@@@@+@@@@@ @@@@@@@@++ ###########+#################@O",
"@##################+##########+############@@@+@@@@@@@@@@@@@@@++ #######X###+#################@O",
"@##################+#XX#XX###+#############@@@+@@@@@@@@@@@@@@@+  ######XXX##+#################@O",
"@##################+#XXXXX##+#############@@@@+@@@@@@@++@@@@@@+ + ####XXXXX#+#################@O",
"@##################+##XXX###.#@@#########@@@@@.@@@@@@+++@@@@@+++++ ###XX#XX#+#################@O",
"@##################+###X#####  @#########@@@@@.+@@@+++  @@++++++++ #########+#################@O",
"@##################+########### #########@@@@@ .++++@ @@@@@+++ +++ #####X###+#################@ ",
"@##################+#XX#XX##### #########@@@@@@ ..@@ +@@@@@@++ +++ ####XXX##+#################@O",
"@##################+#XXXXX####.@#########@@@@@@@     +@@@@@@@+ +++ ###XXXXX#+#################@O",
"+##################+##XXX#####.@##########@@@@@@@++.+++@@@@@@++ + ####XX#XX#+#################@ ",
"@##################+###X#######.+..#######@@@@@@@@+.+++@@@@@@++  ###########+#################@O",
"+##################+###########.@@@+######@@@@@@@@++.+++@@@@++@ ########X###+#################@ ",
"+##################+#XX#XX###### #########@@@@@@+ ++.+@+++++++@ #######XXX##+#################@ ",
"@##################+#XXXXX###### #########@@@@+  ++++.+@@+++@@+ ######XXXXX#+#################@O",
"+##################+##XXX###### @########@@@+  +++++++  +@@@@+ #######XX#XX#+#################@ ",
"+##################+###X####### @######@@@+  +++++++++++      ##############+#################@ ",
"+##################+############ @@@@@++   ++++++++++++++ ##############X###+#################@ ",
"+##################+#XX#XX#######       +++++++++++++++++ #############XXX##+#################@ ",
"+##################+#XXXXX############.+++@@@@@+++++++@++ ############XXXXX#+#################@ ",
"+##################+##XXX##############.@@@@@@@@@+++++@++      #######XX#XX#+#################@ ",
"+##################+###X###############+@###@@@@@@+++@@+         ###########+#################@ ",
"+##################+################   +@####@@@@@+++@@+           #####X###+#################@ ",
"+##################+#XX#XX#######       +#####@@@@@+@@+             ###XXX##+#################@ ",
"+##################+#XXXXX####           #####@@@@@@@                #XXXXX#+#################@ ",
"+##################+##XXX###              ++++++++                    XX#XX#+#################@ ",
"+##################+###X###                                            #####+#################@ ",
"+##################+@@@@@@@                                            @X@@@+#################@ ",
"+##################+#XX#XX#                                            XXX##+#################@ ",
"+##################+#XXXXX##                    ++++++++              XXXXX#+#################@ ",
"+##################+@@XXX@@@@                @@@@@@@#####           @@XX@XX@+#################@ ",
"+##################+###X######             +@@+@@@@@#####+       ###########+#################@ ",
"+##################+@@@@@@@@@@@           +@@+++@@@@@####@+   @@@@@@@@@@X@@@+#################@ ",
"+##################+@XX@XX@@@@@@@         +@@+++@@@@@@###@+@@@@@@@@@@@@XXX@@+#################@ ",
"+##################+@XXXXX@@@@@@@@@      ++@+++++@@@@@@@@@.@@@@@@@@@@@XXXXX@+#################@ ",
"+##################+@@XXX@@@@@@@@@@@@@@@ ++@+++++++@@@@@+++.@@@@@@@@@@XX@XX@+#################@ ",
"+##################+@@@X@@@@@@@@@@@@@@@@ +++++++++++++++++       @@@@@@@@@@@+#################@ ",
"+##################+@@@@@@@@@@@@@@@@@@@@ ++++++++++++++   ++@@@@@ @@@@@@X@@@+#################@ ",
"+##################+@XX@XX@@@@@@@@@@      +++++++++++  +@@@######@ @@@@XXX@@+#################@ ",
"+##################+@XXXXX@@@@@@@@@ +@@@@+  +++++++  +@@@########@ @@@XXXXX@+#################@ ",
"+##################+@@XXX@@@@@@@@@ +@@+++@@+.++++  +@@@@######### @@@@XX@XX@+#################@ ",
"+##################+@@@X@@@@@@@@@@ @+++++++@+.++ +@@@@@@######### @@@@@@@@@@+#################@ ",
"+##################+@@@@@@@@@@@@@@ @++@@@@+++.++@@@@@@@@######+@@@.@@@@@X@@@+#################@ ",
"+##################+@XX@XX@@@@@@@  ++@@@@@@+++.+@@@@@@@@#######..+.@@@@XXX@@+#################@ ",
"+##################+@XXXXX@@@@@@ + ++@@@@@@+++.++@@@@@@@##########@.@@XXXXX@+#################@ ",
"+##################+@@XXX@@@@@@ +++ +@@@@@@@+     @@@@@@@#########@.@@XX@XX@+#################@ ",
"+##################+@@@X@@@@@@@ +++ ++@@@@@@+ @@.. @@@@@@######### @@@@@@@@@+#################@ ",
"+##################+@@@@@@@@@@@ +++ +++@@@@@ @++++. @@@@@######### @@@@@X@@@+#################@ ",
"+##################+@XX@XX@@@@@ ++++++++@@  +++@@@+.@@@@@#########@  @@XXX@@+#################@ ",
"+##################+@XXXXX@@@@@ +++++@@@@@+++@@@@@@.@@@@@#########@@#.XXXXX@+#################@ ",
"+##################+@@XXX@@@@@@@ + +@@@@@@++@@@@@@@+@@@@#############+XX@XX@+#################@ ",
"+##################+@@@X@@@@@@@@@  +@@@@@@@@@@@@@@@+@@@#############+@@@@@@@+#################@ ",
"+##################+@@@@@@@@@@@@@ ++@@@@@@@@@@@@@@@+@@@############+@@@@X@@@+#################@ ",
"+##################+@XX@XX@@@@@@@ ++@@@@@@@@ @@@@@+@@@@###########+@@@@XXX@@+#################@ ",
"+##################+@XXXXX@@@@@@ +++@@@@@@@@@  ...@@@@@##@@+.+@##@.@@@XXXXX@+#################@ ",
"+##################+@@XXX@@@@@@ ++++@@@@@@@@@@@ ++@@@@@@. ++..+@@+@@@@XX@XX@+#################@ ",
"+##################+@@@X@@@@@@@ ++++@@@@@@@@@@@ ++@@@@@.   ... @@+@@@@@@@@@@.#################@ ",
"+##################+@@@@@@@@@@@ ++++@@@@@@@@@@@ .+@@@@@..     ..#@+@@@@@X@@@+#################@ ",
"+##################+@XX@XX@@@@ +++++@@@@@@@@@@@ ..@@@@#####@+..###+@@@@XXX@@+#################@ ",
"+##################+@XXXXX@@@@ ++++++@@@@@@@@@@ +.+@@##@@@+..@####+@@@XXXXX@.#################@ ",
"+##################.@@XXX@@@@@ ++++++@@@@@@@@@@ ++.@@#++...@######+@@@XX@XX@.#################@ ",
"+@@@@@@@@@@@@@@@@@@+@@@X@@@@@@ ++++++@@@@@@@@@@.++.+@#############+@@@@@@@@@+@@@@@@@@@@@@@@@@@@ ",
"+##################.@@@@@@@@@@ +++++++@@@@@@@@@.+++.@############+@@@@@@X@@@.#########XX######@ ",
"+##################.@XX@XX@@@@  ++++++@@@@@@@@@.++@@+@###########+@@@@@XXX@@.########XXXX#####@ ",
"+##################.@XXXXX@@@@   +++++@@@@@@@@@+.+@@+@########## @@@@@XXXXX@.#######XXXXXX####@ ",
"+@@@@@@@@@@@@@@@@@@.++XXX++++     +++++@@@@@@@@@.+@@@+@######### +++++XX+XX+.@@@@@@XXXXXXXX@@@@ ",
"+##################.@@@X@@@@@      +++++@@@@@@@@.+@@@@+######## +.@@@@@@@@@@.#####XXXXXXXXXX##@ ",
"+##################.+++++++++       +++++@@@@@@@+.@@@@+@######+ +.++++++X+++.####XXXXXXXXXXXX#@ ",
"+@@@@@@@@@@@@@@@@@@.+XX+XX+++     ... +++@@@@@@@@.@@@@@+#####@.+@.+++++XXX++.@@@XXXXXXXXXXXXXX@ ",
"+##################.@XXXXX@@@   ....... ++@@@@@@@@.@@@@.+@@@+.++@+@@@@XXXXX@.###XooooooooooooX@ ",
"O@@@@@@@@@@@@@@@@@@.++XXX++++   ......... +@@@@@@@@@@@@.+++..@@@@+++++XX+XX+.@@XXXXXXXXXXXXXXXX ",
"O##################.+++X+++++  ............ +@@@@@@@@@@@...+@@@@++++++++++++.##XooooooooooooooX ",
"O@@@@@@@@@@@@@@@@@@.+++++++++  .............. ++@@@@@@@@@@@@@@@@++++++++X+++.@@XooooooooooooooX ",
"O@@@@@@@@@@@@@@@@@@.+XX+XX+++  ................  ++@@@@@@@@@@@@+. +++++XXX++.@@XooooooooooooooX ",
"O##################.+XXXXX++++ ...................  +++@@@@@@@+ . ++++XXXXX+.##XooooooooooooooX ",
"O@@@@@@@@@@@@@@@@@@.++XXX+++++ ......................         ... ++++XX+XX+.@@@XoooooXXoooooX@ ",
"O@@@@@@@@@@@@@@@@@@.+++X++++++ .................................. ++++++++++.@@@XXoooX@@XoooXX@ ",
"O@@@@@@@@@@@@@@@@@@.++++++++++  ................................ +++++++++++.@@@@@XXX@@@@XXX@@@ ",
"O##################.++++++++++  ................................ +++++++++++.#################@ ",
"O@@@@@@@@@@@@@@@@@@..........................................................@@@@@@@@XXXX@@@@@@ ",
"O@@@@@@@@@@@@@@@@@@@@@@@@@@@@@@@@@@@@@@@@@@@@@@@@@@@@@@@@@@@@@@@@@@@@@@@@@@@@@@@@@@@XXXXXX@@@@@ ",
"O@@@@@@@@@@@@@@@@@@@@@@@@@@@@@@@@@@@@@@@@@@@@@@@@@@@@@@@@@@@@@@@@@@@@@@@@@@@@@@@@@@@XX@@XXX@@@@ ",
"O@@@@@@@@@@@@@@@@@@@@@@@@@@@@@@@@@@@@@@@@@@@@@@@@@@@@@@@@@@@@@@@@@@@@@@@@@@@@@@@@@@@XX@@@XX@@@@ ",
"O@@@@@@@@@@@@@@@@@@@@@@@@@@@@@@@@@@@@@@@@@@@@@@@@@@@@@@@@@@@@@@@@@@@@@@@@@@@@@@@@@@@XX@@@@@@@@@ ",
"O@@@@@@@@@@@@@@@@@@@@@@@@@@@@@@@@@@@@@@@@@@@@@@@@@@@@@@@@@@@@@@@@@@@@@@@@@@@@@@@@@@@XX@@@@@@@@@ ",
"O@@@@@@@@@@@@@@@@@@@@@@@@@@@@@@@@@@@@@@@@@@@@@@@@@@@@@@@@@@@@@@@@@@@@@@@@@@@@@@@@@@@XX@@@@@@@@@ ",
"O@@@@@@@@@@@@@@@@@@@@@@@@@@@@@@@@@@@@@@@@@@@@@@@@@@@@@@@@@@@@@@@@@@@@@@@@@@@@@@@@@@@XX@@@@@@@@@ ",
"O@@@@@@@@@@@@@@@@@@@@@@@@@@@@@@@@@@@@@@@@@@@@@@@@@@@@@@@@@@@@@@@@@@@@@@@@@@@@@@@@@@@XX@@@@@@@@@ ",
"O@@@@@@@@@@@@@@@@@@@@@@@@@@@@@@@@@@@@@@@@@@@@@@@@@@@@@@@@@@@@@@@@@@@@@@@@@@@@@@@@@@@XX@@@@@@@@@ ",
"O@@@@@@@@@@@@@@@@@@@@@@@@@@@@@@@@@@@@@@@@@@@@@@@@@@@@@@@@@@@@@@@@@@@@@@@@@@@@@@@@@@@XX@@@@@@@@@ ",
"O@@@@@@@@@@@@@@@@@@@@@@@@@@@@@@@@@@@@@@@@@@@@@@@@@@@@@@@@@@@@@@@@@@@@@@@@@@@@@@@@@@@XX@@@@@@@@@ ",
"O@@@@@@@@@@@@@@@@@@@@@@@@@@@@@@@@@@@@@@@@@@@@@@@@@@@@@@@@@@@@@@@@@@@@@@@@@@@@@@@@@@@@@@@@@@@@@@ ",
"O@@@@@@@@@@@@@@@@@@@@@@@@@@@@@@@@@@@@@@@@@@@@@@@@@@@@@@@@@@@@@@@@@@@@@@@@@@@@@@@@@@@@@@@@@@@@@@ ",
"O@@@@@@@@@@@@@@@@@@@@@@@@@@@@@@@@@@@@@@@@@@@@@@@@@@@@@@@@@@@@@@@@@@@@@@@@@@@@@@@@@@@@@@@@@@@@@@ ",
"O@@@@@@@@@@@@@@@@@@@@@@@@@@@@@@@@@@@@@@@@@@@@@@@@@@@@@@@@@@@@@@@@@@@@@@@@@@@@@@@@@@@@@@@@@@@@@@ ",
".@@@@@@@@@@@@@@@@@@@@@@@@@@@@@@@@@@@@@@@@@@@@@@@@@@@@@@@@@@@@@@@@@@@@@@@@@@@@@@@@@@@@@@@@@@@@@@ ",
".@@@@@@@@@@@@@@@@@@@@@@@@@@@@@@@@@@@@@@@@@@@@@@@@@@@@@@@@@@@@@@@@@@@@@@@@@@@@@@@@@@@@@@@@@@@@@@ ",
".@@@@@@@@@@@@@@@@@@@@@@@@@@@@@@@@@@@@@@@@@@@@@@@@@@@@@@@@@@@@@@@@@@@@@@@@@@@@@@@@@@@@@@@@@@@@@@ ",
"$  .........................................................................................   $"
};
