/* XPM */
static char *_a21c8f101df4446b966a36f59feff83vKzY0Cz3kDG5QXlh[] = {
/* columns rows colors chars-per-pixel */
"96 144 9 1 ",
"  c None",
". c #5A2314",
"X c #724930",
"o c #BF1929",
"O c #E43B00",
"+ c #95714B",
"@ c #C08B4C",
"# c #E4C19C",
"$ c #F6DCAF",
/* pixels */
" @@@@@@@@@@@@@@@@@@@@@@@@@@@@@@@@@@@@@@@@@@@@@@@@@@@@@@@@@@@@@@@@@@@@@@@@@@@@@@@@@@@@@@@@@@@@@@ ",
"@##############################################################################################@",
"@$$$$$$$$$$$$$$$$$$$$$$$$$$$$$$$$$$$$$$$$$$$$$$$$$$$$$$$$$$$$$$$$$$$$$$$$$$$$$$$$$$$$$$$$$$$$##@",
"@##############################################################################################@",
"@$$$$$$$$$$$$$$$$$$$$$$$$$$$$$$$$$$$$$$$$$$$$$$$$$$$$$$$$$$$$$$$$$$$$$$$$$$$$$$$$$$$$$$$$$$$$$#@",
"@$$$$$$$$$$$$$$$$$$$$$$$$$$$$$$$$$$$$$$$$$$$$$$$$$$$$$$$$$$$$$$$$$$$$$$$$$$$$$$$$$$$$$$$$$$$$$#@",
"@##############################################################################################@",
"@$$$$$$$$$$$$$$$$$$$$$$$$$$$$$$$$$$$$$$$$$$$$$$$$$$$$$$$$$$$$$$$$$$$$$$$$$$$$$$$$$$$$$$$$$$$$$#@",
"@$$$$$$$$$oo$$$$$$$$$$$$$$$$$$$$$$$$$$$$$$$$$$$$$$$$$$$$$$$$$$$$$$$$$$$$$$$$$$$$$$$$$$$$$$$$$$#@",
"@$$$$$$$$$oo$$$$$$$$$$$$$$$$$$$$$$$$$$$$$$$$$$$$$$$$$$$$$$$$$$$$$$$$$$$$$$$$$$$$$$$$$$$$$$$$$$#@",
"@$$$$$$$$$oo$$$$$$$$$$$$$$$$$$$$$$$$$$$$$$$$$$$$$$$$$$$$$$$$$$$$$$$$$$$$$$$$$$$$$$$$$$$$$$$$$$#@",
"@$$$$$$$$$oo$$$$$$$$$$$$$$$$$$$$$$$$$$$$$$$$$$$$$$$$$$$$$$$$$$$$$$$$$$$$$$$$$$$$$$$$$$$$$$$$$$#@",
"@$$$$$$$$$oo$$$$$$$$$$$$$$$$$$$$$$$$$$$$$$$$$$$$$$$$$$$$$$$$$$$$$$$$$$$$$$$$$$$$$$$$$$$$$$$$$$#@",
"@$$$$$$$$$oo$$$$$$$$$$$$$$$$$$$$$$$$$$$$$$$$$$$$$$$$$$$$$$$$$$$$$$$$$$$$$$$$$$$$$$$$$$$$$$$$$$#@",
"@$$$$$$$$$oo$$$$$$$$$$$$$$$$$$$$$$$$$$$$$$$$$$$$$$$$$$$$$$$$$$$$$$$$$$$$$$$$$$$$$$$$$$$$$$$$$$#@",
"@$$$$$$$$$oo$$$$$$$$$$$$$$$$$$$$$$$$$$$$$$$$$$$$$$$$$$$$$$$$$$$$$$$$$$$$$$$$$$$$$$$$$$$$$$$$$$#@",
"@$$$$oo$$$oo$$$$$$$$$$$$$$$$$$$$$$$$$$$$$$$$$$$$$$$$$$$$$$$$$$$$$$$$$$$$$$$$$$$$$$$$$$$$$$$$$$#@",
"#$$$$ooo$$oo$$$$$$$$$$$$$$$$$$$$$$$$$$$$$$$$$$$$$$$$$$$$$$$$$$$$$$$$$$$$$$$$$$$$$$$$$$$$$$$$$$#@",
"@$$$$$oooooo$$$$$$$$$$$$$$$$$$$$$$$$$$$$$$$$$$$$$$$$$$$$$$$$$$$$$$$$$$$$$$$$$$$$$$$$$$$$$$$$$$#@",
"@$$$$$$oooo$$$$$$$$@@@@@@@@@@@@@@@@@@@@@@@@@@@@@@@@@@@@@@@@@@@@@@@@@@@@@@@@@@$$$$$$$$$$$$$$$$$#@",
"#$$$$$$$$$$$$$$$$$$@$$$$$$$$$$$$$.XXXXXXXXXXXXXXXXXXXXXXXXXXXXXXX..$$$$$$$$$@$$$$$$$$$$$$$$$$$#@",
"@$$$$$$$oo$$$$$$$$$@$$$$$$$$$$$$$.XXXXXXXXXXXXXXXXXXXXXXXXXXXXXXXX..$$$$$$$$@$$$$$$$$$$$$$$$$$#@",
"#$$$$$$oOOo$$$$$$$$@$$$$$$$$$$$$$.XXXXXXXXXXXXXXXXXXXXXXXXXXXXXXXX..$$$$$$$$@$$$$$$$$$$$$$$$$$#@",
"#$$$$$oOOOOo$$$$$$$@$$oo$$$$$$$$.XXXXXXXXXXXXXXXXXXXXXXXXXXXXXXXXXX.$$$$oo$$@$$$$$$$$$$$$$$$$$#@",
"#$$$$oOOOOOOo$$$$$$@$oooo$$$$$$$.XXX.........XXXXXXXXXXXXXXXXXXXXXX.$$$oooo$@$$$$$$$$$$$$$$$$$#@",
"#$$$oOOOOOOOOo$$$$$@$oooo$$$$$$$.X.@#######@@@..XXXXXXXXXXXXXXXXXXX.$$$oooo$@$$$$$$$$$$$$$$$$$#@",
"#$$oOOOOOOOOOOo$$$$@$$oo$$$$$$$$.X@############@@..XXXXXXXXXXXXXXXX..$$$oo$$@$$$$$$$$$$$$$$$$$#@",
"#$oOOOOOOOOOOOOo$$$@$$$$$$$$$$$$$@################@@.XXXXXXXXXXXXXX..$$$$$$$@$$$$$$$$$$$$$$$$$#@",
"#oooooooooooooooo$$@$$oo$$$$$$$$$@####@XXX###########@.XXXXXXXXXXXX..$$$oo$$@$$$$$$$$$$$$$$$$$#+",
"#oOOOOOOOOOOOOOOo$$@$oooo$$$$$$$@####XX@@@X############@.XXXXXXXXX...$$oooo$@$$$$$$$$$$$$$$$$$#@",
"#$oooooooooooooo$$$@$oooo$$$$$$$@#@@X@###@X####X########@@.XXXXXXX...$$oooo$@$$$$$$$$$$$$$$$$$#@",
"#$$oooooooooooo$$$$@$$oo$$$$$$$$X#@X#$$$$$@#####X########@@@.XXX.....$$$oo$$@$$$$$$$$$$$$$$$$$#+",
"#$$$oooooooooo$$$$$@$$$$$$$$$$$$X@.@$$$$$$#@####X@#######@@@@@.......$$$$$$$@$$$$$$$$$$$$$$$$$#@",
"#$$$$oooooooo$$$$$$@$$oo$$$$$$$$X@.$$$$$$$$@####@X########@@@@@......$$$oo$$@$$$$$$$$$$$$$$$$$#+",
"#$$$$$oooooo$$$$$$$@$oooo$$$$$$$$.$$$$$$$$$#@###@X#########@@@@@.....$$oooo$@$$$$$$$$$$$$$$$$$#+",
"#$$$$$$oooo$$$$$$$$@$oooo$$$$$$$$.$$$$$$$$$$#@##@X@#########@@@@@...$$$oooo$@$$$$$$$$$$$$$$$$$#@",
"#$$$$$$$oo$$$$$$$$$@$$oo$$$$$$$$@$$$$$$$$$$$#@##@@X#########@@@@@@..$$$$oo$$@$$$$$$$$$$$$$$$$$#+",
"#$$$$$$$$$$$$$$$$$$@$$$$$$$$$$$$@$$$$$$$$$$$$#X@@@X#########@@@@@@@.$$$$$$$$@$$$$$$$$$$$$$$$$$#+",
"#$$$$$$$$$$$$$$$$$$@$$oo$$$$$$$@$$$$$$$$$$$$$#@X@@X##########@@@@@@.$$$$oo$$@$$$$$$$$$$$$$$$$$#+",
"#$$$$$$$$$$$$$$$$$$@$oooo$$$$$$@$$$$$$#XXX@@$##X@@.##########@@@@@@.$$$oooo$@$$$$$$$$$$$$$$$$$#+",
"#$$$$$$$$$$$$$$$$$$@$oooo$$$$$$@$$$$#XX@###$$##@X@.##########@@@@@@.$$$oooo$@$$$$$$$$$$$$$$$$$#+",
"#$$$$$$$$$$$$$$$$$$@$$oo$$$$$$$@$$$XX@#$$$$$####XX.###########@@@@@.$$$$oo$$@$$$$$$$$$$$$$$$$$#+",
"#$$$$$$$$$$$$$$$$$$@$$$$$$$$$$$@#$XX.....XX#####@X.###########@@@@.$$$$$$$$$@$$$$$$$$$$$$$$$$$#+",
"#$$$$$$$$$$$$$$$$$$@$$oo$$$$$$$$@##.XXX...X#####@@.###########@@@@.$$$$$oo$$@$$$$$$$$$$$$$$$$$#+",
"#$$$$$$$$$$$$$$$$$$@$oooo$$$$$$$@##@XX@@.X######@@.###########@@@@.$$$$oooo$@$$$$$$$$$$$$$$$$$#+",
"#$$$$$$$$$$$$$$$$$$@$oooo$$$$$$X#$$#@X@##$$#####XXX..#########@@@.$$$$$oooo$@$$$$$$$$$$$$$$$$$#+",
"#$$$$$$$$$$$$$$$$$$@$$oo$$$$$$$@$$$$$$$$$$$####@#####.########@@.$$$$$$$oo$$@$$$$$$$$$$$$$$$$$#+",
"#$$$$$$$$$$$$$$$$$$@$$$$$$$$$$@$$$$$$$$$$$$###@###############@@.$$$$$$$$$$$@$$$$$$$$$$$$$$$$$#+",
"#$$$$$$$$$$$$$$$$$$@$$oo$$$$$@$$$$$$$$$$$$$###@###############@..$$$$$$$oo$$@$$$$$$$$$$$$$$$$$#+",
"#$$$$$$$$$$$$$$$$$$@$oooo$$$@$$$$$$$$$$$$$####@#######@@######@.@.$$$$$oooo$@$$$$$$$$$$$$$$$$$#+",
"#$$$$$$$$$$$$$$$$$$@$oooo$$$X$##$$$$$$$$$#####X######@@@#####@@@@@.$$$$oooo$@$$$$$$$$$$$$$$$$$#+",
"#$$$$$$$$$$$$$$$$$$@$$oo$$$$$..#$$$$$$$$$#####X@###@@@..##@@@@@@@@.$$$$$oo$$@$$$$$$$$$$$$$$$$$#+",
"#$$$$$$$$$$$$$$$$$$@$$$$$$$$$$$.$$$$$$$$$#####.X@@@@#.#####@@@.@@@.$$$$$$$$$@$$$$$$$$$$$$$$$$$#.",
"#$$$$$$$$$$$$$$$$$$@$$oo$$$$$$$.$$$$$$$$$######.XX##.@######@@.@@@.$$$$$oo$$@$$$$$$$$$$$$$$$$$#+",
"#$$$$$$$$$$$$$$$$$$@$oooo$$$$$X#$$$$$$$$$#######.....@#######@.@@@.$$$$oooo$@$$$$$$$$$$$$$$$$$#+",
"@$$$$$$$$$$$$$$$$$$@$oooo$$$$$X#$$$$$$$$$$#######@@X@@@######@@.@.$$$$$oooo$@$$$$$$$$$$$$$$$$$#.",
"#$$$$$$$$$$$$$$$$$$@$$oo$$$$$$$X@XX$$$$$$$########@X@@@######@@..$$$$$$$oo$$@$$$$$$$$$$$$$$$$$#+",
"@$$$$$$$$$$$$$$$$$$@$$$$$$$$$$$X###@$$$$$$########@@X@@@####@@#.$$$$$$$$$$$$@$$$$$$$$$$$$$$$$$#.",
"@$$$$$$$$$$$$$$$$$$@$$oo$$$$$$$$.$$$$$$$$$######@.@@X@#@@@@@@@#.$$$$$$$$oo$$@$$$$$$$$$$$$$$$$$#.",
"#$$$$$$$$$$$$$$$$$$@$oooo$$$$$$$.$$$$$$$$$####@..@@@@X@##@@@##@.$$$$$$$oooo$@$$$$$$$$$$$$$$$$$#+",
"@$$$$$$$$$$$$$$$$$$@$oooo$$$$$$.#$$$$$$$$###@..@@@@@@@..@####@.$$$$$$$$oooo$@$$$$$$$$$$$$$$$$$#.",
"@$$$$$$$$$$$$$$$$$$@$$oo$$$$$$$.#$$$$$$###@..@@@@@@@@@@@......$$$$$$$$$$oo$$@$$$$$$$$$$$$$$$$$#.",
"@$$$$$$$$$$$$$$$$$$@$$$$$$$$$$$$.#####@@...@@@@@@@@@@@@@@.$$$$$$$$$$$$$$$$$$@$$$$$$$$$$$$$$$$$#.",
"@$$$$$$$$$$$$$$$$$$@$$oo$$$$$$$$$.......@@@@@@@@@@@@@@@@@.$$$$$$$$$$$$$$oo$$@$$$$$$$$$$$$$$$$$#.",
"@$$$$$$$$$$$$$$$$$$@$oooo$$$$$$$$$$$$$X@@@#####@@@@@@@#@@.$$$$$$$$$$$$$oooo$@$$$$$$$$$$$$$$$$$#.",
"@$$$$$$$$$$$$$$$$$$@$oooo$$$$$$$$$$$$$$X#########@@@@@#@@......$$$$$$$$oooo$@$$$$$$$$$$$$$$$$$#.",
"@$$$$$$$$$$$$$$$$$$@$$oo$$$$$$$$$$$$$$$@#$$$######@@@##@.........$$$$$$$oo$$@$$$$$$$$$$$$$$$$$#.",
"@$$$$$$$$$$$$$$$$$$@$$$$$$$$$$$$$$$$...@#$$$$#####@@@##@...........$$$$$$$$$@$$$$$$$$$$$$$$$$$#.",
"@$$$$$$$$$$$$$$$$$$@$$oo$$$$$$$$$.......@$$$$$#####@##@.............$$$$oo$$@$$$$$$$$$$$$$$$$$#.",
"@$$$$$$$$$$$$$$$$$$@$oooo$$$$$...........$$$$$#######................$$oooo$@$$$$$$$$$$$$$$$$$#.",
"@$$$$$$$$$$$$$$$$$$@$oooo$$$..............@@@@@@@@....................$oooo$@$$$$$$$$$$$$$$$$$#.",
"@$$$$$$$$$$$$$$$$$$@$$oo$$$............................................$oo$$@$$$$$$$$$$$$$$$$$#.",
"@$$$$$$$$$$$$$$$$$$@#######............................................#####@$$$$$$$$$$$$$$$$$#.",
"@$$$$$$$$$$$$$$$$$$@$$oo$$$............................................$oo$$@$$$$$$$$$$$$$$$$$#.",
"@$$$$$$$$$$$$$$$$$$@$oooo$$$....................@@@@@@@@..............$oooo$@$$$$$$$$$$$$$$$$$#.",
"@$$$$$$$$$$$$$$$$$$@#oooo####................#######$$$$$...........###oooo#@$$$$$$$$$$$$$$$$$#.",
"@$$$$$$$$$$$$$$$$$$@$$oo$$$$$$.............@##@#####$$$$$@.......$$$$$$$oo$$@$$$$$$$$$$$$$$$$$#.",
"@$$$$$$$$$$$$$$$$$$@###########...........@##@@@#####$$$$#@...##############@$$$$$$$$$$$$$$$$$#.",
"@$$$$$$$$$$$$$$$$$$@##oo#########.........@##@@@######$$$#@#############oo##@$$$$$$$$$$$$$$$$$#.",
"@$$$$$$$$$$$$$$$$$$@#oooo##########......@@#@@@@@#########X############oooo#@$$$$$$$$$$$$$$$$$#.",
"@$$$$$$$$$$$$$$$$$$@#oooo###############.@@#@@@@@@@#####@@@X###########oooo#@$$$$$$$$$$$$$$$$$#.",
"@$$$$$$$$$$$$$$$$$$@##oo################.@@@@@@@@@@@@@@@@@.......#######oo##@$$$$$$$$$$$$$$$$$#.",
"@$$$$$$$$$$$$$$$$$$@####################.@@@@@@@@@@@@@@...@@#####.##########@$$$$$$$$$$$$$$$$$#.",
"@$$$$$$$$$$$$$$$$$$@##oo############......@@@@@@@@@@@..@###$$$$$$#.#####oo##@$$$$$$$$$$$$$$$$$#.",
"@$$$$$$$$$$$$$$$$$$@#oooo##########.@####@..@@@@@@@..@###$$$$$$$$#.####oooo#@$$$$$$$$$$$$$$$$$#.",
"@$$$$$$$$$$$$$$$$$$@#oooo#########.@##@@@##@X@@@@..@####$$$$$$$$$.#####oooo#@$$$$$$$$$$$$$$$$$#.",
"@$$$$$$$$$$$$$$$$$$@##oo##########.#@@@@@@@#@X@@.@######$$$$$$$$$.######oo##@$$$$$$$$$$$$$$$$$#.",
"@$$$$$$$$$$$$$$$$$$@##############.#@@####@@@X@@########$$$$$$@###X#########@$$$$$$$$$$$$$$$$$#.",
"@$$$$$$$$$$$$$$$$$$@##oo#########..@@######@@@X@########$$$$$$$XX@X#####oo##@$$$$$$$$$$$$$$$$$#.",
"@$$$$$$$$$$$$$$$$$$@#oooo#######.@.@@######@@@X@@#######$$$$$$$$$$#X###oooo#@$$$$$$$$$$$$$$$$$#.",
"@$$$$$$$$$$$$$$$$$$@#oooo######.@@@.@#######@.....#######$$$$$$$$$#X###oooo#@$$$$$$$$$$$$$$$$$#.",
"@$$$$$$$$$$$$$$$$$$@##oo#######.@@@.@@######@.##XX.######$$$$$$$$$.#####oo##@$$$$$$$$$$$$$$$$$#.",
"@$$$$$$$$$$$$$$$$$$@###########.@@@.@@@#####.#@@@@X.#####$$$$$$$$$.#########@$$$$$$$$$$$$$$$$$#.",
"@$$$$$$$$$$$$$$$$$$@##oo#######.@@@@@@@@##..@@@###@X#####$$$$$$$$$#..###oo##@$$$$$$$$$$$$$$$$$#.",
"@$$$$$$$$$$$$$$$$$$@#oooo######.@@@@@#####@@@######X#####$$$$$$$$$##$X#oooo#@$$$$$$$$$$$$$$$$$#.",
"@$$$$$$$$$$$$$$$$$$@#oooo#######.@.@######@@#######@####$$$$$$$$$$$$$@#oooo#@$$$$$$$$$$$$$$$$$#.",
"@$$$$$$$$$$$$$$$$$$@##oo#########..@###############@###$$$$$$$$$$$$$@###oo##@$$$$$$$$$$$$$$$$$#.",
"@$$$$$$$$$$$$$$$$$$@#############.@@###############@###$$$$$$$$$$$$@########@$$$$$$$$$$$$$$$$$#.",
"@$$$$$$$$$$$$$$$$$$@##oo#########.@@########.#####@####$$$$$$$$$$$@#####oo##@$$$$$$$$$$$$$$$$$#.",
"@$$$$$$$$$$$$$$$$$$@#oooo#######.@@@#########..XXX#####$$##@X@#$$#X####oooo#@$$$$$$$$$$$$$$$$$#.",
"@$$$$$$$$$$$$$$$$$$@#oooo######.@@@@###########.@@######X.@@XX@##@#####oooo#@$$$$$$$$$$$$$$$$$#.",
"@$$$$$$$$$$$$$$$$$$@##oo#######.@@@@###########.@@#####X...XXX.##@######oo##X$$$$$$$$$$$$$$$$$#.",
"@$$$$$$$$$$$$$$$$$$@###########.@@@@###########.X@#####XX.....XX$#@#########@$$$$$$$$$$$$$$$$$#.",
"@$$$$$$$$$$$$$$$$$$@##oo######.@@@@@###########.XX####$$$$$#@XX$$$@#####oo##@$$$$$$$$$$$$$$$$$#.",
"@$$$$$$$$$$$$$$$$$$@#oooo#####.@@@@@@##########.@X@##$$###@XX#$$$$@####oooo#X$$$$$$$$$$$$$$$$$#.",
"@$$$$$$$$$$$$$$$$$$X#oooo#####.@@@@@@##########.@@X##$@@XXX#$$$$$$@####oooo#X$$$$$$$$$$$$$$$$$#.",
"@##################@##oo######.@@@@@@##########X@@X@#$$$$$$$$$$$$$@#####oo##@##################.",
"@$$$$$$$$$$$$$$$$$$X##########.@@@@@@@#########X@@@X#$$$$$$$$$$$$@##########X$$$$$$$$$oo$$$$$$#.",
"@$$$$$$$$$$$$$$$$$$X##oo######..@@@@@@#########X@@##@#$$$$$$$$$$$@######oo##X$$$$$$$$oooo$$$$$#.",
"@$$$$$$$$$$$$$$$$$$X#oooo#####...@@@@@#########@X@##@#$$$$$$$$$$.######oooo#X$$$$$$$oooooo$$$$#.",
"@##################X@oooo@@@@.....@@@@@#########X@###@#$$$$$$$$$.@@@@@@oooo@X######oooooooo####.",
"@$$$$$$$$$$$$$$$$$$X##oo#####......@@@@@########X@####@$$$$$$$$.@X######oo##X$$$$$oooooooooo$$#.",
"@$$$$$$$$$$$$$$$$$$X@@@@@@@@@.......@@@@@#######@X####@#$$$$$$@.@X@@@@@@@@@@X$$$$oooooooooooo$#.",
"@##################X@@oo@@@@@.....XXX.@@@########X#####@$$$$$#X@#X@@@@@@oo@@X###oooooooooooooo#.",
"@$$$$$$$$$$$$$$$$$$X#oooo####...XXXXXXX.@@########X####X@###@X@@#@#####oooo#X$$oOOOOOOOOOOOOOOo.",
"+##################X@oooo@@@@...XXXXXXXXX.@############X@@@XX####@@@@@@oooo@X##oooooooooooooooo.",
"+$$$$$$$$$$$$$$$$$$X@@oo@@@@@..XXXXXXXXXXXX.@###########XXX@####@@@@@@@@oo@@X$$$oOOOOOOOOOOOOo#.",
"+##################X@@@@@@@@@..XXXXXXXXXXXXXX.@@################@@@@@@@@@@@@X####oOOOOOOOOOOo##.",
"+##################X@@oo@@@@@..XXXXXXXXXXXXXXXX..@@############@X.@@@@@@oo@@X#####oOOOOOOOOo###.",
"+$$$$$$$$$$$$$$$$$$X@oooo@@@@@.XXXXXXXXXXXXXXXXXXX..@@@#######@.X.@@@@@oooo@X$$$$$$oOOOOOOo$$$#.",
"+##################X@oooo@@@@@.XXXXXXXXXXXXXXXXXXXXXX.........XXX.@@@@@oooo@X#######oOOOOo#####.",
"+##################X@@oo@@@@@@.XXXXXXXXXXXXXXXXXXXXXXXXXXXXXXXXXX.@@@@@@oo@@X########oOOo######.",
"+##################X@@@@@@@@@@..XXXXXXXXXXXXXXXXXXXXXXXXXXXXXXXX.@@@@@@@@@@@X#########oo#######.",
"+$$$$$$$$$$$$$$$$$$X@@@@@@@@@@..XXXXXXXXXXXXXXXXXXXXXXXXXXXXXXXX.@@@@@@@@@@@X$$$$$$$$$$$$$$$$$#.",
"+##################XXXXXXXXXXXXXXXXXXXXXXXXXXXXXXXXXXXXXXXXXXXXXXXXXXXXXXXXXX########oooo######.",
"+###################################################################################oooooo#####.",
"+###################################################################################oo##ooo####.",
"+###################################################################################oo###oo####.",
"+###################################################################################oo#########.",
"+###################################################################################oo#########.",
"+###################################################################################oo#########.",
"+###################################################################################oo#########.",
"+###################################################################################oo#########.",
"+###################################################################################oo#########.",
"+###################################################################################oo#########.",
"+###################################################################################oo#########.",
"+##############################################################################################.",
"+##############################################################################################.",
"+##############################################################################################.",
"+##############################################################################################.",
"X##############################################################################################.",
"X##############################################################################################.",
"X##############################################################################################.",
" ..XXXXXXXXXXXXXXXXXXXXXXXXXXXXXXXXXXXXXXXXXXXXXXXXXXXXXXXXXXXXXXXXXXXXXXXXXXXXXXXXXXXXXXXXX... "
};
