/* XPM */
static char *_0124aecca9b41b5ce0c2ca3b04d9954JGvsk6aotzr1xph5[] = {
/* columns rows colors chars-per-pixel */
"96 144 9 1 ",
"  c None",
". c #5A2314",
"X c #724930",
"o c #BF1929",
"O c #E43B00",
"+ c #95714B",
"@ c #C08B4C",
"# c #E4C19C",
"$ c #F6DCAF",
/* pixels */
" @@@@@@@@@@@@@@@@@@@@@@@@@@@@@@@@@@@@@@@@@@@@@@@@@@@@@@@@@@@@@@@@@@@@@@@@@@@@@@@@@@@@@@@@@@@@@@ ",
"@##############################################################################################@",
"@$$$$$$$$$$$$$$$$$$$$$$$$$$$$$$$$$$$$$$$$$$$$$$$$$$$$$$$$$$$$$$$$$$$$$$$$$$$$$$$$$$$$$$$$$$$$##@",
"@##############################################################################################@",
"@$$$$$$$$$$$$$$$$$$$$$$$$$$$$$$$$$$$$$$$$$$$$$$$$$$$$$$$$$$$$$$$$$$$$$$$$$$$$$$$$$$$$$$$$$$$$$#@",
"@$$$$$$$$$$$$$$$$$$$$$$$$$$$$$$$$$$$$$$$$$$$$$$$$$$$$$$$$$$$$$$$$$$$$$$$$$$$$$$$$$$$$$$$$$$$$$#@",
"@##############################################################################################@",
"@$$$$$$$$$$$$$$$$$$$$$$$$$$$$$$$$$$$$$$$$$$$$$$$$$$$$$$$$$$$$$$$$$$$$$$$$$$$$$$$$$$$$$$$$$$$$$#@",
"@$$$oo$$$$oo$$$$$$$$$$$$$$$$$$$$$$$$$$$$$$$$$$$$$$$$$$$$$$$$$$$$$$$$$$$$$$$$$$$$$$$$$$$$$$$$$$#@",
"@$$$oo$$$$oo$$$$$$$$$$$$$$$$$$$$$$$$$$$$$$$$$$$$$$$$$$$$$$$$$$$$$$$$$$$$$$$$$$$$$$$$$$$$$$$$$$#@",
"@$$$oo$$$ooo$$$$$$$$$$$$$$$$$$$$$$$$$$$$$$$$$$$$$$$$$$$$$$$$$$$$$$$$$$$$$$$$$$$$$$$$$$$$$$$$$$#@",
"@$$$oo$$ooo$$$$$$$$$$$$$$$$$$$$$$$$$$$$$$$$$$$$$$$$$$$$$$$$$$$$$$$$$$$$$$$$$$$$$$$$$$$$$$$$$$$#@",
"@$$$oo$ooo$$$$$$$$$$$$$$$$$$$$$$$$$$$$$$$$$$$$$$$$$$$$$$$$$$$$$$$$$$$$$$$$$$$$$$$$$$$$$$$$$$$$#@",
"@$$$ooooo$$$$$$$$$$$$$$$$$$$$$$$$$$$$$$$$$$$$$$$$$$$$$$$$$$$$$$$$$$$$$$$$$$$$$$$$$$$$$$$$$$$$$#@",
"@$$$ooooo$$$$$$$$$$$$$$$$$$$$$$$$$$$$$$$$$$$$$$$$$$$$$$$$$$$$$$$$$$$$$$$$$$$$$$$$$$$$$$$$$$$$$#@",
"@$$$oo$ooo$$$$$$$$$$$$$$$$$$$$$$$$$$$$$$$$$$$$$$$$$$$$$$$$$$$$$$$$$$$$$$$$$$$$$$$$$$$$$$$$$$$$#@",
"@$$$oo$$ooo$$$$$$$$$$$$$$$$$$$$$$$$$$$$$$$$$$$$$$$$$$$$$$$$$$$$$$$$$$$$$$$$$$$$$$$$$$$$$$$$$$$#@",
"#$$$oo$$$ooo$$$$$$$$$$$$$$$$$$$$$$$$$$$$$$$$$$$$$$$$$$$$$$$$$$$$$$$$$$$$$$$$$$$$$$$$$$$$$$$$$$#@",
"@$$$oo$$$$oo$$$$$$$$$$$$$$$$$$$$$$$$$$$$$$$$$$$$$$$$$$$$$$$$$$$$$$$$$$$$$$$$$$$$$$$$$$$$$$$$$$#@",
"@$$$oo$$$$oo$$$$$$$@@@@@@@@@@@@@@@@@@@@@@@@@@@@@@@@@@@@@@@@@@@@@@@@@@@@@@@@@@$$$$$$$$$$$$$$$$$#@",
"#$$$$$$$$$$$$$$$$$$@$$$$.XXXXXXXXXXXXXXXXXXXXXXXXXXX...........$$$$$$$$$$$$$@$$$$$$$$$$$$$$$$$#@",
"@$$$$$$$oo$$$$$$$$$@$$$$.XXXXXXXXXXXXXXXXXXXXXXXXXXX...........$$$$$$$$$$$$$@$$$$$$$$$$$$$$$$$#@",
"#$$$$$$oOOo$$$$$$$$@$$$$.XXXXXXXXXXXXXXXXXXXXXXXXXX............$$$$$$$$$$$$$@$$$$$$$$$$$$$$$$$#@",
"#$$$$$oOOOOo$$$$$$$@$$oo.XXXXXX..............XXXXX.............$$$$$$$$$oo$$@$$$$$$$$$$$$$$$$$#@",
"#$$$$oOOOOOOo$$$$$$@$ooooXXXX..X@@@@@@@@@@@@X..................$$$$$$$$oooo$@$$$$$$$$$$$$$$$$$#@",
"#$$$oOOOOOOOOo$$$$$@$ooooXXX.X@@@@@@@@@@@@@@@@@X...............$$$$$$$$oooo$@$$$$$$$$$$$$$$$$$#@",
"#$$oOOOOOOOOOOo$$$$@$$oo$.X.@@@@@@@@@@@@@@@@@@@@@X.............$$$$$$$$$oo$$@$$$$$$$$$$$$$$$$$#@",
"#$oOOOOOOOOOOOOo$$$@$$$$$..@@@..............X@@@@XXX...........$$$$$$$$$$$$$@$$$$$$$$$$$$$$$$$#@",
"#oooooooooooooooo$$@$$oo$$.@@.X@@@@@XXXX..XX...XXXXXXX........$$$$$$$$$$oo$$@$$$$$$$$$$$$$$$$$#+",
"#oOOOOOOOOOOOOOOo$$@$oooo$$..@X@@@@@@@XXX.X@@XX..XXXXXX.......$$$$$$$$$oooo$@$$$$$$$$$$$$$$$$$#@",
"#$oooooooooooooo$$$@$oooo$$X@##X@@@@@@@@XX.@@@XXX..XXXXX.....$$$$$$$$$$oooo$@$$$$$$$$$$$$$$$$$#@",
"#$$oooooooooooo$$$$@$$oo$$$X####XX@@@@@@@X.X@@@XXXX..XXXX....$$$$$$$$$$$oo$$@$$$$$$$$$$$$$$$$$#+",
"#$$$oooooooooo$$$$$@$$$$$$$X$$###@XXXX@@@XX.@@@@XXXXX.XXXX..$$$$$$$$$$$$$$$$@$$$$$$$$$$$$$$$$$#@",
"#$$$$oooooooo$$$$$$@$$oo$$$X$$$$#####@XX..X.@@@@XXXXXX.XXX.$$$$$$$$$$$$$oo$$@$$$$$$$$$$$$$$$$$#+",
"#$$$$$oooooo$$$$$$$@$oooo$$X#$$$$########@..@@@@@XXXXXX....$$$$$$$$$$$$oooo$@$$$$$$$$$$$$$$$$$#+",
"#$$$$$$oooo$$$$$$$$@$oooo$$$.$$$$$$#@..XX##@X@@@@XXXXXXXXX.$$$$$$$$$$$$oooo$@$$$$$$$$$$$$$$$$$#@",
"#$$$$$$$oo$$$$$$$$$@$$oo$$$$.#$$$$@..X@@@X##X@@@@@XXXXXXXX.$$$$$$$$$$$$$oo$$@$$$$$$$$$$$$$$$$$#+",
"#$$$$$$$$$$$$$$$$$$@$$$$$$$$$X$$$X.X....@@@#@X@@@@XXXXXXXXX.$$$$$$$$$$$$$$$$@$$$$$$$$$$$$$$$$$#+",
"#$$$$$$$$$$$$$$$$$$@$$oo$$$$$$X#X...XX@X.@@##X@@@@XXXXXXXXX.$$$$$$$$$$$$oo$$@$$$$$$$$$$$$$$$$$#+",
"#$$$$$$$$$$$$$$$$$$@$oooo$$$$$@##.XXX@@@X.###@X@@@@XXXXXXXXX.$$$$$$$$$$oooo$@$$$$$$$$$$$$$$$$$#+",
"#$$$$$$$$$$$$$$$$$$@$oooo$$$$$@$$@#XX##XX@####X@@@@XXXXXXXXX.$$$$$$$$$$oooo$@$$$$$$$$$$$$$$$$$#+",
"#$$$$$$$$$$$$$$$$$$@$$oo$$$$$@#$$$$$$$$$$#####@X@@@@XXXXXXXXX.$$$$$$$$$$oo$$@$$$$$$$$$$$$$$$$$#+",
"#$$$$$$$$$$$$$$$$$$@$$$$$$$$$@$$$$$$$$$$$$####@X@@@@XXXXXXXXX.$$$$$$$$$$$$$$@$$$$$$$$$$$$$$$$$#+",
"#$$$$$$$$$$$$$$$$$$@$$oo$$$$@$$$$$$$$$$$$$###@@@.@@@@XXXXXXXX.$$$$$$$$$$oo$$@$$$$$$$$$$$$$$$$$#+",
"#$$$$$$$$$$$$$$$$$$@$oooo$$@$$$$$$$$$$$$$$$##@@@.X@@@XXXXXXXXX.$$$$$$$$oooo$@$$$$$$$$$$$$$$$$$#+",
"#$$$$$$$$$$$$$$$$$$@$oooo$$@$$$$$$$$$$$$$$$##@....@@@@XXXXXXXX.$$$$$$$$oooo$@$$$$$$$$$$$$$$$$$#+",
"#$$$$$$$$$$$$$$$$$$@$$oo$$$$X@#$$$$$$$$$$$$#@.XX..X@@@XXXXXXXX.$$$$$$$$$oo$$@$$$$$$$$$$$$$$$$$#+",
"#$$$$$$$$$$$$$$$$$$@$$$$$$$$$$@$$$$$$$$$$$$#@XXX...@@@XXXXXXXX.$$$$$$$$$$$$$@$$$$$$$$$$$$$$$$$#+",
"#$$$$$$$$$$$$$$$$$$@$$oo$$$$$$X#$$$$$$$$$$$#.XXXXX.@@@@XXXXXXX.$$$$$$$$$oo$$@$$$$$$$$$$$$$$$$$#+",
"#$$$$$$$$$$$$$$$$$$@$oooo$$$$$.@XX@$$$$$$$$@XXXXXX.X@@@XXXXXXXX.$$$$$$$oooo$@$$$$$$$$$$$$$$$$$#+",
"#$$$$$$$$$$$$$$$$$$@$oooo$$$$$$X@##@#$$$$$#.XXXXXXX.@@@@XXXXXXX.$$$$$$$oooo$@$$$$$$$$$$$$$$$$$#+",
"#$$$$$$$$$$$$$$$$$$@$$oo$$$$$$$X@@##$$$$$#XXXXXX.XX.X@@@XXXXXXXX.$$$$$$$oo$$@$$$$$$$$$$$$$$$$$#+",
"#$$$$$$$$$$$$$$$$$$@$$$$$$$$$$$$X@$$$$$$@XXXXXX...XX.@@@XXXXXXXX.$$$$$$$$$$$@$$$$$$$$$$$$$$$$$#.",
"#$$$$$$$$$$$$$$$$$$@$$oo$$$$$$$$X$$$$#@XXXXXXX.XXX.X.X@@@XXXXXXXX.$$$$$$oo$$@$$$$$$$$$$$$$$$$$#+",
"#$$$$$$$$$$$$$$$$$$@$oooo$$$$$$XX#$#@XXXXXXX..@@XXX...XX@XXXXXXXX.$$$$$oooo$@$$$$$$$$$$$$$$$$$#+",
"@$$$$$$$$$$$$$$$$$$@$oooo$$$$$$.XXXXXXXXXX..X@@@@XXXXX.XX@XXXXXXX.$$$$$oooo$@$$$$$$$$$$$$$$$$$#.",
"#$$$$$$$$$$$$$$$$$$@$$oo$$$$$$$$.XXXXX.X..X@@@@@@XXXXXX.XX@@XXXXXX.$$$$$oo$$@$$$$$$$$$$$$$$$$$#+",
"@$$$$$$$$$$$$$$$$$$@$$$$$$$$$$$$$.......X@#$#@@@@XXXXXX....X@@XXXX.$$$$$$$$$@$$$$$$$$$$$$$$$$$#.",
"@$$$$$$$$$$$$$$$$$$@$$oo$$$$$$$$$$$$$$$.@#$$##@@@@XXXXX......XXXXX.$$$$$oo$$@$$$$$$$$$$$$$$$$$#.",
"#$$$$$$$$$$$$$$$$$$@$oooo$$$$$$$$$$$$$$$.#$$$##@@@XXXX.........XXX.$$$$oooo$@$$$$$$$$$$$$$$$$$#+",
"@$$$$$$$$$$$$$$$$$$@$oooo$$$$$$$$$$$$$$$.@#$$##@@@XXXX...........X.$$$$oooo$@$$$$$$$$$$$$$$$$$#.",
"@$$$$$$$$$$$$$$$$$$@$$oo$$$$$$$$$$$$$...XXX@###@@XX................$$$$$oo$$@$$$$$$$$$$$$$$$$$#.",
"@$$$$$$$$$$$$$$$$$$@$$$$$$$$$$$$$$.....XX@@XX@@X...X...............$$$$$$$$$@$$$$$$$$$$$$$$$$$#.",
"@$$$$$$$$$$$$$$$$$$@$$oo$$$$$$$$.......X@@@@@X..XXX.................$$$$oo$$@$$$$$$$$$$$$$$$$$#.",
"@$$$$$$$$$$$$$$$$$$@$oooo$$$$$...........X@@@@@@@X...................$$oooo$@$$$$$$$$$$$$$$$$$#.",
"@$$$$$$$$$$$$$$$$$$@$oooo$$$$..............X@@@@X.....................$oooo$@$$$$$$$$$$$$$$$$$#.",
"@$$$$$$$$$$$$$$$$$$@$$oo$$$$.................XX.......................$$oo$$@$$$$$$$$$$$$$$$$$#.",
"@$$$$$$$$$$$$$$$$$$@$$$$$$$............................................$$$$$@$$$$$$$$$$$$$$$$$#.",
"@$$$$$$$$$$$$$$$$$$@$$oo$$.............................................$oo$$@$$$$$$$$$$$$$$$$$#.",
"@$$$$$$$$$$$$$$$$$$@$oooo$.............................................oooo$@$$$$$$$$$$$$$$$$$#.",
"@$$$$$$$$$$$$$$$$$$@$oooo..............................................oooo$@$$$$$$$$$$$$$$$$$#.",
"@$$$$$$$$$$$$$$$$$$@$$oo$...............................................oo$$@$$$$$$$$$$$$$$$$$#.",
"@$$$$$$$$$$$$$$$$$$@#####...............................................####@$$$$$$$$$$$$$$$$$#.",
"@$$$$$$$$$$$$$$$$$$@$$oo$...............................................oo$$@$$$$$$$$$$$$$$$$$#.",
"@$$$$$$$$$$$$$$$$$$@$oooo..............................................oooo$@$$$$$$$$$$$$$$$$$#.",
"@$$$$$$$$$$$$$$$$$$@#oooo#.............................................oooo#@$$$$$$$$$$$$$$$$$#.",
"@$$$$$$$$$$$$$$$$$$@$$oo$$............................................$$oo$$@$$$$$$$$$$$$$$$$$#.",
"@$$$$$$$$$$$$$$$$$$@#######.......................XX.................#######@$$$$$$$$$$$$$$$$$#.",
"@$$$$$$$$$$$$$$$$$$@##oo###.....................X@@@@X..............####oo##@$$$$$$$$$$$$$$$$$#.",
"@$$$$$$$$$$$$$$$$$$@#oooo###...................X@@@@@@@X...........####oooo#@$$$$$$$$$$$$$$$$$#.",
"@$$$$$$$$$$$$$$$$$$@#oooo####.................XXX..X@@@@@X.......######oooo#@$$$$$$$$$$$$$$$$$#.",
"@$$$$$$$$$$$$$$$$$$@##oo######...............X...X@@XX@@XX.....#########oo##@$$$$$$$$$$$$$$$$$#.",
"@$$$$$$$$$$$$$$$$$$@##########................XX@@###@XXX...################@$$$$$$$$$$$$$$$$$#.",
"@$$$$$$$$$$$$$$$$$$@##oo######.X...........XXXX@@@##$$#@.###############oo##@$$$$$$$$$$$$$$$$$#.",
"@$$$$$$$$$$$$$$$$$$@#oooo#####.XXX.........XXXX@@@##$$$#.##############oooo#@$$$$$$$$$$$$$$$$$#.",
"@$$$$$$$$$$$$$$$$$$@#oooo#####.XXXXX......XXXXX@@@@##$$#@.#############oooo#@$$$$$$$$$$$$$$$$$#.",
"@$$$$$$$$$$$$$$$$$$@##oo######.XXXX@@X....XXXXXX@@@@#$#@X.......########oo##@$$$$$$$$$$$$$$$$$#.",
"@$$$$$$$$$$$$$$$$$$@##########.XXXXXX@@XX.XXXXXX@@@@@@X..X.XXXXX.###########@$$$$$$$$$$$$$$$$$#.",
"@$$$$$$$$$$$$$$$$$$@##oo#######.XXXXXXX@XX.XXXXX@@@@X..XXXXXXXXXX.######oo##@$$$$$$$$$$$$$$$$$#.",
"@$$$$$$$$$$$$$$$$$$@#oooo######.XXXXXXXX@XX...XXX@@..XXXXXXX@#$#XX#####oooo#@$$$$$$$$$$$$$$$$$#.",
"@$$$$$$$$$$$$$$$$$$@#oooo######.XXXXXXXX@@@X.X.XXX.XXXXXXX@#$$$$X######oooo#@$$$$$$$$$$$$$$$$$#.",
"@$$$$$$$$$$$$$$$$$$@##oo########.XXXXXXXX@@@.XX...XXXXXX@$$$$$$@X#######oo##@$$$$$$$$$$$$$$$$$#.",
"@$$$$$$$$$$$$$$$$$$@############.XXXXXXXX@@@X.XX.XXXXXX#$$$$$##@@X##########@$$$$$$$$$$$$$$$$$#.",
"@$$$$$$$$$$$$$$$$$$@##oo#########.XXXXXXX@@@@.XXXXXXX.#$$$$$#@##@X######oo##@$$$$$$$$$$$$$$$$$#.",
"@$$$$$$$$$$$$$$$$$$@#oooo########.XXXXXXXX@@@X.XXXXXX@$$$$$$$$@XX@.##X#oooo#@$$$$$$$$$$$$$$$$$#.",
"@$$$$$$$$$$$$$$$$$$@#oooo#########.XXXXXXX@@@@.XXXXX.#$$$$$$$$$$$#X####oooo#@$$$$$$$$$$$$$$$$$#.",
"@$$$$$$$$$$$$$$$$$$@##oo##########.XXXXXXXX@@@...XXX@#$$$$$$$$$$$$@#####oo##@$$$$$$$$$$$$$$$$$#.",
"@$$$$$$$$$$$$$$$$$$@##############.XXXXXXXX@@@X..XX.@#$$$$$$$$$$$$#@X#######@$$$$$$$$$$$$$$$$$#.",
"@$$$$$$$$$$$$$$$$$$@##oo##########.XXXXXXXX@@@@....@##$$$$$$$$$$$$$$$@##oo##@$$$$$$$$$$$$$$$$$#.",
"@$$$$$$$$$$$$$$$$$$@#oooo#########.XXXXXXXXX@@@X.@@@##$$$$$$$$$$$$$$$@#oooo#@$$$$$$$$$$$$$$$$$#.",
"@$$$$$$$$$$$$$$$$$$@#oooo##########.XXXXXXXX@@@@.@@@###$$$$$$$$$$$$$@##oooo#@$$$$$$$$$$$$$$$$$#.",
"@$$$$$$$$$$$$$$$$$$@##oo###########.XXXXXXXXX@@@@X@####$$$$$$$$$$$$@####oo##X$$$$$$$$$$$$$$$$$#.",
"@$$$$$$$$$$$$$$$$$$@###############.XXXXXXXXX@@@@X@#####$$$$$$$$$$#@########@$$$$$$$$$$$$$$$$$#.",
"@$$$$$$$$$$$$$$$$$$@##oo############.XXXXXXXXX@@@@X####@XX##XX#@$$@#####oo##@$$$$$$$$$$$$$$$$$#.",
"@$$$$$$$$$$$$$$$$$$@#oooo###########.XXXXXXXXX@@@@X@###.X@@@XXX.##@####oooo#X$$$$$$$$$$$$$$$$$#.",
"@$$$$$$$$$$$$$$$$$$X#oooo############.XXXXXXXXX@@@@X##@@.X@XX...X#X####oooo#X$$$$$$$$$$$$$$$$$#.",
"@##################@##oo#############.XXXXXXXXX@@@@X@#@@@....X.X$$$X####oo##@##################.",
"@$$$$$$$$$$$$$$$$$$X##################.XXXXXXXX@@@@@X##X@@@X..@$$$$#.#######X$$$$$$$$$oo$$$$$$#.",
"@$$$$$$$$$$$$$$$$$$X##oo##############.XXXXXXXXX@@@@X@##XX..@#$$$$$$.###oo##X$$$$$$$$oooo$$$$$#.",
"@$$$$$$$$$$$$$$$$$$X#oooo#############....XXXXXX@@@@@..@########$$$$#X#oooo#X$$$$$$$oooooo$$$$#.",
"@##################X@oooo@@@@@@@@@@@@@.XXX.XXXXXX@@@@.X..XX@#####$$$$X@oooo@X######oooooooo####.",
"@$$$$$$$$$$$$$$$$$$X##oo#############..XXXX.XXXXX@@@@.XX@@@XXXX@###$$X##oo##X$$$$$oooooooooo$$#.",
"@$$$$$$$$$$$$$$$$$$X@@@@@@@@@@@@@@@@....XXXX..XXXX@@@X.X@@@@@@@XX####X@@@@@@X$$$$oooooooooooo$#.",
"@##################X@@oo@@@@@@@@@@@@.....XXXXX..XXX@@@.XX@@@@@@@@X##@X@@oo@@X###oooooooooooooo#.",
"@$$$$$$$$$$$$$$$$$$X#oooo##########.......XXXXXX..XX@@X.XXX@@@@@@@X@..#oooo#X$$oOOOOOOOOOOOOOOo.",
"+##################X@oooo@@@@@@@@@@........XXXXXXX...XX..XXXX@@@@@X.@@.oooo@X##oooooooooooooooo.",
"+$$$$$$$$$$$$$$$$$$X@@oo@@@@@@@@@@...........XXX@@@@X..............@@@..oo@@X$$$oOOOOOOOOOOOOo#.",
"+##################X@@@@@@@@@@@@@@.............X@@@@@@@@@@@@@@@@@@@@@.X.@@@@X####oOOOOOOOOOOo##.",
"+##################X@@oo@@@@@@@@@@...............X@@@@@@@@@@@@@@@@@X.XXXoo@@X#####oOOOOOOOOo###.",
"+$$$$$$$$$$$$$$$$$$X@oooo@@@@@@@@@..................X@@@@@@@@@@@@X..XXXoooo@X$$$$$$oOOOOOOo$$$#.",
"+##################X@oooo@@@@@@@@@.............XXXXX..............XXXXXoooo@X#######oOOOOo#####.",
"+##################X@@oo@@@@@@@@@@............XXXXXXXXXXXXXXXXXXXXXXXXXXoo@@X########oOOo######.",
"+##################X@@@@@@@@@@@@@@...........XXXXXXXXXXXXXXXXXXXXXXXXXXX.@@@X#########oo#######.",
"+$$$$$$$$$$$$$$$$$$X@@@@@@@@@@@@@@...........XXXXXXXXXXXXXXXXXXXXXXXXXXX.@@@X$$$$$$$$$$$$$$$$$#.",
"+##################XXXXXXXXXXXXXXXXXXXXXXXXXXXXXXXXXXXXXXXXXXXXXXXXXXXXXXXXXX#######oo####oo###.",
"+###################################################################################oo####oo###.",
"+###################################################################################ooo###oo###.",
"+####################################################################################ooo##oo###.",
"+#####################################################################################ooo#oo###.",
"+######################################################################################ooooo###.",
"+######################################################################################ooooo###.",
"+#####################################################################################ooo#oo###.",
"+####################################################################################ooo##oo###.",
"+###################################################################################ooo###oo###.",
"+###################################################################################oo####oo###.",
"+###################################################################################oo####oo###.",
"+##############################################################################################.",
"+##############################################################################################.",
"+##############################################################################################.",
"+##############################################################################################.",
"X##############################################################################################.",
"X##############################################################################################.",
"X##############################################################################################.",
" ..XXXXXXXXXXXXXXXXXXXXXXXXXXXXXXXXXXXXXXXXXXXXXXXXXXXXXXXXXXXXXXXXXXXXXXXXXXXXXXXXXXXXXXXXX... "
};
