/* XPM */
static char *_6e786845e8b47a4c1ffb49451a1ba37TnTm8mNWEscq4F2U[] = {
/* columns rows colors chars-per-pixel */
"96 144 9 1 ",
"  c None",
". c #5A2314",
"X c #724930",
"o c #BF1929",
"O c #E43B00",
"+ c #95714B",
"@ c #C08B4C",
"# c #E4C19C",
"$ c #F6DCAF",
/* pixels */
" @@@@@@@@@@@@@@@@@@@@@@@@@@@@@@@@@@@@@@@@@@@@@@@@@@@@@@@@@@@@@@@@@@@@@@@@@@@@@@@@@@@@@@@@@@@@@@ ",
"@##############################################################################################@",
"@$$$$$$$$$$$$$$$$$$$$$$$$$$$$$$$$$$$$$$$$$$$$$$$$$$$$$$$$$$$$$$$$$$$$$$$$$$$$$$$$$$$$$$$$$$$$##@",
"@##############################################################################################@",
"@$$$$$$$$$$$$$$$$$$$$$$$$$$$$$$$$$$$$$$$$$$$$$$$$$$$$$$$$$$$$$$$$$$$$$$$$$$$$$$$$$$$$$$$$$$$$$#@",
"@$$$$$$$$$$$$$$$$$$$$$$$$$$$$$$$$$$$$$$$$$$$$$$$$$$$$$$$$$$$$$$$$$$$$$$$$$$$$$$$$$$$$$$$$$$$$$#@",
"@##############################################################################################@",
"@$$$$$$$$$$$$$$$$$$$$$$$$$$$$$$$$$$$$$$$$$$$$$$$$$$$$$$$$$$$$$$$$$$$$$$$$$$$$$$$$$$$$$$$$$$$$$#@",
"@$$$$$$ooo$$$$$$$$$$$$$$$$$$$$$$$$$$$$$$$$$$$$$$$$$$$$$$$$$$$$$$$$$$$$$$$$$$$$$$$$$$$$$$$$$$$$#@",
"@$$$$$ooooo$$$$$$$$$$$$$$$$$$$$$$$$$$$$$$$$$$$$$$$$$$$$$$$$$$$$$$$$$$$$$$$$$$$$$$$$$$$$$$$$$$$#@",
"@$$$$ooo$ooo$$$$$$$$$$$$$$$$$$$$$$$$$$$$$$$$$$$$$$$$$$$$$$$$$$$$$$$$$$$$$$$$$$$$$$$$$$$$$$$$$$#@",
"@$$$$oo$$$oo$$$$$$$$$$$$$$$$$$$$$$$$$$$$$$$$$$$$$$$$$$$$$$$$$$$$$$$$$$$$$$$$$$$$$$$$$$$$$$$$$$#@",
"@$$$$ooo$ooo$$$$$$$$$$$$$$$$$$$$$$$$$$$$$$$$$$$$$$$$$$$$$$$$$$$$$$$$$$$$$$$$$$$$$$$$$$$$$$$$$$#@",
"@$$$$$ooooo$$$$$$$$$$$$$$$$$$$$$$$$$$$$$$$$$$$$$$$$$$$$$$$$$$$$$$$$$$$$$$$$$$$$$$$$$$$$$$$$$$$#@",
"@$$$$$ooooo$$$$$$$$$$$$$$$$$$$$$$$$$$$$$$$$$$$$$$$$$$$$$$$$$$$$$$$$$$$$$$$$$$$$$$$$$$$$$$$$$$$#@",
"@$$$$ooo$ooo$$$$$$$$$$$$$$$$$$$$$$$$$$$$$$$$$$$$$$$$$$$$$$$$$$$$$$$$$$$$$$$$$$$$$$$$$$$$$$$$$$#@",
"@$$$$oo$$$oo$$$$$$$$$$$$$$$$$$$$$$$$$$$$$$$$$$$$$$$$$$$$$$$$$$$$$$$$$$$$$$$$$$$$$$$$$$$$$$$$$$#@",
"#$$$$ooo$ooo$$$$$$$$$$$$$$$$$$$$$$$$$$$$$$$$$$$$$$$$$$$$$$$$$$$$$$$$$$$$$$$$$$$$$$$$$$$$$$$$$$#@",
"@$$$$$ooooo$$$$$$$$$$$$$$$$$$$$$$$$$$$$$$$$$$$$$$$$$$$$$$$$$$$$$$$$$$$$$$$$$$$$$$$$$$$$$$$$$$$#@",
"@$$$$$$ooo$$$$$$$$$$$$$$$$$$$$$$$$$$$$$$$$$$$$$$$$$$$$$$$$$$$$$$$$$$$$$$$$$$$$$$$$$$$$$$$$$$$$#@",
"#$$$$$$$$$$$$$$$$$$$$$$$$$$$$$$$$$$$$$$$$$$$$$$$$$$$$$$$$$$$$$$$$$$$$$$$$$$$$$$$$$$$$$$$$$$$$$#@",
"@$$$$$$$oo$$$$$$$$$$$$$$$$$$$$$$$$$$$$$$$$$$$$$$$$$$$$$$$$$$$$$$$$$$$$$$$$$$$$$$$$$$$$$$$$$$$$#@",
"#$$$$$$oOOo$$$$$$$$$$$$$$$$$$$$$$$$$$$$$$$$$$$$$$$$$$$$$$$$$$$$$$$$$$$$$$$$$$$$$$$$$$$$$$$$$$$#@",
"#$$$$$oOOOOo$$$$$$$$$$$$$$$$$$$$$$$$$$$$$$$$$$$$$$$$$$$$$$$$$$$$$$$$$$$$$$$$$$$$$$$$$$$$$$$$$$#@",
"#$$$$oOOOOOOo$$$$$$$$$$$$$$$$$$$$$$$$$$$$$$$$$$$$$$$$$$$$$$$$$$$$$$$$$$$$$$$$$$$$$$$$$$$$$$$$$#@",
"#$$$oOOOOOOOOo$$$$$$$$$$$$$$$$$$$$$$$$$$$$$$$$$$$$$$$$$$$$$$$$$$$$$$$$$$$$$$$$$$$$$$$$$$$$$$$$#@",
"#$$oOOOOOOOOOOo$$$$$$$$$$$$$$$$$$$$$$$$$$$$$$$$$$$$$$$$$$$$$$$$$$$$$$$$$$$$$$$$$$$$$$$$$$$$$$$#@",
"#$oOOOOOOOOOOOOo$$$$$$$$$$$$$$$$$$$$$$$$$$$$$$$$$$$$$$$$$$$$$$$$$$$$$$$$$$$$$$$$$$$$$$$$$$$$$$#@",
"#oooooooooooooooo$$$$$$$$$$$$$$$$$$$$$$$$$$$$$$$$$$$$$$$$$$$$$$$$$$$$$$$$$$$$$$$$$$$$$$$$$$$$$#+",
"#oOOOOOOOOOOOOOOo$$$$$$$$$$$$$$$$$$$$$$$$$$$$$$$$$$$$$$$$$$$$$$$$$$$$$$$$$$$$$$$$$$$$$$$$$$$$$#@",
"#$oooooooooooooo$$$$$$$$$$$$$$$$$$$$$$$$$$$$$$$$$$$$$$$$$$$$$$$$$$$$$$$$$$$$$$$$$$$$$$$$$$$$$$#@",
"#$$oooooooooooo$$$$$$$$$$$$$$$$$$$$$$$$$$$$$$$$$$$$$$$$$$$$$$$$$$$$$$$$$$$$$$$$$$$$$$$$$$$$$$$#+",
"#$$$oooooooooo$$$$$$$$$$$$$$$$$$$$$$$$$$$$$$$$$$$$$$$$$$$$$$$$$$$$$$$$$$$$$$$$$$$$$$$$$$$$$$$$#@",
"#$$$$oooooooo$$$$$$$$$$$$$$$$$$$$$$$$$$$$$$$$$$$$$$$$$$$$$$$$$$$$$$$$$$$$$$$$$$$$$$$$$$$$$$$$$#+",
"#$$$$$oooooo$$$$$$$$$$$$$$$$$$$$$$$$$$$$$$$$$$$$$$$$$$$$$$$$$$$$$$$$$$$$$$$$$$$$$$$$$$$$$$$$$$#+",
"#$$$$$$oooo$$$$$$$$$$$$$$$$$$$oo$$$$$$$$$$$$$$$$$$$$$$$$$$$$$$$$oo$$$$$$$$$$$$$$$$$$$$$$$$$$$$#@",
"#$$$$$$$oo$$$$$$$$$$$$$$$$$$$oOOo$$$$$$$$$$$$$$$$$$$$$$$$$$$$$$oOOo$$$$$$$$$$$$$$$$$$$$$$$$$$$#+",
"#$$$$$$$$$$$$$$$$$$$$$$$$$$$oOOOOo$$$$$$$$$$$$$$$$$$$$$$$$$$$$oOOOOo$$$$$$$$$$$$$$$$$$$$$$$$$$#+",
"#$$$$$$$$$$$$$$$$$$$$$$$$$$oOOOOOOo$$$$$$$$$$$$$$$$$$$$$$$$$$oOOOOOOo$$$$$$$$$$$$$$$$$$$$$$$$$#+",
"#$$$$$$$$$$$$$$$$$$$$$$$$$oOOOOOOOOo$$$$$$$$$$$$$$$$$$$$$$$$oOOOOOOOOo$$$$$$$$$$$$$$$$$$$$$$$$#+",
"#$$$$$$$$$$$$$$$$$$$$$$$$oOOOOOOOOOOo$$$$$$$$$$$$$$$$$$$$$$oOOOOOOOOOOo$$$$$$$$$$$$$$$$$$$$$$$#+",
"#$$$$$$$$$$$$$$$$$$$$$$$oOOOOOOOOOOOOo$$$$$$$$$$$$$$$$$$$$oOOOOOOOOOOOOo$$$$$$$$$$$$$$$$$$$$$$#+",
"#$$$$$$$$$$$$$$$$$$$$$$oooooooooooooooo$$$$$$$$$$$$$$$$$$oooooooooooooooo$$$$$$$$$$$$$$$$$$$$$#+",
"#$$$$$$$$$$$$$$$$$$$$$$oOOOOOOOOOOOOOOo$$$$$$$$$$$$$$$$$$oOOOOOOOOOOOOOOo$$$$$$$$$$$$$$$$$$$$$#+",
"#$$$$$$$$$$$$$$$$$$$$$$$oooooooooooooo$$$$$$$$$$$$$$$$$$$$oooooooooooooo$$$$$$$$$$$$$$$$$$$$$$#+",
"#$$$$$$$$$$$$$$$$$$$$$$$$oooooooooooo$$$$$$$$$$$$$$$$$$$$$$oooooooooooo$$$$$$$$$$$$$$$$$$$$$$$#+",
"#$$$$$$$$$$$$$$$$$$$$$$$$$oooooooooo$$$$$$$$$$$$$$$$$$$$$$$$oooooooooo$$$$$$$$$$$$$$$$$$$$$$$$#+",
"#$$$$$$$$$$$$$$$$$$$$$$$$$$oooooooo$$$$$$$$$$$$$$$$$$$$$$$$$$oooooooo$$$$$$$$$$$$$$$$$$$$$$$$$#+",
"#$$$$$$$$$$$$$$$$$$$$$$$$$$$oooooo$$$$$$$$$$$$$oo$$$$$$$$$$$$$oooooo$$$$$$$$$$$$$$$$$$$$$$$$$$#+",
"#$$$$$$$$$$$$$$$$$$$$$$$$$$$$oooo$$$$$$$$$$$$$oOOo$$$$$$$$$$$$$oooo$$$$$$$$$$$$$$$$$$$$$$$$$$$#+",
"#$$$$$$$$$$$$$$$$$$$$$$$$$$$$$oo$$$$$$$$$$$$$oOOOOo$$$$$$$$$$$$$oo$$$$$$$$$$$$$$$$$$$$$$$$$$$$#+",
"#$$$$$$$$$$$$$$$$$$$$$$$$$$$$$$$$$$$$$$$$$$$oOOOOOOo$$$$$$$$$$$$$$$$$$$$$$$$$$$$$$$$$$$$$$$$$$#+",
"#$$$$$$$$$$$$$$$$$$$$$$$$$$$$$$$$$$$$$$$$$$oOOOOOOOOo$$$$$$$$$$$$$$$$$$$$$$$$$$$$$$$$$$$$$$$$$#.",
"#$$$$$$$$$$$$$$$$$$$$$$$$$$$$$$$$$$$$$$$$$oOOOOOOOOOOo$$$$$$$$$$$$$$$$$$$$$$$$$$$$$$$$$$$$$$$$#+",
"#$$$$$$$$$$$$$$$$$$$$$$$$$$$$$$$$$$$$$$$$oOOOOOOOOOOOOo$$$$$$$$$$$$$$$$$$$$$$$$$$$$$$$$$$$$$$$#+",
"@$$$$$$$$$$$$$$$$$$$$$$$$$$$$$$$$$$$$$$$oooooooooooooooo$$$$$$$$$$$$$$$$$$$$$$$$$$$$$$$$$$$$$$#.",
"#$$$$$$$$$$$$$$$$$$$$$$$$$$$$$$$$$$$$$$$oOOOOOOOOOOOOOOo$$$$$$$$$$$$$$$$$$$$$$$$$$$$$$$$$$$$$$#+",
"@$$$$$$$$$$$$$$$$$$$$$$$$$$$$$$$$$$$$$$$$oooooooooooooo$$$$$$$$$$$$$$$$$$$$$$$$$$$$$$$$$$$$$$$#.",
"@$$$$$$$$$$$$$$$$$$$$$$$$$$$$$$$$$$$$$$$$$oooooooooooo$$$$$$$$$$$$$$$$$$$$$$$$$$$$$$$$$$$$$$$$#.",
"#$$$$$$$$$$$$$$$$$$$$$$$$$$$$$$$$$$$$$$$$$$oooooooooo$$$$$$$$$$$$$$$$$$$$$$$$$$$$$$$$$$$$$$$$$#+",
"@$$$$$$$$$$$$$$$$$$$$$$$$$$$$$$$$$$$$$$$$$$$oooooooo$$$$$$$$$$$$$$$$$$$$$$$$$$$$$$$$$$$$$$$$$$#.",
"@$$$$$$$$$$$$$$$$$$$$$$$$$$$$$$$$$$$$$$$$$$$$oooooo$$$$$$$$$$$$$$$$$$$$$$$$$$$$$$$$$$$$$$$$$$$#.",
"@$$$$$$$$$$$$$$$$$$$$$$$$$$$$$$$$$$$$$$$$$$$$$oooo$$$$$$$$$$$$$$$$$$$$$$$$$$$$$$$$$$$$$$$$$$$$#.",
"@$$$$$$$$$$$$$$$$$$$$$$$$$$$$$oo$$$$$$$$$$$$$$$oo$$$$$$$$$$$$$$$oo$$$$$$$$$$$$$$$$$$$$$$$$$$$$#.",
"@$$$$$$$$$$$$$$$$$$$$$$$$$$$$oOOo$$$$$$$$$$$$$$$$$$$$$$$$$$$$$$oOOo$$$$$$$$$$$$$$$$$$$$$$$$$$$#.",
"@$$$$$$$$$$$$$$$$$$$$$$$$$$$oOOOOo$$$$$$$$$$$$$$$$$$$$$$$$$$$$oOOOOo$$$$$$$$$$$$$$$$$$$$$$$$$$#.",
"@$$$$$$$$$$$$$$$$$$$$$$$$$$oOOOOOOo$$$$$$$$$$$$$$$$$$$$$$$$$$oOOOOOOo$$$$$$$$$$$$$$$$$$$$$$$$$#.",
"@$$$$$$$$$$$$$$$$$$$$$$$$$oOOOOOOOOo$$$$$$$$$$$$$$$$$$$$$$$$oOOOOOOOOo$$$$$$$$$$$$$$$$$$$$$$$$#.",
"@$$$$$$$$$$$$$$$$$$$$$$$$oOOOOOOOOOOo$$$$$$$$$$$$$$$$$$$$$$oOOOOOOOOOOo$$$$$$$$$$$$$$$$$$$$$$$#.",
"@$$$$$$$$$$$$$$$$$$$$$$$oOOOOOOOOOOOOo$$$$$$$$$$$$$$$$$$$$oOOOOOOOOOOOOo$$$$$$$$$$$$$$$$$$$$$$#.",
"@$$$$$$$$$$$$$$$$$$$$$$oooooooooooooooo$$$$$$$$$$$$$$$$$$oooooooooooooooo$$$$$$$$$$$$$$$$$$$$$#.",
"@$$$$$$$$$$$$$$$$$$$$$$oOOOOOOOOOOOOOOo$$$$$$$$$$$$$$$$$$oOOOOOOOOOOOOOOo$$$$$$$$$$$$$$$$$$$$$#.",
"@$$$$$$$$$$$$$$$$$$$$$$$oooooooooooooo$$$$$$$$$$$$$$$$$$$$oooooooooooooo$$$$$$$$$$$$$$$$$$$$$$#.",
"@$$$$$$$$$$$$$$$$$$$$$$$$oooooooooooo$$$$$$$$$$$$$$$$$$$$$$oooooooooooo$$$$$$$$$$$$$$$$$$$$$$$#.",
"@$$$$$$$$$$$$$$$$$$$$$$$$$oooooooooo$$$$$$$$$$$$$$$$$$$$$$$$oooooooooo$$$$$$$$$$$$$$$$$$$$$$$$#.",
"@$$$$$$$$$$$$$$$$$$$$$$$$$$oooooooo$$$$$$$$$$$$$$$$$$$$$$$$$$oooooooo$$$$$$$$$$$$$$$$$$$$$$$$$#.",
"@$$$$$$$$$$$$$$$$$$$$$$$$$$$oooooo$$$$$$$$$$$$$$$$$$$$$$$$$$$$oooooo$$$$$$$$$$$$$$$$$$$$$$$$$$#.",
"@$$$$$$$$$$$$$$$$$$$$$$$$$$$$oooo$$$$$$$$$$$$$$$$$$$$$$$$$$$$$$oooo$$$$$$$$$$$$$$$$$$$$$$$$$$$#.",
"@$$$$$$$$$$$$$$$$$$$$$$$$$$$$$oo$$$$$$$$$$$$$$$$$$$$$$$$$$$$$$$$oo$$$$$$$$$$$$$$$$$$$$$$$$$$$$#.",
"@$$$$$$$$$$$$$$$$$$$$$$$$$$$$$$$$$$$$$$$$$$$$$$oo$$$$$$$$$$$$$$$$$$$$$$$$$$$$$$$$$$$$$$$$$$$$$#.",
"@$$$$$$$$$$$$$$$$$$$$$$$$$$$$$$$$$$$$$$$$$$$$$oooo$$$$$$$$$$$$$$$$$$$$$$$$$$$$$$$$$$$$$$$$$$$$#.",
"@$$$$$$$$$$$$$$$$$$$$$$$$$$$$$$$$$$$$$$$$$$$$oooooo$$$$$$$$$$$$$$$$$$$$$$$$$$$$$$$$$$$$$$$$$$$#.",
"@$$$$$$$$$$$$$$$$$$$$$$$$$$$$$$$$$$$$$$$$$$$oooooooo$$$$$$$$$$$$$$$$$$$$$$$$$$$$$$$$$$$$$$$$$$#.",
"@$$$$$$$$$$$$$$$$$$$$$$$$$$$$$$$$$$$$$$$$$$oooooooooo$$$$$$$$$$$$$$$$$$$$$$$$$$$$$$$$$$$$$$$$$#.",
"@$$$$$$$$$$$$$$$$$$$$$$$$$$$$$$$$$$$$$$$$$oooooooooooo$$$$$$$$$$$$$$$$$$$$$$$$$$$$$$$$$$$$$$$$#.",
"@$$$$$$$$$$$$$$$$$$$$$$$$$$$$$$$$$$$$$$$$oooooooooooooo$$$$$$$$$$$$$$$$$$$$$$$$$$$$$$$$$$$$$$$#.",
"@$$$$$$$$$$$$$$$$$$$$$$$$$$$$$$$$$$$$$$$oOOOOOOOOOOOOOOo$$$$$$$$$$$$$$$$$$$$$$$$$$$$$$$$$$$$$$#.",
"@$$$$$$$$$$$$$$$$$$$$$$$$$$$$$$$$$$$$$$$oooooooooooooooo$$$$$$$$$$$$$$$$$$$$$$$$$$$$$$$$$$$$$$#.",
"@$$$$$$$$$$$$$$$$$$$$$$$$$$$$$$$$$$$$$$$$oOOOOOOOOOOOOo$$$$$$$$$$$$$$$$$$$$$$$$$$$$$$$$$$$$$$$#.",
"@$$$$$$$$$$$$$$$$$$$$$$$$$$$$$$$$$$$$$$$$$oOOOOOOOOOOo$$$$$$$$$$$$$$$$$$$$$$$$$$$$$$$$$$$$$$$$#.",
"@$$$$$$$$$$$$$$$$$$$$$$$$$$$$$$$$$$$$$$$$$$oOOOOOOOOo$$$$$$$$$$$$$$$$$$$$$$$$$$$$$$$$$$$$$$$$$#.",
"@$$$$$$$$$$$$$$$$$$$$$$$$$$$$$$$$$$$$$$$$$$$oOOOOOOo$$$$$$$$$$$$$$$$$$$$$$$$$$$$$$$$$$$$$$$$$$#.",
"@$$$$$$$$$$$$$$$$$$$$$$$$$$$$$$$$$$$$$$$$$$$$oOOOOo$$$$$$$$$$$$$$$$$$$$$$$$$$$$$$$$$$$$$$$$$$$#.",
"@$$$$$$$$$$$$$$$$$$$$$$$$$$$$$oo$$$$$$$$$$$$$$oOOo$$$$$$$$$$$$$$oo$$$$$$$$$$$$$$$$$$$$$$$$$$$$#.",
"@$$$$$$$$$$$$$$$$$$$$$$$$$$$$oooo$$$$$$$$$$$$$$oo$$$$$$$$$$$$$$oooo$$$$$$$$$$$$$$$$$$$$$$$$$$$#.",
"@$$$$$$$$$$$$$$$$$$$$$$$$$$$oooooo$$$$$$$$$$$$$$$$$$$$$$$$$$$$oooooo$$$$$$$$$$$$$$$$$$$$$$$$$$#.",
"@$$$$$$$$$$$$$$$$$$$$$$$$$$oooooooo$$$$$$$$$$$$$$$$$$$$$$$$$$oooooooo$$$$$$$$$$$$$$$$$$$$$$$$$#.",
"@$$$$$$$$$$$$$$$$$$$$$$$$$oooooooooo$$$$$$$$$$$$$$$$$$$$$$$$oooooooooo$$$$$$$$$$$$$$$$$$$$$$$$#.",
"@$$$$$$$$$$$$$$$$$$$$$$$$oooooooooooo$$$$$$$$$$$$$$$$$$$$$$oooooooooooo$$$$$$$$$$$$$$$$$$$$$$$#.",
"@$$$$$$$$$$$$$$$$$$$$$$$oooooooooooooo$$$$$$$$$$$$$$$$$$$$oooooooooooooo$$$$$$$$$$$$$$$$$$$$$$#.",
"@$$$$$$$$$$$$$$$$$$$$$$oOOOOOOOOOOOOOOo$$$$$$$$$$$$$$$$$$oOOOOOOOOOOOOOOo$$$$$$$$$$$$$$$$$$$$$#.",
"@$$$$$$$$$$$$$$$$$$$$$$oooooooooooooooo$$$$$$$$$$$$$$$$$$oooooooooooooooo$$$$$$$$$$$$$$$$$$$$$#.",
"@$$$$$$$$$$$$$$$$$$$$$$$oOOOOOOOOOOOOo$$$$$$$$$$$$$$$$$$$$oOOOOOOOOOOOOo$$$$$$$$$$$$$$$$$$$$$$#.",
"@$$$$$$$$$$$$$$$$$$$$$$$$oOOOOOOOOOOo$$$$$$$$$$$$$$$$$$$$$$oOOOOOOOOOOo$$$$$$$$$$$$$$$$$$$$$$$#.",
"@$$$$$$$$$$$$$$$$$$$$$$$$$oOOOOOOOOo$$$$$$$$$$$$$$$$$$$$$$$$oOOOOOOOOo$$$$$$$$$$$$$$$$$$$$$$$$#.",
"@$$$$$$$$$$$$$$$$$$$$$$$$$$oOOOOOOo$$$$$$$$$$$$$$$$$$$$$$$$$$oOOOOOOo$$$$$$$$$$$$$$$$$$$$$$$$$#.",
"@###########################oOOOOo############################oOOOOo###########################.",
"@$$$$$$$$$$$$$$$$$$$$$$$$$$$$oOOo$$$$$$$$$$$$$$$$$$$$$$$$$$$$$$oOOo$$$$$$$$$$$$$$$$$$$oo$$$$$$#.",
"@$$$$$$$$$$$$$$$$$$$$$$$$$$$$$oo$$$$$$$$$$$$$$$$$$$$$$$$$$$$$$$$oo$$$$$$$$$$$$$$$$$$$oooo$$$$$#.",
"@$$$$$$$$$$$$$$$$$$$$$$$$$$$$$$$$$$$$$$$$$$$$$$$$$$$$$$$$$$$$$$$$$$$$$$$$$$$$$$$$$$$oooooo$$$$#.",
"@##################################################################################oooooooo####.",
"@$$$$$$$$$$$$$$$$$$$$$$$$$$$$$$$$$$$$$$$$$$$$$$$$$$$$$$$$$$$$$$$$$$$$$$$$$$$$$$$$$oooooooooo$$#.",
"@$$$$$$$$$$$$$$$$$$$$$$$$$$$$$$$$$$$$$$$$$$$$$$$$$$$$$$$$$$$$$$$$$$$$$$$$$$$$$$$$oooooooooooo$#.",
"@###############################################################################oooooooooooooo#.",
"@$$$$$$$$$$$$$$$$$$$$$$$$$$$$$$$$$$$$$$$$$$$$$$$$$$$$$$$$$$$$$$$$$$$$$$$$$$$$$$oOOOOOOOOOOOOOOo.",
"+##############################################################################oooooooooooooooo.",
"+$$$$$$$$$$$$$$$$$$$$$$$$$$$$$$$$$$$$$$$$$$$$$$$$$$$$$$$$$$$$$$$$$$$$$$$$$$$$$$$oOOOOOOOOOOOOo#.",
"+################################################################################oOOOOOOOOOOo##.",
"+#################################################################################oOOOOOOOOo###.",
"+$$$$$$$$$$$$$$$$$$$$$$$$$$$$$$$$$$$$$$$$$$$$$$$$$$$$$$$$$$$$$$$$$$$$$$$$$$$$$$$$$$oOOOOOOo$$$#.",
"+###################################################################################oOOOOo#####.",
"+####################################################################################oOOo######.",
"+#####################################################################################oo#######.",
"+$$$$$$$$$$$$$$$$$$$$$$$$$$$$$$$$$$$$$$$$$$$$$$$$$$$$$$$$$$$$$$$$$$$$$$$$$$$$$$$$$$$$$$$$$$$$$#.",
"+#####################################################################################ooo######.",
"+####################################################################################ooooo#####.",
"+###################################################################################ooo#ooo####.",
"+###################################################################################oo###oo####.",
"+###################################################################################ooo#ooo####.",
"+####################################################################################ooooo#####.",
"+####################################################################################ooooo#####.",
"+###################################################################################ooo#ooo####.",
"+###################################################################################oo###oo####.",
"+###################################################################################ooo#ooo####.",
"+####################################################################################ooooo#####.",
"+#####################################################################################ooo######.",
"+##############################################################################################.",
"+##############################################################################################.",
"+##############################################################################################.",
"+##############################################################################################.",
"X##############################################################################################.",
"X##############################################################################################.",
"X##############################################################################################.",
" ..XXXXXXXXXXXXXXXXXXXXXXXXXXXXXXXXXXXXXXXXXXXXXXXXXXXXXXXXXXXXXXXXXXXXXXXXXXXXXXXXXXXXXXXXX... "
};
